<?xml version="1.0" encoding="us-ascii" standalone="no"?><svg xmlns="http://www.w3.org/2000/svg" xmlns:xlink="http://www.w3.org/1999/xlink" contentStyleType="text/css" height="785px" preserveAspectRatio="none" style="width:761px;height:785px;background:#FFFFFF;" version="1.1" viewBox="0 0 761 785" width="761px" zoomAndPan="magnify"><defs/><g><ellipse cx="372.5" cy="20" fill="#222222" rx="10" ry="10" style="stroke:#222222;stroke-width:1.0;"/><rect fill="#F1F1F1" height="35.0938" rx="12.5" ry="12.5" style="stroke:#181818;stroke-width:0.5;" width="279" x="233" y="94"/><text fill="#000000" font-family="sans-serif" font-size="12" lengthAdjust="spacing" textLength="259" x="243" y="116.457">Driver is being navigated to hitchhiker's location</text><rect fill="#F1F1F1" height="35.0938" rx="12.5" ry="12.5" style="stroke:#181818;stroke-width:0.5;" width="195" x="275" y="149.0938"/><text fill="#000000" font-family="sans-serif" font-size="12" lengthAdjust="spacing" textLength="175" x="285" y="171.5508">Driver decides to cancel the ride</text><rect fill="#F1F1F1" height="35.0938" rx="12.5" ry="12.5" style="stroke:#181818;stroke-width:0.5;" width="207" x="269" y="204.1875"/><text fill="#000000" font-family="sans-serif" font-size="12" lengthAdjust="spacing" textLength="187" x="279" y="226.6445">Driver taps on "Cancel ride" option</text><rect fill="#F1F1F1" height="35.0938" rx="12.5" ry="12.5" style="stroke:#181818;stroke-width:0.5;" width="357" x="194" y="259.2813"/><text fill="#000000" font-family="sans-serif" font-size="12" lengthAdjust="spacing" textLength="337" x="204" y="281.7383">System asks driver if they are sure they want to cancel the ride</text><rect fill="#F1F1F1" height="35.0938" rx="12.5" ry="12.5" style="stroke:#181818;stroke-width:0.5;" width="172" x="286.5" y="314.375"/><text fill="#000000" font-family="sans-serif" font-size="12" lengthAdjust="spacing" textLength="152" x="296.5" y="336.832">Driver confirms cancellation</text><polygon fill="#F1F1F1" points="332,369.4688,413,369.4688,425,381.4688,413,393.4688,332,393.4688,320,381.4688,332,369.4688" style="stroke:#181818;stroke-width:0.5;"/><text fill="#000000" font-family="sans-serif" font-size="11" lengthAdjust="spacing" textLength="81" x="332" y="385.9697">Can cancel ride?</text><text fill="#000000" font-family="sans-serif" font-size="11" lengthAdjust="spacing" textLength="18" x="302" y="379.0518">yes</text><text fill="#000000" font-family="sans-serif" font-size="11" lengthAdjust="spacing" textLength="12" x="425" y="379.0518">no</text><rect fill="#F1F1F1" height="35.0938" rx="12.5" ry="12.5" style="stroke:#181818;stroke-width:0.5;" width="151" x="114.5" y="403.4688"/><text fill="#000000" font-family="sans-serif" font-size="12" lengthAdjust="spacing" textLength="131" x="124.5" y="425.9258">System cancels the ride</text><rect fill="#F1F1F1" height="35.0938" rx="12.5" ry="12.5" style="stroke:#181818;stroke-width:0.5;" width="254" x="63" y="458.5625"/><text fill="#000000" font-family="sans-serif" font-size="12" lengthAdjust="spacing" textLength="234" x="73" y="481.0195">System shows confirmation of cancellation</text><rect fill="#F1F1F1" height="35.0938" rx="12.5" ry="12.5" style="stroke:#181818;stroke-width:0.5;" width="229" x="75.5" y="513.6563"/><text fill="#000000" font-family="sans-serif" font-size="12" lengthAdjust="spacing" textLength="209" x="85.5" y="536.1133">System navigates driver to home page</text><rect fill="#F1F1F1" height="35.0938" rx="12.5" ry="12.5" style="stroke:#181818;stroke-width:0.5;" width="338" x="21" y="568.75"/><text fill="#000000" font-family="sans-serif" font-size="12" lengthAdjust="spacing" textLength="318" x="31" y="591.207">System notifies hitchhiker that the ride has been cancelled</text><rect fill="#F1F1F1" height="35.0938" rx="12.5" ry="12.5" style="stroke:#181818;stroke-width:0.5;" width="358" x="11" y="623.8438"/><text fill="#000000" font-family="sans-serif" font-size="12" lengthAdjust="spacing" textLength="338" x="21" y="646.3008">Hitchhiker is shown available drivers heading in their direction</text><rect fill="#F1F1F1" height="35.0938" rx="12.5" ry="12.5" style="stroke:#181818;stroke-width:0.5;" width="332" x="389" y="403.4688"/><text fill="#000000" font-family="sans-serif" font-size="12" lengthAdjust="spacing" textLength="312" x="399" y="425.9258">System shows error message of not being able to cancel</text><polygon fill="#F1F1F1" points="372.5,664.9375,384.5,676.9375,372.5,688.9375,360.5,676.9375,372.5,664.9375" style="stroke:#181818;stroke-width:0.5;"/><polygon fill="#F1F1F1" points="372.5,50,384.5,62,372.5,74,360.5,62,372.5,50" style="stroke:#181818;stroke-width:0.5;"/><polygon fill="#F1F1F1" points="334.5,708.9375,410.5,708.9375,422.5,720.9375,410.5,732.9375,334.5,732.9375,322.5,720.9375,334.5,708.9375" style="stroke:#181818;stroke-width:0.5;"/><text fill="#000000" font-family="sans-serif" font-size="11" lengthAdjust="spacing" textLength="76" x="334.5" y="725.4385">Ride cancelled?</text><text fill="#000000" font-family="sans-serif" font-size="11" lengthAdjust="spacing" textLength="12" x="422.5" y="718.5205">no</text><ellipse cx="372.5" cy="763.9375" fill="none" rx="11" ry="11" style="stroke:#222222;stroke-width:1.0;"/><ellipse cx="372.5" cy="763.9375" fill="#222222" rx="6" ry="6" style="stroke:#222222;stroke-width:1.0;"/><line style="stroke:#181818;stroke-width:1.0;" x1="372.5" x2="372.5" y1="129.0938" y2="149.0938"/><polygon fill="#181818" points="368.5,139.0938,372.5,149.0938,376.5,139.0938,372.5,143.0938" style="stroke:#181818;stroke-width:1.0;"/><line style="stroke:#181818;stroke-width:1.0;" x1="372.5" x2="372.5" y1="184.1875" y2="204.1875"/><polygon fill="#181818" points="368.5,194.1875,372.5,204.1875,376.5,194.1875,372.5,198.1875" style="stroke:#181818;stroke-width:1.0;"/><line style="stroke:#181818;stroke-width:1.0;" x1="372.5" x2="372.5" y1="239.2813" y2="259.2813"/><polygon fill="#181818" points="368.5,249.2813,372.5,259.2813,376.5,249.2813,372.5,253.2813" style="stroke:#181818;stroke-width:1.0;"/><line style="stroke:#181818;stroke-width:1.0;" x1="372.5" x2="372.5" y1="294.375" y2="314.375"/><polygon fill="#181818" points="368.5,304.375,372.5,314.375,376.5,304.375,372.5,308.375" style="stroke:#181818;stroke-width:1.0;"/><line style="stroke:#181818;stroke-width:1.0;" x1="190" x2="190" y1="438.5625" y2="458.5625"/><polygon fill="#181818" points="186,448.5625,190,458.5625,194,448.5625,190,452.5625" style="stroke:#181818;stroke-width:1.0;"/><line style="stroke:#181818;stroke-width:1.0;" x1="190" x2="190" y1="493.6563" y2="513.6563"/><polygon fill="#181818" points="186,503.6563,190,513.6563,194,503.6563,190,507.6563" style="stroke:#181818;stroke-width:1.0;"/><line style="stroke:#181818;stroke-width:1.0;" x1="190" x2="190" y1="548.75" y2="568.75"/><polygon fill="#181818" points="186,558.75,190,568.75,194,558.75,190,562.75" style="stroke:#181818;stroke-width:1.0;"/><line style="stroke:#181818;stroke-width:1.0;" x1="190" x2="190" y1="603.8438" y2="623.8438"/><polygon fill="#181818" points="186,613.8438,190,623.8438,194,613.8438,190,617.8438" style="stroke:#181818;stroke-width:1.0;"/><line style="stroke:#181818;stroke-width:1.0;" x1="320" x2="190" y1="381.4688" y2="381.4688"/><line style="stroke:#181818;stroke-width:1.0;" x1="190" x2="190" y1="381.4688" y2="403.4688"/><polygon fill="#181818" points="186,393.4688,190,403.4688,194,393.4688,190,397.4688" style="stroke:#181818;stroke-width:1.0;"/><line style="stroke:#181818;stroke-width:1.0;" x1="425" x2="555" y1="381.4688" y2="381.4688"/><line style="stroke:#181818;stroke-width:1.0;" x1="555" x2="555" y1="381.4688" y2="403.4688"/><polygon fill="#181818" points="551,393.4688,555,403.4688,559,393.4688,555,397.4688" style="stroke:#181818;stroke-width:1.0;"/><line style="stroke:#181818;stroke-width:1.0;" x1="190" x2="190" y1="658.9375" y2="676.9375"/><line style="stroke:#181818;stroke-width:1.0;" x1="190" x2="360.5" y1="676.9375" y2="676.9375"/><polygon fill="#181818" points="350.5,672.9375,360.5,676.9375,350.5,680.9375,354.5,676.9375" style="stroke:#181818;stroke-width:1.0;"/><line style="stroke:#181818;stroke-width:1.0;" x1="555" x2="555" y1="438.5625" y2="676.9375"/><line style="stroke:#181818;stroke-width:1.0;" x1="555" x2="384.5" y1="676.9375" y2="676.9375"/><polygon fill="#181818" points="394.5,672.9375,384.5,676.9375,394.5,680.9375,390.5,676.9375" style="stroke:#181818;stroke-width:1.0;"/><line style="stroke:#181818;stroke-width:1.0;" x1="372.5" x2="372.5" y1="349.4688" y2="369.4688"/><polygon fill="#181818" points="368.5,359.4688,372.5,369.4688,376.5,359.4688,372.5,363.4688" style="stroke:#181818;stroke-width:1.0;"/><line style="stroke:#181818;stroke-width:1.0;" x1="372.5" x2="372.5" y1="74" y2="94"/><polygon fill="#181818" points="368.5,84,372.5,94,376.5,84,372.5,88" style="stroke:#181818;stroke-width:1.0;"/><line style="stroke:#181818;stroke-width:1.0;" x1="422.5" x2="735" y1="720.9375" y2="720.9375"/><polygon fill="#181818" points="731,393.9688,735,383.9688,739,393.9688,735,389.9688" style="stroke:#181818;stroke-width:1.0;"/><line style="stroke:#181818;stroke-width:1.0;" x1="735" x2="735" y1="62" y2="720.9375"/><line style="stroke:#181818;stroke-width:1.0;" x1="735" x2="384.5" y1="62" y2="62"/><polygon fill="#181818" points="394.5,58,384.5,62,394.5,66,390.5,62" style="stroke:#181818;stroke-width:1.0;"/><line style="stroke:#181818;stroke-width:1.0;" x1="372.5" x2="372.5" y1="688.9375" y2="708.9375"/><polygon fill="#181818" points="368.5,698.9375,372.5,708.9375,376.5,698.9375,372.5,702.9375" style="stroke:#181818;stroke-width:1.0;"/><line style="stroke:#181818;stroke-width:1.0;" x1="372.5" x2="372.5" y1="30" y2="50"/><polygon fill="#181818" points="368.5,40,372.5,50,376.5,40,372.5,44" style="stroke:#181818;stroke-width:1.0;"/><line style="stroke:#181818;stroke-width:1.0;" x1="372.5" x2="372.5" y1="732.9375" y2="752.9375"/><polygon fill="#181818" points="368.5,742.9375,372.5,752.9375,376.5,742.9375,372.5,746.9375" style="stroke:#181818;stroke-width:1.0;"/><!--SRC=[XL8xRiCm3Drp2Y9BdIkqGuTswDoUW97eY8Wj6IAJmBSlvSYEQxIe1mCs7j-7ZwAOTPTf8DJTytlcAsLWWIDnF474AvzGoOCc2Amk13vJVXBeaaFb55zsOCyywCcn9obeXz5H1ne8iltxYLCS15A4_TiTLH1xICEAyMiKfHvGpWA-sceBtGYO2UHYh-dhXb7_5NGfjfnxgQYkUfymHjkOZvcW3ByU2a-4PYGvJA2rfpjGDb9hX8HqarbqqeBKRhItC_EkbxXbvQad6F3qYqHCoYqR-b6B6K9TN470KYFDmJhoAvQFnvIrNVn6m2joXyUEgWFZ9lJb3ZWMMhQ2EPDx-BSj43Gn7VxO0EMSClGaOXdA2inrFQr9PwcjqaNFRJr6k0KsHFDPeYm9h1YpEocAfk4R]--></g></svg>