<svg xmlns="http://www.w3.org/2000/svg" xmlns:xlink="http://www.w3.org/1999/xlink" contentStyleType="text/css" data-diagram-type="DESCRIPTION" height="491px" preserveAspectRatio="none" style="width:423px;height:491px;background:#FFFFFF;" version="1.1" viewBox="0 0 423 491" width="423px" zoomAndPan="magnify">
<style>
    :target ellipse {
      fill: #00c3ff !important ;
    }
    </style>
<defs/><g><!--cluster E-Stop - Establishing Rides--><g class="cluster" data-entity="E-Stop - Establishing Rides" data-source-line="4" data-uid="ent0004" id="cluster_E-Stop - Establishing Rides"><rect fill="none" height="478" rx="2.5" ry="2.5" style="stroke:#181818;stroke-width:1;" width="228.57" x="188.72" y="7"/><text fill="#000000" font-family="sans-serif" font-size="14" font-weight="bold" lengthAdjust="spacing" textLength="212.3926" x="196.8087" y="21.9951">E-Stop - Establishing Rides</text></g><!--entity UC_DDL--><g class="entity" data-entity="UC_DDL" data-source-line="5" data-uid="ent0005" id="entity_UC_DDL"><ellipse cx="302.996" cy="192.9972" fill="#F1F1F1" rx="85.686" ry="19.5372" style="stroke:#181818;stroke-width:0.5;"/><text fill="#000000" font-family="sans-serif" font-size="14" lengthAdjust="spacing" textLength="143.9033" x="231.0443" y="197.6456">Display driver listing</text></g><!--entity UC_FAR--><g class="entity" data-entity="UC_FAR" data-source-line="6" data-uid="ent0006" id="entity_UC_FAR"><ellipse cx="303.0045" cy="282.0029" fill="#F1F1F1" rx="79.2645" ry="18.2529" style="stroke:#181818;stroke-width:0.5;"/><text fill="#000000" font-family="sans-serif" font-size="14" lengthAdjust="spacing" textLength="128.9395" x="238.5348" y="286.6513">Find available ride</text></g><!--entity UC_SD--><g class="entity" data-entity="UC_SD" data-source-line="7" data-uid="ent0007" id="entity_UC_SD"><ellipse cx="303.0032" cy="58.0006" fill="#F1F1F1" rx="69.8032" ry="16.3606" style="stroke:#181818;stroke-width:0.5;"/><text fill="#000000" font-family="sans-serif" font-size="14" lengthAdjust="spacing" textLength="105.8818" x="250.0623" y="62.6491">Set destination</text></g><!--entity UC_SRD--><g class="entity" data-entity="UC_SRD" data-source-line="8" data-uid="ent0008" id="entity_UC_SRD"><ellipse cx="302.9958" cy="450.0012" fill="#F1F1F1" rx="82.9058" ry="18.9812" style="stroke:#181818;stroke-width:0.5;"/><text fill="#000000" font-family="sans-serif" font-size="14" lengthAdjust="spacing" textLength="137.4775" x="234.2571" y="454.6496">Set ride destination</text></g><!--entity UC_RRN--><g class="entity" data-entity="UC_RRN" data-source-line="9" data-uid="ent0009" id="entity_UC_RRN"><ellipse cx="302.9958" cy="373.9972" fill="#F1F1F1" rx="98.2858" ry="22.0572" style="stroke:#181818;stroke-width:0.5;"/><text fill="#000000" font-family="sans-serif" font-size="14" lengthAdjust="spacing" textLength="172.2725" x="216.8595" y="378.6456">Ride request notification</text></g><!--entity UC_RD--><g class="entity" data-entity="UC_RD" data-source-line="10" data-uid="ent0010" id="entity_UC_RD"><ellipse cx="302.997" cy="123.9994" fill="#F1F1F1" rx="61.997" ry="14.7994" style="stroke:#181818;stroke-width:0.5;"/><text fill="#000000" font-family="sans-serif" font-size="14" lengthAdjust="spacing" textLength="85.3398" x="260.3271" y="128.6478">Rate drivers</text></g><!--entity AC_H--><g class="entity" data-entity="AC_H" data-source-line="2" data-uid="ent0002" id="entity_AC_H"><ellipse cx="41.8579" cy="129.35" fill="#F1F1F1" rx="8" ry="8" style="stroke:#181818;stroke-width:0.5;"/><path d="M41.8579,137.35 L41.8579,164.35 M28.8579,145.35 L54.8579,145.35 M41.8579,164.35 L28.8579,179.35 M41.8579,164.35 L54.8579,179.35" fill="none" style="stroke:#181818;stroke-width:0.5;"/><text fill="#000000" font-family="sans-serif" font-size="14" lengthAdjust="spacing" textLength="71.7158" x="6" y="193.8451">Hitchhiker</text></g><!--entity AC_D--><g class="entity" data-entity="AC_D" data-source-line="3" data-uid="ent0003" id="entity_AC_D"><ellipse cx="41.86" cy="381.35" fill="#F1F1F1" rx="8" ry="8" style="stroke:#181818;stroke-width:0.5;"/><path d="M41.86,389.35 L41.86,416.35 M28.86,397.35 L54.86,397.35 M41.86,416.35 L28.86,431.35 M41.86,416.35 L54.86,431.35" fill="none" style="stroke:#181818;stroke-width:0.5;"/><text fill="#000000" font-family="sans-serif" font-size="14" lengthAdjust="spacing" textLength="43.0801" x="20.32" y="445.8451">Driver</text></g><!--reverse link UC_DDL to UC_FAR--><g class="link" data-entity-1="UC_DDL" data-entity-2="UC_FAR" data-source-line="12" data-uid="lnk12" id="link_UC_DDL_UC_FAR"><path d="M303,218.96 C303,234.12 303,248.79 303,263.56" fill="none" id="UC_DDL-backto-UC_FAR" style="stroke:#181818;stroke-width:1;stroke-dasharray:7.0,7.0;"/><polygon fill="#181818" points="303,212.96,299,221.96,303,217.96,307,221.96,303,212.96" style="stroke:#181818;stroke-width:1;"/><text fill="#000000" font-family="sans-serif" font-size="13" lengthAdjust="spacing" textLength="63.0068" x="260" y="242.7069">&#171;include&#187;</text></g><!--reverse link UC_SD to UC_FAR--><g class="link" data-entity-1="UC_SD" data-entity-2="UC_FAR" data-source-line="13" data-uid="lnk14" id="link_UC_SD_UC_FAR"><path d="M237.3258,68.1109 C216.3358,73.1509 199.23,79.65 180.72,92 C153.23,110.34 145.63,119.27 134.85,150.5 C114.28,210.05 195.18,248.5 251.86,267.61" fill="none" id="UC_SD-backto-UC_FAR" style="stroke:#181818;stroke-width:1;stroke-dasharray:7.0,7.0;"/><polygon fill="#181818" points="243.16,66.71,233.4748,64.9219,238.2982,67.8774,235.3427,72.7008,243.16,66.71" style="stroke:#181818;stroke-width:1;"/><text fill="#000000" font-family="sans-serif" font-size="13" lengthAdjust="spacing" textLength="63.0068" x="108.72" y="163.5669">&#171;include&#187;</text></g><!--reverse link UC_RRN to UC_FAR--><g class="link" data-entity-1="UC_RRN" data-entity-2="UC_FAR" data-source-line="14" data-uid="lnk16" id="link_UC_RRN_UC_FAR"><path d="M303,345.73 C303,330.09 303,315.42 303,300.66" fill="none" id="UC_RRN-backto-UC_FAR" style="stroke:#181818;stroke-width:1;stroke-dasharray:7.0,7.0;"/><polygon fill="#181818" points="303,351.73,307,342.73,303,346.73,299,342.73,303,351.73" style="stroke:#181818;stroke-width:1;"/><text fill="#000000" font-family="sans-serif" font-size="13" lengthAdjust="spacing" textLength="63.0068" x="260" y="330.6669">&#171;include&#187;</text></g><!--link AC_H to UC_DDL--><g class="link" data-entity-1="AC_H" data-entity-2="UC_DDL" data-source-line="15" data-uid="lnk17" id="link_AC_H_UC_DDL"><path d="M78.15,165.32 C87.73,166.94 98.11,168.62 107.72,170 C146.21,175.54 183.1781,180.0451 218.8681,184.0851" fill="none" id="AC_H-to-UC_DDL" style="stroke:#181818;stroke-width:1;"/><polygon fill="#181818" points="224.83,184.76,216.337,179.7731,219.8617,184.1976,215.4372,187.7223,224.83,184.76" style="stroke:#181818;stroke-width:1;"/></g><!--link AC_H to UC_FAR--><g class="link" data-entity-1="AC_H" data-entity-2="UC_FAR" data-source-line="16" data-uid="lnk18" id="link_AC_H_UC_FAR"><path d="M77.93,177.93 C105.59,192.65 145.28,213.3 180.72,230 C207.76,242.74 233.2104,253.7051 257.1004,263.6451" fill="none" id="AC_H-to-UC_FAR" style="stroke:#181818;stroke-width:1;"/><polygon fill="#181818" points="262.64,265.95,255.8672,258.7996,258.0236,264.0293,252.794,266.1857,262.64,265.95" style="stroke:#181818;stroke-width:1;"/></g><!--link AC_H to UC_SD--><g class="link" data-entity-1="AC_H" data-entity-2="UC_SD" data-source-line="17" data-uid="lnk19" id="link_AC_H_UC_SD"><path d="M77.96,134.05 C87.36,127.99 97.7,121.87 107.72,117 C153.69,94.66 204.076,80.1018 244.196,70.4618" fill="none" id="AC_H-to-UC_SD" style="stroke:#181818;stroke-width:1;"/><polygon fill="#181818" points="250.03,69.06,240.3446,67.2734,245.1684,70.2281,242.2136,75.052,250.03,69.06" style="stroke:#181818;stroke-width:1;"/></g><!--link AC_D to UC_SRD--><g class="link" data-entity-1="AC_D" data-entity-2="UC_SRD" data-source-line="18" data-uid="lnk20" id="link_AC_D_UC_SRD"><path d="M63.63,414.13 C99.84,419.58 170.1268,430.1573 226.6868,438.6673" fill="none" id="AC_D-to-UC_SRD" style="stroke:#181818;stroke-width:1;"/><polygon fill="#181818" points="232.62,439.56,224.3153,434.2655,227.6757,438.8161,223.125,442.1764,232.62,439.56" style="stroke:#181818;stroke-width:1;"/></g><!--link AC_D to UC_RRN--><g class="link" data-entity-1="AC_D" data-entity-2="UC_RRN" data-source-line="19" data-uid="lnk21" id="link_AC_D_UC_RRN"><path d="M63.63,408.03 C97.02,403.27 158.4802,394.4879 213.1202,386.6879" fill="none" id="AC_D-to-UC_RRN" style="stroke:#181818;stroke-width:1;"/><polygon fill="#181818" points="219.06,385.84,209.585,383.152,214.1102,386.5466,210.7156,391.0717,219.06,385.84" style="stroke:#181818;stroke-width:1;"/></g><!--link AC_H to UC_RD--><g class="link" data-entity-1="AC_H" data-entity-2="UC_RD" data-source-line="20" data-uid="lnk22" id="link_AC_H_UC_RD"><path d="M78.13,152.04 C87.71,150.27 98.09,148.46 107.72,147 C153.89,140 200.5443,134.5307 239.3743,130.3607" fill="none" id="AC_H-to-UC_RD" style="stroke:#181818;stroke-width:1;"/><polygon fill="#181818" points="245.34,129.72,235.9643,126.7039,240.3686,130.2539,236.8186,134.6581,245.34,129.72" style="stroke:#181818;stroke-width:1;"/></g><!--SRC=[VP71JiCm38RlVGghz-u1q5Hf8fjsG1nISKOXyLgBA1c9EmaXtXrdh6CjYDp- -FCV_ux70mD7IDGF38uIMgOOAcCv9gZtn7OOw1LJ3IR3vlvvFvLKejFFjQfAfmczHwYtJSVn20riCviNJtcWq8CcXxc6ZmhaZ1cjoS8goaTlti6TxK1W5lXi-oIswc6ExoWuC2T3NenHndOuiRkDdhCTIY8iVgPachXE_SQApv-iNi0b12Hy6uM549aEP6STMZykEWpZ9Ls-GghwhBv7XfLVjPUeS0VhDGNhHuTjkmGwzNzTNbu0vRkWQIRxcIxRkjMobVADLwddkiIwnRNw0W00]--></g></svg>