<svg xmlns="http://www.w3.org/2000/svg" xmlns:xlink="http://www.w3.org/1999/xlink" contentStyleType="text/css" data-diagram-type="ACTIVITY" height="529px" preserveAspectRatio="none" style="width:934px;height:529px;background:#FFFFFF;" version="1.1" viewBox="0 0 934 529" width="934px" zoomAndPan="magnify"><defs/><g><ellipse cx="467.071" cy="20" fill="#222222" rx="10" ry="10" style="stroke:#222222;stroke-width:1;"/><rect fill="#F1F1F1" height="36.3441" rx="12.5" ry="12.5" style="stroke:#181818;stroke-width:0.5;" width="239.5896" x="347.2762" y="50"/><text fill="#000000" font-family="sans-serif" font-size="12" lengthAdjust="spacing" textLength="219.5896" x="357.2762" y="72.8281">Driver navigates to Set ride destination</text><rect fill="#F1F1F1" height="36.3441" rx="12.5" ry="12.5" style="stroke:#181818;stroke-width:0.5;" width="239.6616" x="347.2402" y="106.3441"/><text fill="#000000" font-family="sans-serif" font-size="12" lengthAdjust="spacing" textLength="219.6616" x="357.2402" y="129.1722">System shows a map with a search box</text><rect fill="#F1F1F1" height="36.3441" rx="12.5" ry="12.5" style="stroke:#181818;stroke-width:0.5;" width="452.7231" x="240.7094" y="162.6882"/><text fill="#000000" font-family="sans-serif" font-size="12" lengthAdjust="spacing" textLength="432.7231" x="250.7094" y="185.5163">Driver can search for his ride destination (through search box or pin on map)</text><polygon fill="#F1F1F1" points="415.3768,219.0323,518.7651,219.0323,530.7651,231.0323,518.7651,243.0323,415.3768,243.0323,403.3768,231.0323,415.3768,219.0323" style="stroke:#181818;stroke-width:0.5;"/><text fill="#000000" font-family="sans-serif" font-size="11" lengthAdjust="spacing" textLength="103.3883" x="415.3768" y="235.3003">Destination address</text><rect fill="#F1F1F1" height="36.3441" rx="12.5" ry="12.5" style="stroke:#181818;stroke-width:0.5;" width="333.6104" x="11" y="282.9961"/><text fill="#000000" font-family="sans-serif" font-size="12" lengthAdjust="spacing" textLength="313.6104" x="21" y="305.8242">System shows shows a prompt to complete the address</text><rect fill="#F1F1F1" height="36.3441" rx="12.5" ry="12.5" style="stroke:#181818;stroke-width:0.5;" width="202.8333" x="76.3885" y="339.3402"/><text fill="#000000" font-family="sans-serif" font-size="12" lengthAdjust="spacing" textLength="182.8333" x="86.3885" y="362.1683">Driver can complete the address</text><rect fill="#F1F1F1" height="36.3441" rx="12.5" ry="12.5" style="stroke:#181818;stroke-width:0.5;" width="247.2096" x="364.6104" y="282.9961"/><text fill="#000000" font-family="sans-serif" font-size="12" lengthAdjust="spacing" textLength="227.2096" x="374.6104" y="305.8242">Driver confirms their chosen destination</text><rect fill="#F1F1F1" height="36.3441" rx="12.5" ry="12.5" style="stroke:#181818;stroke-width:0.5;" width="291.322" x="631.82" y="282.9961"/><text fill="#000000" font-family="sans-serif" font-size="12" lengthAdjust="spacing" textLength="271.322" x="641.82" y="305.8242">System shows a list of places with similar names</text><rect fill="#F1F1F1" height="36.3441" rx="12.5" ry="12.5" style="stroke:#181818;stroke-width:0.5;" width="241.8336" x="656.5642" y="339.3402"/><text fill="#000000" font-family="sans-serif" font-size="12" lengthAdjust="spacing" textLength="221.8336" x="666.5642" y="362.1683">Driver can pick destination from the list</text><polygon fill="#F1F1F1" points="467.071,395.6843,467.071,395.6843,479.071,407.6843,467.071,419.6843,467.071,419.6843,455.071,407.6843,467.071,395.6843" style="stroke:#181818;stroke-width:0.5;"/><rect fill="#F1F1F1" height="36.3441" rx="12.5" ry="12.5" style="stroke:#181818;stroke-width:0.5;" width="174.9091" x="379.6164" y="439.6843"/><text fill="#000000" font-family="sans-serif" font-size="12" lengthAdjust="spacing" textLength="154.9091" x="389.6164" y="462.5124">System confirms this action</text><ellipse cx="467.071" cy="507.0285" fill="none" rx="11" ry="11" style="stroke:#222222;stroke-width:1;"/><ellipse cx="467.071" cy="507.0285" fill="#222222" rx="6" ry="6" style="stroke:#222222;stroke-width:1;"/><line style="stroke:#181818;stroke-width:1;" x1="467.071" x2="467.071" y1="30" y2="50"/><polygon fill="#181818" points="463.071,40,467.071,50,471.071,40,467.071,44" style="stroke:#181818;stroke-width:1;"/><line style="stroke:#181818;stroke-width:1;" x1="467.071" x2="467.071" y1="86.3441" y2="106.3441"/><polygon fill="#181818" points="463.071,96.3441,467.071,106.3441,471.071,96.3441,467.071,100.3441" style="stroke:#181818;stroke-width:1;"/><line style="stroke:#181818;stroke-width:1;" x1="467.071" x2="467.071" y1="142.6882" y2="162.6882"/><polygon fill="#181818" points="463.071,152.6882,467.071,162.6882,471.071,152.6882,467.071,156.6882" style="stroke:#181818;stroke-width:1;"/><line style="stroke:#181818;stroke-width:1;" x1="177.8052" x2="177.8052" y1="319.3402" y2="339.3402"/><polygon fill="#181818" points="173.8052,329.3402,177.8052,339.3402,181.8052,329.3402,177.8052,333.3402" style="stroke:#181818;stroke-width:1;"/><line style="stroke:#181818;stroke-width:1;" x1="777.481" x2="777.481" y1="319.3402" y2="339.3402"/><polygon fill="#181818" points="773.481,329.3402,777.481,339.3402,781.481,329.3402,777.481,333.3402" style="stroke:#181818;stroke-width:1;"/><line style="stroke:#181818;stroke-width:1;" x1="403.3768" x2="177.8052" y1="231.0323" y2="231.0323"/><line style="stroke:#181818;stroke-width:1;" x1="177.8052" x2="177.8052" y1="231.0323" y2="282.9961"/><polygon fill="#181818" points="173.8052,272.9961,177.8052,282.9961,181.8052,272.9961,177.8052,276.9961" style="stroke:#181818;stroke-width:1;"/><text fill="#000000" font-family="sans-serif" font-size="11" lengthAdjust="spacing" textLength="68.8045" x="180.6652" y="261.2822">is incomplete</text><line style="stroke:#181818;stroke-width:1;" x1="530.7651" x2="777.481" y1="231.0323" y2="231.0323"/><line style="stroke:#181818;stroke-width:1;" x1="777.481" x2="777.481" y1="231.0323" y2="282.9961"/><polygon fill="#181818" points="773.481,272.9961,777.481,282.9961,781.481,272.9961,777.481,276.9961" style="stroke:#181818;stroke-width:1;"/><text fill="#000000" font-family="sans-serif" font-size="11" lengthAdjust="spacing" textLength="59.3336" x="780.341" y="261.2822">is unknown</text><line style="stroke:#181818;stroke-width:1;" x1="467.071" x2="467.071" y1="243.0323" y2="256.3536"/><line style="stroke:#181818;stroke-width:1;" x1="467.071" x2="488.2152" y1="256.3536" y2="256.3536"/><line style="stroke:#181818;stroke-width:1;" x1="488.2152" x2="488.2152" y1="256.3536" y2="282.9961"/><polygon fill="#181818" points="484.2152,272.9961,488.2152,282.9961,492.2152,272.9961,488.2152,276.9961" style="stroke:#181818;stroke-width:1;"/><text fill="#000000" font-family="sans-serif" font-size="11" lengthAdjust="spacing" textLength="35.1668" x="469.931" y="262.2822">is valid</text><line style="stroke:#181818;stroke-width:1;" x1="177.8052" x2="177.8052" y1="375.6843" y2="407.6843"/><line style="stroke:#181818;stroke-width:1;" x1="177.8052" x2="455.071" y1="407.6843" y2="407.6843"/><polygon fill="#181818" points="445.071,403.6843,455.071,407.6843,445.071,411.6843,449.071,407.6843" style="stroke:#181818;stroke-width:1;"/><line style="stroke:#181818;stroke-width:1;" x1="777.481" x2="777.481" y1="375.6843" y2="407.6843"/><line style="stroke:#181818;stroke-width:1;" x1="777.481" x2="479.071" y1="407.6843" y2="407.6843"/><polygon fill="#181818" points="489.071,403.6843,479.071,407.6843,489.071,411.6843,485.071,407.6843" style="stroke:#181818;stroke-width:1;"/><line style="stroke:#181818;stroke-width:1;" x1="488.2152" x2="488.2152" y1="319.3402" y2="380.6843"/><line style="stroke:#181818;stroke-width:1;" x1="488.2152" x2="467.071" y1="380.6843" y2="380.6843"/><line style="stroke:#181818;stroke-width:1;" x1="467.071" x2="467.071" y1="380.6843" y2="395.6843"/><polygon fill="#181818" points="463.071,385.6843,467.071,395.6843,471.071,385.6843,467.071,389.6843" style="stroke:#181818;stroke-width:1;"/><line style="stroke:#181818;stroke-width:1;" x1="467.071" x2="467.071" y1="199.0323" y2="219.0323"/><polygon fill="#181818" points="463.071,209.0323,467.071,219.0323,471.071,209.0323,467.071,213.0323" style="stroke:#181818;stroke-width:1;"/><line style="stroke:#181818;stroke-width:1;" x1="467.071" x2="467.071" y1="419.6843" y2="439.6843"/><polygon fill="#181818" points="463.071,429.6843,467.071,439.6843,471.071,429.6843,467.071,433.6843" style="stroke:#181818;stroke-width:1;"/><line style="stroke:#181818;stroke-width:1;" x1="467.071" x2="467.071" y1="476.0285" y2="496.0285"/><polygon fill="#181818" points="463.071,486.0285,467.071,496.0285,471.071,486.0285,467.071,490.0285" style="stroke:#181818;stroke-width:1;"/><!--SRC=[TL51SeCm3Bpp2Xt35y8rFyWBL2DYJR3biHHeVnyHXXIcgK-sjLhjhjImMdE-L9weGiQ9RsYaO09NCgZS4_IanXcD9NVD-VgZHWaqogo0aB30p1RzgeGrHFYIx-xD631l_uDKYAn_EE5aiShZ5dS4uDZ26Rpg0zgkKP_XfTDbruTzNqcrRS1FG2KuWVDp3fBAI4PhvQXuqrsgWspnkQ718csStTgvC_4_wdVoX2FtxR5Lyi0rwTB6_eoYb8-97ZaU-Pvbpf-a8uoi1Z906J7uabwvAoSUSTbTeW-w2uVx8Ut1ZRzCB6HTGxbVitrlTYVPzM1OLQf9UG80]--></g></svg>