<svg xmlns="http://www.w3.org/2000/svg" xmlns:xlink="http://www.w3.org/1999/xlink" contentStyleType="text/css" data-diagram-type="DESCRIPTION" height="384px" preserveAspectRatio="none" style="width:719px;height:384px;background:#FFFFFF;" version="1.1" viewBox="0 0 719 384" width="719px" zoomAndPan="magnify"><defs/><g><!--cluster E-Stop - Establishing Rides--><g class="cluster" data-entity="E-Stop - Establishing Rides" data-source-line="4" data-uid="ent0004" id="cluster_E-Stop - Establishing Rides"><rect fill="none" height="371" rx="2.5" ry="2.5" style="stroke:#181818;stroke-width:1;" width="524.94" x="188.72" y="7"/><text fill="#000000" font-family="sans-serif" font-size="14" font-weight="bold" lengthAdjust="spacing" textLength="212.3926" x="344.9937" y="21.9951">E-Stop - Establishing Rides</text></g><!--entity UC_DDL--><g class="entity" data-entity="UC_DDL" data-source-line="5" data-uid="ent0005" id="entity_UC_DDL"><ellipse cx="611.966" cy="93.9972" fill="#F1F1F1" rx="85.686" ry="19.5372" style="stroke:#181818;stroke-width:0.5;"/><text fill="#000000" font-family="sans-serif" font-size="14" lengthAdjust="spacing" textLength="143.9033" x="540.0143" y="98.6456">Display driver listing</text></g><!--entity UC_FAR--><g class="entity" data-entity="UC_FAR" data-source-line="6" data-uid="ent0006" id="entity_UC_FAR"><ellipse cx="303.0045" cy="60.0029" fill="#F1F1F1" rx="79.2645" ry="18.2529" style="stroke:#181818;stroke-width:0.5;"/><text fill="#000000" font-family="sans-serif" font-size="14" lengthAdjust="spacing" textLength="128.9395" x="238.5348" y="64.6513">Find available ride</text></g><!--entity UC_SD--><g class="entity" data-entity="UC_SD" data-source-line="7" data-uid="ent0007" id="entity_UC_SD"><ellipse cx="303.0032" cy="194.0006" fill="#F1F1F1" rx="69.8032" ry="16.3606" style="stroke:#181818;stroke-width:0.5;"/><text fill="#000000" font-family="sans-serif" font-size="14" lengthAdjust="spacing" textLength="105.8818" x="250.0623" y="198.6491">Set destination</text></g><!--entity UC_SRD--><g class="entity" data-entity="UC_SRD" data-source-line="8" data-uid="ent0008" id="entity_UC_SRD"><ellipse cx="302.9958" cy="264.0012" fill="#F1F1F1" rx="82.9058" ry="18.9812" style="stroke:#181818;stroke-width:0.5;"/><text fill="#000000" font-family="sans-serif" font-size="14" lengthAdjust="spacing" textLength="137.4775" x="234.2571" y="268.6496">Set ride destination</text></g><!--entity UC_RRN--><g class="entity" data-entity="UC_RRN" data-source-line="9" data-uid="ent0009" id="entity_UC_RRN"><ellipse cx="302.9958" cy="339.9972" fill="#F1F1F1" rx="98.2858" ry="22.0572" style="stroke:#181818;stroke-width:0.5;"/><text fill="#000000" font-family="sans-serif" font-size="14" lengthAdjust="spacing" textLength="172.2725" x="216.8595" y="344.6456">Ride request notification</text></g><!--entity UC_RD--><g class="entity" data-entity="UC_RD" data-source-line="10" data-uid="ent0010" id="entity_UC_RD"><ellipse cx="302.997" cy="127.9994" fill="#F1F1F1" rx="61.997" ry="14.7994" style="stroke:#181818;stroke-width:0.5;"/><text fill="#000000" font-family="sans-serif" font-size="14" lengthAdjust="spacing" textLength="85.3398" x="260.3271" y="132.6478">Rate drivers</text></g><!--entity AC_H--><g class="entity" data-entity="AC_H" data-source-line="2" data-uid="ent0002" id="entity_AC_H"><ellipse cx="41.8579" cy="98.35" fill="#F1F1F1" rx="8" ry="8" style="stroke:#181818;stroke-width:0.5;"/><path d="M41.8579,106.35 L41.8579,133.35 M28.8579,114.35 L54.8579,114.35 M41.8579,133.35 L28.8579,148.35 M41.8579,133.35 L54.8579,148.35" fill="none" style="stroke:#181818;stroke-width:0.5;"/><text fill="#000000" font-family="sans-serif" font-size="14" lengthAdjust="spacing" textLength="71.7158" x="6" y="162.8451">Hitchhiker</text></g><!--entity AC_D--><g class="entity" data-entity="AC_D" data-source-line="3" data-uid="ent0003" id="entity_AC_D"><ellipse cx="41.86" cy="263.35" fill="#F1F1F1" rx="8" ry="8" style="stroke:#181818;stroke-width:0.5;"/><path d="M41.86,271.35 L41.86,298.35 M28.86,279.35 L54.86,279.35 M41.86,298.35 L28.86,313.35 M41.86,298.35 L54.86,313.35" fill="none" style="stroke:#181818;stroke-width:0.5;"/><text fill="#000000" font-family="sans-serif" font-size="14" lengthAdjust="spacing" textLength="43.0801" x="20.32" y="327.8451">Driver</text></g><!--link UC_FAR to UC_DDL--><g class="link" data-entity-1="UC_FAR" data-entity-2="UC_DDL" data-source-line="12" data-uid="lnk11" id="link_UC_FAR_UC_DDL"><path d="M375.2,67.89 C422.84,73.16 479.5465,79.4393 528.2865,84.8393" fill="none" id="UC_FAR-to-UC_DDL" style="stroke:#181818;stroke-width:1;stroke-dasharray:7.0,7.0;"/><polygon fill="#181818" points="534.25,85.5,525.7452,80.5333,529.2804,84.9494,524.8643,88.4846,534.25,85.5" style="stroke:#181818;stroke-width:1;"/><text fill="#000000" font-family="sans-serif" font-size="13" lengthAdjust="spacing" textLength="63.0068" x="432.29" y="71.0669">&#171;include&#187;</text></g><!--reverse link UC_SD to UC_FAR--><g class="link" data-entity-1="UC_SD" data-entity-2="UC_FAR" data-source-line="13" data-uid="lnk13" id="link_UC_SD_UC_FAR"><path d="M236.6545,202.8212 C200.8745,204.2012 163.77,198.42 138.85,169.5 C114.95,141.77 142.17,122.92 180.72,96 C197.68,84.15 218.57,76.16 238.24,70.78" fill="none" id="UC_SD-backto-UC_FAR" style="stroke:#181818;stroke-width:1;stroke-dasharray:7.0,7.0;"/><polygon fill="#181818" points="242.65,202.59,233.5025,198.9398,237.6537,202.7827,233.8108,206.9339,242.65,202.59" style="stroke:#181818;stroke-width:1;"/><text fill="#000000" font-family="sans-serif" font-size="13" lengthAdjust="spacing" textLength="63.0068" x="108.72" y="165.5669">&#171;include&#187;</text></g><!--reverse link UC_RRN to UC_FAR--><g class="link" data-entity-1="UC_RRN" data-entity-2="UC_FAR" data-source-line="14" data-uid="lnk15" id="link_UC_RRN_UC_FAR"><path d="M226.0476,322.5736 C208.3976,316.6936 195.9,310.64 180.72,300 C155.99,282.67 148.69,275.04 138.85,246.5 C121,194.75 91.96,183.21 180.72,96 C194.61,82.35 213.4,73.83 232.08,68.53" fill="none" id="UC_RRN-backto-UC_FAR" style="stroke:#181818;stroke-width:1;stroke-dasharray:7.0,7.0;"/><polygon fill="#181818" points="231.74,324.47,224.4656,317.8305,226.9963,322.8897,221.9371,325.4203,231.74,324.47" style="stroke:#181818;stroke-width:1;"/><text fill="#000000" font-family="sans-serif" font-size="13" lengthAdjust="spacing" textLength="63.0068" x="108.72" y="242.5669">&#171;include&#187;</text></g><!--link UC_RD to UC_DDL--><g class="link" data-entity-1="UC_RD" data-entity-2="UC_DDL" data-source-line="15" data-uid="lnk16" id="link_UC_RD_UC_DDL"><path d="M359.96,121.95 C398.33,117.79 450.4,112.11 496.29,107 C508.63,105.63 515.7679,104.8234 528.5179,103.3834" fill="none" id="UC_RD-to-UC_DDL" style="stroke:#181818;stroke-width:1;stroke-dasharray:7.0,7.0;"/><polygon fill="#181818" points="534.48,102.71,525.0879,99.7453,529.5116,103.2711,525.9858,107.6948,534.48,102.71" style="stroke:#181818;stroke-width:1;"/><text fill="#000000" font-family="sans-serif" font-size="13" lengthAdjust="spacing" textLength="63.0068" x="432.29" y="103.0669">&#171;include&#187;</text></g><!--link AC_H to UC_FAR--><g class="link" data-entity-1="AC_H" data-entity-2="UC_FAR" data-source-line="16" data-uid="lnk17" id="link_AC_H_UC_FAR"><path d="M78.15,112.6 C87.64,108.81 97.97,104.98 107.72,102 C150.61,88.87 194.1457,79.3613 232.4157,72.0813" fill="none" id="AC_H-to-UC_FAR" style="stroke:#181818;stroke-width:1;"/><polygon fill="#181818" points="238.31,70.96,228.721,68.7124,233.3981,71.8944,230.2161,76.5714,238.31,70.96" style="stroke:#181818;stroke-width:1;"/></g><!--link AC_H to UC_SD--><g class="link" data-entity-1="AC_H" data-entity-2="UC_SD" data-source-line="17" data-uid="lnk18" id="link_AC_H_UC_SD"><path d="M78.2,156.44 C87.34,162.51 97.51,168.22 107.72,172 C147.51,186.73 188.7672,192.0263 226.7172,193.8863" fill="none" id="AC_H-to-UC_SD" style="stroke:#181818;stroke-width:1;"/><polygon fill="#181818" points="232.71,194.18,223.9166,189.7442,227.716,193.9352,223.525,197.7346,232.71,194.18" style="stroke:#181818;stroke-width:1;"/></g><!--link AC_D to UC_SRD--><g class="link" data-entity-1="AC_D" data-entity-2="UC_SRD" data-source-line="18" data-uid="lnk19" id="link_AC_D_UC_SRD"><path d="M63.63,290.68 C98.82,286.74 165.8373,279.2377 221.8273,272.9677" fill="none" id="AC_D-to-UC_SRD" style="stroke:#181818;stroke-width:1;"/><polygon fill="#181818" points="227.79,272.3,218.4008,269.3264,222.8211,272.8564,219.2911,277.2768,227.79,272.3" style="stroke:#181818;stroke-width:1;"/></g><!--link AC_D to UC_RRN--><g class="link" data-entity-1="AC_D" data-entity-2="UC_RRN" data-source-line="19" data-uid="lnk20" id="link_AC_D_UC_RRN"><path d="M63.63,296.77 C98.34,303.06 163.9063,314.9491 219.5863,325.0491" fill="none" id="AC_D-to-UC_RRN" style="stroke:#181818;stroke-width:1;"/><polygon fill="#181818" points="225.49,326.12,217.3484,320.5779,220.5703,325.2276,215.9206,328.4494,225.49,326.12" style="stroke:#181818;stroke-width:1;"/></g><!--link AC_H to UC_RD--><g class="link" data-entity-1="AC_H" data-entity-2="UC_RD" data-source-line="20" data-uid="lnk21" id="link_AC_H_UC_RD"><path d="M78.08,128 C119.8,128 184.03,128 234.73,128" fill="none" id="AC_H-to-UC_RD" style="stroke:#181818;stroke-width:1;"/><polygon fill="#181818" points="240.73,128,231.73,124,235.73,128,231.73,132,240.73,128" style="stroke:#181818;stroke-width:1;"/></g><!--SRC=[VP71Ri8m38RlVGghz_804wg45X27YKEgdQSiCQsrA6M9YpHDU_SvG3iAst9p_FctVzlZde5xYDHs38uYMgO-5CPo7w7S4jkkepUC9PW4gyUNxPXIaOu_twh8bIQq7g5SLmtt1wXWdTYyUaeTXHOqEKmbV1OWRqXeJH9MKJfuym7k90S2iy0dsMUHLKzpV4F1WJaQyYACChR3aTsiz9njK1nXrZFPqyWrwXxBEh-o-WRE9Y3Y-o0iX9vfJtPMeVNkfi8mNjob2LB5Lt4U6HQB-k8K7c2vf63zuB2kfxm_0utwFo-Dxm6j_jRFnuIggiVTNSUoetpKATJpE9kynhNw1W00]--></g></svg>