<svg xmlns="http://www.w3.org/2000/svg" xmlns:xlink="http://www.w3.org/1999/xlink" contentStyleType="text/css" data-diagram-type="ACTIVITY" height="1646px" preserveAspectRatio="none" style="width:1258px;height:1646px;background:#FFFFFF;" version="1.1" viewBox="0 0 1258 1646" width="1258px" zoomAndPan="magnify"><defs/><g><ellipse cx="597.5161" cy="20" fill="#222222" rx="10" ry="10" style="stroke:#222222;stroke-width:1;"/><rect fill="#F1F1F1" height="33.9688" rx="12.5" ry="12.5" style="stroke:#181818;stroke-width:0.5;" width="352.6367" x="421.1978" y="50"/><text fill="#000000" font-family="sans-serif" font-size="12" lengthAdjust="spacing" textLength="332.6367" x="431.1978" y="71.1387">Hitchhiker navigates to the option to find available ride</text><rect fill="none" height="404.75" style="stroke:#000000;stroke-width:1.5;" width="1016.5254" x="89.2534" y="93.9688"/><path d="M205.1353,93.9688 L205.1353,103.2656 L195.1353,113.2656 L89.2534,113.2656" fill="none" style="stroke:#000000;stroke-width:1.5;"/><text fill="#000000" font-family="sans-serif" font-size="14" lengthAdjust="spacing" textLength="105.8818" x="92.2534" y="107.9639">Set destination</text><rect fill="#F1F1F1" height="33.9688" rx="12.5" ry="12.5" style="stroke:#181818;stroke-width:0.5;" width="444.1602" x="375.436" y="133.2656"/><text fill="#000000" font-family="sans-serif" font-size="12" lengthAdjust="spacing" textLength="424.1602" x="385.436" y="154.4043">System shows them a map with a search box and hitchhiker's location</text><rect fill="#F1F1F1" height="33.9688" rx="12.5" ry="12.5" style="stroke:#181818;stroke-width:0.5;" width="590.0996" x="302.4663" y="187.2344"/><text fill="#000000" font-family="sans-serif" font-size="12" lengthAdjust="spacing" textLength="570.0996" x="312.4663" y="208.373">Hitchhiker can search for a desired destination to travel to (through search box or pin on map)</text><polygon fill="#F1F1F1" points="542.4785,241.2031,652.5537,241.2031,664.5537,253.2031,652.5537,265.2031,542.4785,265.2031,530.4785,253.2031,542.4785,241.2031" style="stroke:#181818;stroke-width:0.5;"/><text fill="#000000" font-family="sans-serif" font-size="11" lengthAdjust="spacing" textLength="110.0752" x="542.4785" y="257.0112">Destination address</text><rect fill="#F1F1F1" height="33.9688" rx="12.5" ry="12.5" style="stroke:#181818;stroke-width:0.5;" width="356.252" x="99.2534" y="300.8125"/><text fill="#000000" font-family="sans-serif" font-size="12" lengthAdjust="spacing" textLength="336.252" x="109.2534" y="321.9512">System shows shows a prompt to complete the address</text><rect fill="#F1F1F1" height="33.9688" rx="12.5" ry="12.5" style="stroke:#181818;stroke-width:0.5;" width="241.4375" x="156.6606" y="354.7813"/><text fill="#000000" font-family="sans-serif" font-size="12" lengthAdjust="spacing" textLength="221.4375" x="166.6606" y="375.9199">Hitchhiker can complete the address</text><rect fill="#F1F1F1" height="33.9688" rx="12.5" ry="12.5" style="stroke:#181818;stroke-width:0.5;" width="286.6895" x="475.5054" y="300.8125"/><text fill="#000000" font-family="sans-serif" font-size="12" lengthAdjust="spacing" textLength="266.6895" x="485.5054" y="321.9512">Hitchhiker confirms their chosen destination</text><rect fill="#F1F1F1" height="33.9688" rx="12.5" ry="12.5" style="stroke:#181818;stroke-width:0.5;" width="313.584" x="782.1948" y="300.8125"/><text fill="#000000" font-family="sans-serif" font-size="12" lengthAdjust="spacing" textLength="293.584" x="792.1948" y="321.9512">System shows a list of places with similar names</text><rect fill="#F1F1F1" height="33.9688" rx="12.5" ry="12.5" style="stroke:#181818;stroke-width:0.5;" width="283.1563" x="797.4087" y="354.7813"/><text fill="#000000" font-family="sans-serif" font-size="12" lengthAdjust="spacing" textLength="263.1563" x="807.4087" y="375.9199">Hitchhiker can pick destination from the list</text><polygon fill="#F1F1F1" points="597.5161,408.75,597.5161,408.75,609.5161,420.75,597.5161,432.75,597.5161,432.75,585.5161,420.75,597.5161,408.75" style="stroke:#181818;stroke-width:0.5;"/><rect fill="#F1F1F1" height="33.9688" rx="12.5" ry="12.5" style="stroke:#181818;stroke-width:0.5;" width="249.3418" x="472.8452" y="452.75"/><text fill="#000000" font-family="sans-serif" font-size="12" lengthAdjust="spacing" textLength="229.3418" x="482.8452" y="473.8887">System confirms destination selection</text><rect fill="none" height="564.6641" style="stroke:#000000;stroke-width:1.5;" width="1191.0322" x="11" y="596.7188"/><path d="M164.9033,596.7188 L164.9033,606.0156 L154.9033,616.0156 L11,616.0156" fill="none" style="stroke:#000000;stroke-width:1.5;"/><text fill="#000000" font-family="sans-serif" font-size="14" lengthAdjust="spacing" textLength="143.9033" x="14" y="610.7139">Display driver listing</text><rect fill="#F1F1F1" height="33.9688" rx="12.5" ry="12.5" style="stroke:#181818;stroke-width:0.5;" width="489.9746" x="352.5288" y="636.0156"/><text fill="#000000" font-family="sans-serif" font-size="12" lengthAdjust="spacing" textLength="469.9746" x="362.5288" y="657.1543">System shows them a list of nearby and available drivers going the same way</text><polygon fill="#F1F1F1" points="546.2866,733.9844,648.7456,733.9844,660.7456,745.9844,648.7456,757.9844,546.2866,757.9844,534.2866,745.9844,546.2866,733.9844" style="stroke:#181818;stroke-width:0.5;"/><text fill="#000000" font-family="sans-serif" font-size="11" lengthAdjust="spacing" textLength="102.459" x="546.2866" y="749.7925">Hitchhiker's action</text><rect fill="#F1F1F1" height="33.9688" rx="12.5" ry="12.5" style="stroke:#181818;stroke-width:0.5;" width="329.2109" x="73.834" y="793.5938"/><text fill="#000000" font-family="sans-serif" font-size="12" lengthAdjust="spacing" textLength="309.2109" x="83.834" y="814.7324">System show list all possible driver filtering options</text><rect fill="#F1F1F1" height="33.9688" rx="12.5" ry="12.5" style="stroke:#181818;stroke-width:0.5;" width="434.8789" x="21" y="847.5625"/><text fill="#000000" font-family="sans-serif" font-size="12" lengthAdjust="spacing" textLength="414.8789" x="31" y="868.7012">Hitchhiker specifies their preferences using the options and confirms</text><rect fill="#F1F1F1" height="33.9688" rx="12.5" ry="12.5" style="stroke:#181818;stroke-width:0.5;" width="279.8457" x="486.6279" y="793.5938"/><text fill="#000000" font-family="sans-serif" font-size="12" lengthAdjust="spacing" textLength="259.8457" x="496.6279" y="814.7324">System displays a text box and a keyboard</text><rect fill="#F1F1F1" height="33.9688" rx="12.5" ry="12.5" style="stroke:#181818;stroke-width:0.5;" width="301.3438" x="475.8789" y="847.5625"/><text fill="#000000" font-family="sans-serif" font-size="12" lengthAdjust="spacing" textLength="281.3438" x="485.8789" y="868.7012">Hitchhiker enters a driver's name to search for</text><rect fill="#F1F1F1" height="33.9688" rx="12.5" ry="12.5" style="stroke:#181818;stroke-width:0.5;" width="270.8047" x="852.2153" y="793.5938"/><text fill="#000000" font-family="sans-serif" font-size="12" lengthAdjust="spacing" textLength="250.8047" x="862.2153" y="814.7324">Hitchhiker goes through the list of drivers</text><polygon fill="#F1F1F1" points="597.5161,920.0117,597.5161,920.0117,609.5161,932.0117,597.5161,944.0117,597.5161,944.0117,585.5161,932.0117,597.5161,920.0117" style="stroke:#181818;stroke-width:0.5;"/><polygon fill="#F1F1F1" points="597.5161,689.9844,609.5161,701.9844,597.5161,713.9844,585.5161,701.9844,597.5161,689.9844" style="stroke:#181818;stroke-width:0.5;"/><polygon fill="#F1F1F1" points="540.5449,964.0117,654.4873,964.0117,666.4873,976.0117,654.4873,988.0117,540.5449,988.0117,528.5449,976.0117,540.5449,964.0117" style="stroke:#181818;stroke-width:0.5;"/><text fill="#000000" font-family="sans-serif" font-size="11" lengthAdjust="spacing" textLength="260.4819" x="601.5161" y="998.2222">Hitchhiker chooses one of the drivers in the list</text><text fill="#000000" font-family="sans-serif" font-size="11" lengthAdjust="spacing" textLength="113.9424" x="540.5449" y="979.8198">Hitchhiker's decision</text><text fill="#000000" font-family="sans-serif" font-size="11" lengthAdjust="spacing" textLength="201.5664" x="666.4873" y="973.4175">Hitchhiker searches for more drivers</text><rect fill="#F1F1F1" height="33.9688" rx="12.5" ry="12.5" style="stroke:#181818;stroke-width:0.5;" width="332.4453" x="431.2935" y="1071.4141"/><text fill="#000000" font-family="sans-serif" font-size="12" lengthAdjust="spacing" textLength="312.4453" x="441.2935" y="1092.5527">System shows more details about the chosen driver</text><polygon fill="#F1F1F1" points="544.6753,1023.0117,650.3569,1023.0117,662.3569,1035.0117,650.3569,1047.0117,544.6753,1047.0117,532.6753,1035.0117,544.6753,1023.0117" style="stroke:#181818;stroke-width:0.5;"/><text fill="#000000" font-family="sans-serif" font-size="11" lengthAdjust="spacing" textLength="205.9009" x="601.5161" y="1057.2222">Hitchhiker wants to see driver details</text><text fill="#000000" font-family="sans-serif" font-size="11" lengthAdjust="spacing" textLength="105.6816" x="544.6753" y="1038.8198">Show driver details</text><text fill="#000000" font-family="sans-serif" font-size="11" lengthAdjust="spacing" textLength="244.186" x="662.3569" y="1032.4175">Hitchhiker doesn't want to see driver details</text><polygon fill="#F1F1F1" points="597.5161,1125.3828,609.5161,1137.3828,597.5161,1149.3828,585.5161,1137.3828,597.5161,1125.3828" style="stroke:#181818;stroke-width:0.5;"/><polygon fill="#F1F1F1" points="597.5161,562.7188,609.5161,574.7188,597.5161,586.7188,585.5161,574.7188,597.5161,562.7188" style="stroke:#181818;stroke-width:0.5;"/><polygon fill="#F1F1F1" points="540.5449,1181.3828,654.4873,1181.3828,666.4873,1193.3828,654.4873,1205.3828,540.5449,1205.3828,528.5449,1193.3828,540.5449,1181.3828" style="stroke:#181818;stroke-width:0.5;"/><text fill="#000000" font-family="sans-serif" font-size="11" lengthAdjust="spacing" textLength="190.98" x="601.5161" y="1215.5933">Hitchhiker finds the driver suitable</text><text fill="#000000" font-family="sans-serif" font-size="11" lengthAdjust="spacing" textLength="113.9424" x="540.5449" y="1197.1909">Hitchhiker's decision</text><text fill="#000000" font-family="sans-serif" font-size="11" lengthAdjust="spacing" textLength="204.9233" x="666.4873" y="1190.7886">Hitchhiker finds the driver unsuitable</text><rect fill="#F1F1F1" height="33.9688" rx="12.5" ry="12.5" style="stroke:#181818;stroke-width:0.5;" width="257.6387" x="468.6968" y="1237.0933"/><text fill="#000000" font-family="sans-serif" font-size="12" lengthAdjust="spacing" textLength="237.6387" x="478.6968" y="1258.2319">Hitchhiker confirms the driver selection</text><rect fill="#F1F1F1" height="33.9688" rx="12.5" ry="12.5" style="stroke:#181818;stroke-width:0.5;" width="182.3457" x="506.3433" y="1291.062"/><text fill="#000000" font-family="sans-serif" font-size="12" lengthAdjust="spacing" textLength="162.3457" x="516.3433" y="1312.2007">System contacts the driver</text><rect fill="none" height="203.2344" style="stroke:#000000;stroke-width:1.5;" width="901.9258" x="145.4575" y="1335.0308"/><path d="M327.73,1335.0308 L327.73,1344.3276 L317.73,1354.3276 L145.4575,1354.3276" fill="none" style="stroke:#000000;stroke-width:1.5;"/><text fill="#000000" font-family="sans-serif" font-size="14" lengthAdjust="spacing" textLength="172.2725" x="148.4575" y="1349.0259">Ride request notification</text><rect fill="#F1F1F1" height="33.9688" rx="12.5" ry="12.5" style="stroke:#181818;stroke-width:0.5;" width="407.1348" x="393.9487" y="1374.3276"/><text fill="#000000" font-family="sans-serif" font-size="12" lengthAdjust="spacing" textLength="387.1348" x="403.9487" y="1395.4663">System notifies the driver that a hitchhiker wants to use his ride</text><polygon fill="#F1F1F1" points="551.7947,1428.2964,643.2375,1428.2964,655.2375,1440.2964,643.2375,1452.2964,551.7947,1452.2964,539.7947,1440.2964,551.7947,1428.2964" style="stroke:#181818;stroke-width:0.5;"/><text fill="#000000" font-family="sans-serif" font-size="11" lengthAdjust="spacing" textLength="91.4429" x="551.7947" y="1444.1045">Driver's decision</text><text fill="#000000" font-family="sans-serif" font-size="11" lengthAdjust="spacing" textLength="192.8276" x="346.967" y="1437.7021">Driver accepts hitchhiker's request</text><text fill="#000000" font-family="sans-serif" font-size="11" lengthAdjust="spacing" textLength="195.5776" x="655.2375" y="1437.7021">Driver declines hitchhiker's request</text><rect fill="#F1F1F1" height="33.9688" rx="12.5" ry="12.5" style="stroke:#181818;stroke-width:0.5;" width="423.1543" x="165.4575" y="1462.2964"/><text fill="#000000" font-family="sans-serif" font-size="12" lengthAdjust="spacing" textLength="403.1543" x="175.4575" y="1483.4351">System notifies the hitchhiker that their ride request was accepted</text><rect fill="#F1F1F1" height="33.9688" rx="12.5" ry="12.5" style="stroke:#181818;stroke-width:0.5;" width="418.7715" x="608.6118" y="1462.2964"/><text fill="#000000" font-family="sans-serif" font-size="12" lengthAdjust="spacing" textLength="398.7715" x="618.6118" y="1483.4351">System notifies the hitchhiker that their ride request was declined</text><polygon fill="#F1F1F1" points="597.5161,1502.2651,609.5161,1514.2651,597.5161,1526.2651,585.5161,1514.2651,597.5161,1502.2651" style="stroke:#181818;stroke-width:0.5;"/><polygon fill="#F1F1F1" points="597.5161,518.7188,609.5161,530.7188,597.5161,542.7188,585.5161,530.7188,597.5161,518.7188" style="stroke:#181818;stroke-width:0.5;"/><polygon fill="#F1F1F1" points="551.7947,1558.2651,643.2375,1558.2651,655.2375,1570.2651,643.2375,1582.2651,551.7947,1582.2651,539.7947,1570.2651,551.7947,1558.2651" style="stroke:#181818;stroke-width:0.5;"/><text fill="#000000" font-family="sans-serif" font-size="11" lengthAdjust="spacing" textLength="149.1123" x="601.5161" y="1592.4756">Ride request was accepted</text><text fill="#000000" font-family="sans-serif" font-size="11" lengthAdjust="spacing" textLength="91.4429" x="551.7947" y="1574.0732">Driver's decision</text><text fill="#000000" font-family="sans-serif" font-size="11" lengthAdjust="spacing" textLength="145.0947" x="655.2375" y="1567.6709">Ride request was declined</text><ellipse cx="597.5161" cy="1624.9756" fill="none" rx="11" ry="11" style="stroke:#222222;stroke-width:1;"/><ellipse cx="597.5161" cy="1624.9756" fill="#222222" rx="6" ry="6" style="stroke:#222222;stroke-width:1;"/><line style="stroke:#181818;stroke-width:1;" x1="597.5161" x2="597.5161" y1="30" y2="50"/><polygon fill="#181818" points="593.5161,40,597.5161,50,601.5161,40,597.5161,44" style="stroke:#181818;stroke-width:1;"/><line style="stroke:#181818;stroke-width:1;" x1="597.5161" x2="597.5161" y1="83.9688" y2="133.2656"/><polygon fill="#181818" points="593.5161,123.2656,597.5161,133.2656,601.5161,123.2656,597.5161,127.2656" style="stroke:#181818;stroke-width:1;"/><line style="stroke:#181818;stroke-width:1;" x1="597.5161" x2="597.5161" y1="167.2344" y2="187.2344"/><polygon fill="#181818" points="593.5161,177.2344,597.5161,187.2344,601.5161,177.2344,597.5161,181.2344" style="stroke:#181818;stroke-width:1;"/><line style="stroke:#181818;stroke-width:1;" x1="277.3794" x2="277.3794" y1="334.7813" y2="354.7813"/><polygon fill="#181818" points="273.3794,344.7813,277.3794,354.7813,281.3794,344.7813,277.3794,348.7813" style="stroke:#181818;stroke-width:1;"/><line style="stroke:#181818;stroke-width:1;" x1="938.9868" x2="938.9868" y1="334.7813" y2="354.7813"/><polygon fill="#181818" points="934.9868,344.7813,938.9868,354.7813,942.9868,344.7813,938.9868,348.7813" style="stroke:#181818;stroke-width:1;"/><line style="stroke:#181818;stroke-width:1;" x1="530.4785" x2="277.3794" y1="253.2031" y2="253.2031"/><line style="stroke:#181818;stroke-width:1;" x1="277.3794" x2="277.3794" y1="253.2031" y2="300.8125"/><polygon fill="#181818" points="273.3794,290.8125,277.3794,300.8125,281.3794,290.8125,277.3794,294.8125" style="stroke:#181818;stroke-width:1;"/><text fill="#000000" font-family="sans-serif" font-size="11" lengthAdjust="spacing" textLength="73.6914" x="280.876" y="280.8159">is incomplete</text><line style="stroke:#181818;stroke-width:1;" x1="664.5537" x2="938.9868" y1="253.2031" y2="253.2031"/><line style="stroke:#181818;stroke-width:1;" x1="938.9868" x2="938.9868" y1="253.2031" y2="300.8125"/><polygon fill="#181818" points="934.9868,290.8125,938.9868,300.8125,942.9868,290.8125,938.9868,294.8125" style="stroke:#181818;stroke-width:1;"/><text fill="#000000" font-family="sans-serif" font-size="11" lengthAdjust="spacing" textLength="62.2671" x="942.4834" y="280.8159">is unknown</text><line style="stroke:#181818;stroke-width:1;" x1="597.5161" x2="597.5161" y1="265.2031" y2="277.0729"/><line style="stroke:#181818;stroke-width:1;" x1="597.5161" x2="618.8501" y1="277.0729" y2="277.0729"/><line style="stroke:#181818;stroke-width:1;" x1="618.8501" x2="618.8501" y1="277.0729" y2="300.8125"/><polygon fill="#181818" points="614.8501,290.8125,618.8501,300.8125,622.8501,290.8125,618.8501,294.8125" style="stroke:#181818;stroke-width:1;"/><text fill="#000000" font-family="sans-serif" font-size="11" lengthAdjust="spacing" textLength="38.6289" x="601.0127" y="281.8159">is valid</text><line style="stroke:#181818;stroke-width:1;" x1="277.3794" x2="277.3794" y1="388.75" y2="420.75"/><line style="stroke:#181818;stroke-width:1;" x1="277.3794" x2="585.5161" y1="420.75" y2="420.75"/><polygon fill="#181818" points="575.5161,416.75,585.5161,420.75,575.5161,424.75,579.5161,420.75" style="stroke:#181818;stroke-width:1;"/><line style="stroke:#181818;stroke-width:1;" x1="938.9868" x2="938.9868" y1="388.75" y2="420.75"/><line style="stroke:#181818;stroke-width:1;" x1="938.9868" x2="609.5161" y1="420.75" y2="420.75"/><polygon fill="#181818" points="619.5161,416.75,609.5161,420.75,619.5161,424.75,615.5161,420.75" style="stroke:#181818;stroke-width:1;"/><line style="stroke:#181818;stroke-width:1;" x1="618.8501" x2="618.8501" y1="334.7813" y2="393.75"/><line style="stroke:#181818;stroke-width:1;" x1="618.8501" x2="597.5161" y1="393.75" y2="393.75"/><line style="stroke:#181818;stroke-width:1;" x1="597.5161" x2="597.5161" y1="393.75" y2="408.75"/><polygon fill="#181818" points="593.5161,398.75,597.5161,408.75,601.5161,398.75,597.5161,402.75" style="stroke:#181818;stroke-width:1;"/><line style="stroke:#181818;stroke-width:1;" x1="597.5161" x2="597.5161" y1="221.2031" y2="241.2031"/><polygon fill="#181818" points="593.5161,231.2031,597.5161,241.2031,601.5161,231.2031,597.5161,235.2031" style="stroke:#181818;stroke-width:1;"/><line style="stroke:#181818;stroke-width:1;" x1="597.5161" x2="597.5161" y1="432.75" y2="452.75"/><polygon fill="#181818" points="593.5161,442.75,597.5161,452.75,601.5161,442.75,597.5161,446.75" style="stroke:#181818;stroke-width:1;"/><line style="stroke:#181818;stroke-width:1;" x1="597.5161" x2="597.5161" y1="586.7188" y2="636.0156"/><polygon fill="#181818" points="593.5161,626.0156,597.5161,636.0156,601.5161,626.0156,597.5161,630.0156" style="stroke:#181818;stroke-width:1;"/><line style="stroke:#181818;stroke-width:1;" x1="238.4395" x2="238.4395" y1="827.5625" y2="847.5625"/><polygon fill="#181818" points="234.4395,837.5625,238.4395,847.5625,242.4395,837.5625,238.4395,841.5625" style="stroke:#181818;stroke-width:1;"/><line style="stroke:#181818;stroke-width:1;" x1="626.5508" x2="626.5508" y1="827.5625" y2="847.5625"/><polygon fill="#181818" points="622.5508,837.5625,626.5508,847.5625,630.5508,837.5625,626.5508,841.5625" style="stroke:#181818;stroke-width:1;"/><line style="stroke:#181818;stroke-width:1;" x1="534.2866" x2="238.4395" y1="745.9844" y2="745.9844"/><line style="stroke:#181818;stroke-width:1;" x1="238.4395" x2="238.4395" y1="745.9844" y2="793.5938"/><polygon fill="#181818" points="234.4395,783.5938,238.4395,793.5938,242.4395,783.5938,238.4395,787.5938" style="stroke:#181818;stroke-width:1;"/><text fill="#000000" font-family="sans-serif" font-size="11" lengthAdjust="spacing" textLength="195.6743" x="238.4395" y="773.5972">Hitchhiker selects the 'Filter' option</text><line style="stroke:#181818;stroke-width:1;" x1="660.7456" x2="987.6177" y1="745.9844" y2="745.9844"/><line style="stroke:#181818;stroke-width:1;" x1="987.6177" x2="987.6177" y1="745.9844" y2="793.5938"/><polygon fill="#181818" points="983.6177,783.5938,987.6177,793.5938,991.6177,783.5938,987.6177,787.5938" style="stroke:#181818;stroke-width:1;"/><text fill="#000000" font-family="sans-serif" font-size="11" lengthAdjust="spacing" textLength="186.4146" x="987.6177" y="773.5972">Hitchhiker is satisfied with the list</text><line style="stroke:#181818;stroke-width:1;" x1="597.5161" x2="597.5161" y1="757.9844" y2="769.8542"/><line style="stroke:#181818;stroke-width:1;" x1="597.5161" x2="626.5508" y1="769.8542" y2="769.8542"/><line style="stroke:#181818;stroke-width:1;" x1="626.5508" x2="626.5508" y1="769.8542" y2="793.5938"/><polygon fill="#181818" points="622.5508,783.5938,626.5508,793.5938,630.5508,783.5938,626.5508,787.5938" style="stroke:#181818;stroke-width:1;"/><text fill="#000000" font-family="sans-serif" font-size="11" lengthAdjust="spacing" textLength="205.6646" x="597.5161" y="774.5972">Hitchhiker selects the 'Search' option</text><line style="stroke:#181818;stroke-width:1;" x1="238.4395" x2="238.4395" y1="881.5313" y2="932.0117"/><line style="stroke:#181818;stroke-width:1;" x1="238.4395" x2="585.5161" y1="932.0117" y2="932.0117"/><polygon fill="#181818" points="575.5161,928.0117,585.5161,932.0117,575.5161,936.0117,579.5161,932.0117" style="stroke:#181818;stroke-width:1;"/><line style="stroke:#181818;stroke-width:1;" x1="987.6177" x2="987.6177" y1="827.5625" y2="932.0117"/><line style="stroke:#181818;stroke-width:1;" x1="987.6177" x2="609.5161" y1="932.0117" y2="932.0117"/><polygon fill="#181818" points="619.5161,928.0117,609.5161,932.0117,619.5161,936.0117,615.5161,932.0117" style="stroke:#181818;stroke-width:1;"/><line style="stroke:#181818;stroke-width:1;" x1="626.5508" x2="626.5508" y1="881.5313" y2="905.0117"/><line style="stroke:#181818;stroke-width:1;" x1="626.5508" x2="597.5161" y1="905.0117" y2="905.0117"/><line style="stroke:#181818;stroke-width:1;" x1="597.5161" x2="597.5161" y1="905.0117" y2="920.0117"/><polygon fill="#181818" points="593.5161,910.0117,597.5161,920.0117,601.5161,910.0117,597.5161,914.0117" style="stroke:#181818;stroke-width:1;"/><line style="stroke:#181818;stroke-width:1;" x1="597.5161" x2="597.5161" y1="713.9844" y2="733.9844"/><polygon fill="#181818" points="593.5161,723.9844,597.5161,733.9844,601.5161,723.9844,597.5161,727.9844" style="stroke:#181818;stroke-width:1;"/><line style="stroke:#181818;stroke-width:1;" x1="666.4873" x2="1186.0322" y1="976.0117" y2="976.0117"/><polygon fill="#181818" points="1182.0322,877.2578,1186.0322,867.2578,1190.0322,877.2578,1186.0322,873.2578" style="stroke:#181818;stroke-width:1;"/><line style="stroke:#181818;stroke-width:1;" x1="1186.0322" x2="1186.0322" y1="701.9844" y2="976.0117"/><line style="stroke:#181818;stroke-width:1;" x1="1186.0322" x2="609.5161" y1="701.9844" y2="701.9844"/><polygon fill="#181818" points="619.5161,697.9844,609.5161,701.9844,619.5161,705.9844,615.5161,701.9844" style="stroke:#181818;stroke-width:1;"/><line style="stroke:#181818;stroke-width:1;" x1="597.5161" x2="597.5161" y1="944.0117" y2="964.0117"/><polygon fill="#181818" points="593.5161,954.0117,597.5161,964.0117,601.5161,954.0117,597.5161,958.0117" style="stroke:#181818;stroke-width:1;"/><line style="stroke:#181818;stroke-width:1;" x1="597.5161" x2="597.5161" y1="669.9844" y2="689.9844"/><polygon fill="#181818" points="593.5161,679.9844,597.5161,689.9844,601.5161,679.9844,597.5161,683.9844" style="stroke:#181818;stroke-width:1;"/><line style="stroke:#181818;stroke-width:1;" x1="597.5161" x2="597.5161" y1="1047.0117" y2="1071.4141"/><polygon fill="#181818" points="593.5161,1061.4141,597.5161,1071.4141,601.5161,1061.4141,597.5161,1065.4141" style="stroke:#181818;stroke-width:1;"/><line style="stroke:#181818;stroke-width:1;" x1="662.3569" x2="773.7388" y1="1035.0117" y2="1035.0117"/><polygon fill="#181818" points="769.7388,1078.3984,773.7388,1088.3984,777.7388,1078.3984,773.7388,1082.3984" style="stroke:#181818;stroke-width:1;"/><line style="stroke:#181818;stroke-width:1;" x1="773.7388" x2="773.7388" y1="1035.0117" y2="1137.3828"/><line style="stroke:#181818;stroke-width:1;" x1="773.7388" x2="609.5161" y1="1137.3828" y2="1137.3828"/><polygon fill="#181818" points="619.5161,1133.3828,609.5161,1137.3828,619.5161,1141.3828,615.5161,1137.3828" style="stroke:#181818;stroke-width:1;"/><line style="stroke:#181818;stroke-width:1;" x1="597.5161" x2="597.5161" y1="1105.3828" y2="1125.3828"/><polygon fill="#181818" points="593.5161,1115.3828,597.5161,1125.3828,601.5161,1115.3828,597.5161,1119.3828" style="stroke:#181818;stroke-width:1;"/><line style="stroke:#181818;stroke-width:1;" x1="597.5161" x2="597.5161" y1="988.0117" y2="1023.0117"/><polygon fill="#181818" points="593.5161,1013.0117,597.5161,1023.0117,601.5161,1013.0117,597.5161,1017.0117" style="stroke:#181818;stroke-width:1;"/><line style="stroke:#181818;stroke-width:1;" x1="666.4873" x2="1214.0322" y1="1193.3828" y2="1193.3828"/><polygon fill="#181818" points="1210.0322,900.0117,1214.0322,890.0117,1218.0322,900.0117,1214.0322,896.0117" style="stroke:#181818;stroke-width:1;"/><line style="stroke:#181818;stroke-width:1;" x1="1214.0322" x2="1214.0322" y1="574.7188" y2="1193.3828"/><line style="stroke:#181818;stroke-width:1;" x1="1214.0322" x2="609.5161" y1="574.7188" y2="574.7188"/><polygon fill="#181818" points="619.5161,570.7188,609.5161,574.7188,619.5161,578.7188,615.5161,574.7188" style="stroke:#181818;stroke-width:1;"/><line style="stroke:#181818;stroke-width:1;" x1="597.5161" x2="597.5161" y1="1149.3828" y2="1181.3828"/><polygon fill="#181818" points="593.5161,1171.3828,597.5161,1181.3828,601.5161,1171.3828,597.5161,1175.3828" style="stroke:#181818;stroke-width:1;"/><line style="stroke:#181818;stroke-width:1;" x1="597.5161" x2="597.5161" y1="1205.3828" y2="1237.0933"/><polygon fill="#181818" points="593.5161,1227.0933,597.5161,1237.0933,601.5161,1227.0933,597.5161,1231.0933" style="stroke:#181818;stroke-width:1;"/><line style="stroke:#181818;stroke-width:1;" x1="597.5161" x2="597.5161" y1="1271.062" y2="1291.062"/><polygon fill="#181818" points="593.5161,1281.062,597.5161,1291.062,601.5161,1281.062,597.5161,1285.062" style="stroke:#181818;stroke-width:1;"/><line style="stroke:#181818;stroke-width:1;" x1="597.5161" x2="597.5161" y1="1325.0308" y2="1374.3276"/><polygon fill="#181818" points="593.5161,1364.3276,597.5161,1374.3276,601.5161,1364.3276,597.5161,1368.3276" style="stroke:#181818;stroke-width:1;"/><line style="stroke:#181818;stroke-width:1;" x1="539.7947" x2="377.0347" y1="1440.2964" y2="1440.2964"/><line style="stroke:#181818;stroke-width:1;" x1="377.0347" x2="377.0347" y1="1440.2964" y2="1462.2964"/><polygon fill="#181818" points="373.0347,1452.2964,377.0347,1462.2964,381.0347,1452.2964,377.0347,1456.2964" style="stroke:#181818;stroke-width:1;"/><line style="stroke:#181818;stroke-width:1;" x1="655.2375" x2="817.9976" y1="1440.2964" y2="1440.2964"/><line style="stroke:#181818;stroke-width:1;" x1="817.9976" x2="817.9976" y1="1440.2964" y2="1462.2964"/><polygon fill="#181818" points="813.9976,1452.2964,817.9976,1462.2964,821.9976,1452.2964,817.9976,1456.2964" style="stroke:#181818;stroke-width:1;"/><line style="stroke:#181818;stroke-width:1;" x1="377.0347" x2="377.0347" y1="1496.2651" y2="1514.2651"/><line style="stroke:#181818;stroke-width:1;" x1="377.0347" x2="585.5161" y1="1514.2651" y2="1514.2651"/><polygon fill="#181818" points="575.5161,1510.2651,585.5161,1514.2651,575.5161,1518.2651,579.5161,1514.2651" style="stroke:#181818;stroke-width:1;"/><line style="stroke:#181818;stroke-width:1;" x1="817.9976" x2="817.9976" y1="1496.2651" y2="1514.2651"/><line style="stroke:#181818;stroke-width:1;" x1="817.9976" x2="609.5161" y1="1514.2651" y2="1514.2651"/><polygon fill="#181818" points="619.5161,1510.2651,609.5161,1514.2651,619.5161,1518.2651,615.5161,1514.2651" style="stroke:#181818;stroke-width:1;"/><line style="stroke:#181818;stroke-width:1;" x1="597.5161" x2="597.5161" y1="1408.2964" y2="1428.2964"/><polygon fill="#181818" points="593.5161,1418.2964,597.5161,1428.2964,601.5161,1418.2964,597.5161,1422.2964" style="stroke:#181818;stroke-width:1;"/><line style="stroke:#181818;stroke-width:1;" x1="597.5161" x2="597.5161" y1="542.7188" y2="562.7188"/><polygon fill="#181818" points="593.5161,552.7188,597.5161,562.7188,601.5161,552.7188,597.5161,556.7188" style="stroke:#181818;stroke-width:1;"/><line style="stroke:#181818;stroke-width:1;" x1="655.2375" x2="1232.0322" y1="1570.2651" y2="1570.2651"/><polygon fill="#181818" points="1228.0322,1016.0781,1232.0322,1006.0781,1236.0322,1016.0781,1232.0322,1012.0781" style="stroke:#181818;stroke-width:1;"/><line style="stroke:#181818;stroke-width:1;" x1="1232.0322" x2="1232.0322" y1="530.7188" y2="1570.2651"/><line style="stroke:#181818;stroke-width:1;" x1="1232.0322" x2="609.5161" y1="530.7188" y2="530.7188"/><polygon fill="#181818" points="619.5161,526.7188,609.5161,530.7188,619.5161,534.7188,615.5161,530.7188" style="stroke:#181818;stroke-width:1;"/><line style="stroke:#181818;stroke-width:1;" x1="597.5161" x2="597.5161" y1="1526.2651" y2="1558.2651"/><polygon fill="#181818" points="593.5161,1548.2651,597.5161,1558.2651,601.5161,1548.2651,597.5161,1552.2651" style="stroke:#181818;stroke-width:1;"/><line style="stroke:#181818;stroke-width:1;" x1="597.5161" x2="597.5161" y1="486.7188" y2="518.7188"/><polygon fill="#181818" points="593.5161,508.7188,597.5161,518.7188,601.5161,508.7188,597.5161,512.7188" style="stroke:#181818;stroke-width:1;"/><line style="stroke:#181818;stroke-width:1;" x1="597.5161" x2="597.5161" y1="1582.2651" y2="1613.9756"/><polygon fill="#181818" points="593.5161,1603.9756,597.5161,1613.9756,601.5161,1603.9756,597.5161,1607.9756" style="stroke:#181818;stroke-width:1;"/><!--SRC=[jLRRZk8m37tdAwnv6VeBoojQpVFm0IYqBhKeIJSETD1g_dsTf6bJRa8ZRHzGIntd-FZuDEoKTOjV7-JAfg43Mj3gJ7lbaC4PS0s2wHmPxPzgqXMeiw9MxLe4InMk5fqae13nja475R8ZhVmVRm3mTo4_8F7O0gFRPg_3cr-R2piy0ZUcPx_T4HGSLGSzkKPk6PKj6zYPBr2oUJFYV6TeJHaIhMAch8PIwRIoDbRIoBPaiShHXVAiEWimkLkwnfhJliatb9KTQP1G0LJ4NRZtky1odILILMMHkGW1_YeL8oo164YNvjYrw71wEoyv_Yheh0Gw3oMj2EGFkLVJwgiodqTFICwgfQgudyReckmnq4_os1X6dLDrBzz97xJfzQEo5BJ43amDNQjA4LFe9zDHjECrTiGdDNLK7cQjgeMSKA1F6jUXhc8lPZ8QIybNCxPOnZg-5nOxL2uiocxzbGbvJIomBr1PEWiclolf_QJdT4LTLp5w6wEtG_GiyAxC4qDQ9BUx17rFmnMJCUoDv0griv06lRgiPfclYaXNqkb7FZ0gi53S14-TpHeHMGjWuVqtjKvI35vmFyDrdR4-rRRG6MQQYX8VyTbyNJ4Vhnudp15rM59Dc8JQMQpHelRoEd6YQKWPw4noMFsWv4qmWjTB7bJWfU_mousMfU20bvrHjdgjIjJEzrqDP4dR_BHuOvWSxSLwP4nPHe25ioeEO9gXuYKeUnEuZiQObdh53kAyXJ6Vohb6eM-enIj9Lj9IzlnwiFDU-69bVs_WHsF7YIX06pSB5SCIns8nQlJWFD0qFMBVzqkc6fORBz91aXKwcJn9Bk5wbhrNsd6a7w-Z5y_qpmFi60jgPquke4a66tBDESJsgeMLj42_ku3Y5H3I0Ah7VxuNFwNVV-everByda_al3NTDk0cU0nTFFlMZD6JFrzvkLDf77EoCgF-b2E8rFVd97RlOOazb5TdZycd_NbbEmHly-2RRrXyYJEKhX4ELNO2cPHnagOrGc0y4EKIMwSPdeYE0eiln95Bx2J9x5mpG2pkVa5cq38m0LxqHPkJqYiUTi7CWABErab8PKiQ_pUAOPiSnIZMz5rE8ht3cnVevwESWoO_7rLUBDYPxXy0]--></g></svg>