<svg xmlns="http://www.w3.org/2000/svg" xmlns:xlink="http://www.w3.org/1999/xlink" contentStyleType="text/css" data-diagram-type="STATE" height="468px" preserveAspectRatio="none" style="width:999px;height:468px;background:#FFFFFF;" version="1.1" viewBox="0 0 999 468" width="999px" zoomAndPan="magnify"><defs/><g><rect fill="#F1F1F1" height="40" rx="12.5" ry="12.5" style="stroke:#181818;stroke-width:0.5;" width="578.0869" x="178.54" y="87"/><text fill="#000000" font-family="sans-serif" font-size="14" lengthAdjust="spacing" textLength="568.0869" x="183.54" y="111.8467">Displaying map with the fastest path to drivers destination from the current spot</text><rect fill="#F1F1F1" height="40" rx="12.5" ry="12.5" style="stroke:#181818;stroke-width:0.5;" width="755.9307" x="177.62" y="422"/><text fill="#000000" font-family="sans-serif" font-size="14" lengthAdjust="spacing" textLength="745.9307" x="182.62" y="446.8467">Displaying map with the fastest path to drivers destination, while also showing the hitchhikers destination</text><rect fill="#F1F1F1" height="40" rx="12.5" ry="12.5" style="stroke:#181818;stroke-width:0.5;" width="465.1641" x="7" y="204"/><text fill="#000000" font-family="sans-serif" font-size="14" lengthAdjust="spacing" textLength="455.1641" x="12" y="228.8467">Show notification about nearby hitchhikers with their destination</text><rect fill="#F1F1F1" height="40" rx="12.5" ry="12.5" style="stroke:#181818;stroke-width:0.5;" width="203.4844" x="352.84" y="321"/><text fill="#000000" font-family="sans-serif" font-size="14" lengthAdjust="spacing" textLength="193.4844" x="357.84" y="345.8467">Confirm selected hitchhiker</text><ellipse cx="467.58" cy="16" fill="#222222" rx="10" ry="10" style="stroke:#222222;stroke-width:1;"/><ellipse cx="518.58" cy="224" fill="none" rx="11" ry="11" style="stroke:#222222;stroke-width:1;"/><ellipse cx="518.58" cy="224" fill="#222222" rx="6" ry="6" style="stroke:#222222;stroke-width:1;"/><!--link *start* to Map--><g class="link" data-entity-1="*start*" data-entity-2="Map" data-source-line="7" data-uid="lnk3" id="link_*start*_Map"><path d="M467.58,26.19 C467.58,40.4 467.58,62.02 467.58,80.74" fill="none" id="*start*-to-Map" style="stroke:#181818;stroke-width:1;"/><polygon fill="#181818" points="467.58,86.74,471.58,77.74,467.58,81.74,463.58,77.74,467.58,86.74" style="stroke:#181818;stroke-width:1;"/></g><!--link Map to Map--><g class="link" data-entity-1="Map" data-entity-2="Map" data-source-line="8" data-uid="lnk4" id="link_Map_Map"><path d="M756.95,99.95 C778.44,101.53 791.63,103.88 791.63,107 C791.63,110.12 784.4238,112.0301 762.9338,113.6101" fill="none" id="Map-to-Map" style="stroke:#181818;stroke-width:1;"/><polygon fill="#181818" points="756.95,114.05,766.2191,117.3793,761.9365,113.6834,765.6325,109.4008,756.95,114.05" style="stroke:#181818;stroke-width:1;"/><text fill="#000000" font-family="sans-serif" font-size="13" lengthAdjust="spacing" textLength="188.7285" x="797.63" y="111.5669">driver chooses different path</text></g><!--link Map to Notification--><g class="link" data-entity-1="Map" data-entity-2="Notification" data-source-line="9" data-uid="lnk5" id="link_Map_Notification"><path d="M429.16,127.38 C387.16,148.57 325.5871,179.6179 283.5171,200.8379" fill="none" id="Map-to-Notification" style="stroke:#181818;stroke-width:1;"/><polygon fill="#181818" points="278.16,203.54,287.9971,203.0582,282.6243,201.2882,284.3943,195.9154,278.16,203.54" style="stroke:#181818;stroke-width:1;"/></g><!--link Notification to Confirm--><g class="link" data-entity-1="Notification" data-entity-2="Confirm" data-source-line="10" data-uid="lnk6" id="link_Notification_Confirm"><path d="M275.57,244.25 C315.26,265.48 373.4489,296.6107 413.1889,317.8607" fill="none" id="Notification-to-Confirm" style="stroke:#181818;stroke-width:1;"/><polygon fill="#181818" points="418.48,320.69,412.4296,312.9187,414.0708,318.3323,408.6572,319.9735,418.48,320.69" style="stroke:#181818;stroke-width:1;"/><text fill="#000000" font-family="sans-serif" font-size="13" lengthAdjust="spacing" textLength="161.7764" x="361.58" y="287.0669">driver chose a hitchhiker</text></g><!--link Confirm to MapH--><g class="link" data-entity-1="Confirm" data-entity-2="MapH" data-source-line="11" data-uid="lnk7" id="link_Confirm_MapH"><path d="M474.06,361.09 C491.83,378.51 513.6744,399.9308 531.5344,417.4308" fill="none" id="Confirm-to-MapH" style="stroke:#181818;stroke-width:1;"/><polygon fill="#181818" points="535.82,421.63,532.1911,412.4741,532.2487,418.1306,526.5921,418.1882,535.82,421.63" style="stroke:#181818;stroke-width:1;"/></g><!--link MapH to Map--><g class="link" data-entity-1="MapH" data-entity-2="Map" data-source-line="12" data-uid="lnk8" id="link_MapH_Map"><path d="M568.51,421.65 C599.57,372.49 671.56,240.76 611.58,157 C602.28,144.01 594.7137,137.0687 580.3637,130.0087" fill="none" id="MapH-to-Map" style="stroke:#181818;stroke-width:1;"/><polygon fill="#181818" points="574.98,127.36,581.2898,134.9222,579.4664,129.5673,584.8214,127.7439,574.98,127.36" style="stroke:#181818;stroke-width:1;"/><text fill="#000000" font-family="sans-serif" font-size="13" lengthAdjust="spacing" textLength="120.231" x="630.58" y="287.0669">drop off hitchhiker</text></g><!--link Map to *end*--><g class="link" data-entity-1="Map" data-entity-2="*end*" data-source-line="13" data-uid="lnk10" id="link_Map_*end*"><path d="M462.29,127.33 C459.59,140.96 458.08,159.32 464.58,174 C469.4,184.88 491.4773,202.587 505.4173,213.147" fill="none" id="Map-to-*end*" style="stroke:#181818;stroke-width:1;"/><polygon fill="#181818" points="510.2,216.77,505.4414,208.147,506.2145,213.7508,500.6107,214.5239,510.2,216.77" style="stroke:#181818;stroke-width:1;"/><text fill="#000000" font-family="sans-serif" font-size="13" lengthAdjust="spacing" textLength="141.3369" x="465.58" y="170.0669">driver finishes driving</text></g><!--SRC=[hP6nJiGm38RtFeLr8-9UW87b6Bh0meXkoAKEiMZZAFPHzUqlASqfXPKXKXpRt__RyJGWu1HrWG759efA73fHemY75v8uceN29qmcmapgGJs2Cw8e2j6K1uOXqJScAGYbO0e2NE9fBRRNb30eI6GzW15uDV4V11vXzZGYc54OnFDS8ANNarhlwUjNVPNkg_Pxxe70IexiZsLpuQj2G9CkomvJVL7wGtnh09Lyuk0eJI0uebKS6jRQi-MxxkFX3CVZyxgHVEeTdhQ1mNfcmJm7EOVh5ij6xhKxyJPOizL6IvEyiCPELsisvRwW-vqFZi3EjJrLlRY_inq54b-ivZX_nGq0]--></g></svg>