<svg xmlns="http://www.w3.org/2000/svg" xmlns:xlink="http://www.w3.org/1999/xlink" contentStyleType="text/css" data-diagram-type="DESCRIPTION" height="508px" preserveAspectRatio="none" style="width:423px;height:508px;background:#FFFFFF;" version="1.1" viewBox="0 0 423 508" width="423px" zoomAndPan="magnify">
<style>
    :target ellipse {
      fill: #00c3ff !important ;
    }
    </style>
<defs/><g><!--cluster E-Stop - Establishing Rides--><g class="cluster" data-entity="E-Stop - Establishing Rides" data-source-line="4" data-uid="ent0004" id="cluster_E-Stop - Establishing Rides"><rect fill="none" height="495" rx="2.5" ry="2.5" style="stroke:#181818;stroke-width:1;" width="228.57" x="188.72" y="7"/><text fill="#000000" font-family="sans-serif" font-size="14" font-weight="bold" lengthAdjust="spacing" textLength="212.3926" x="196.8087" y="21.9951">E-Stop - Establishing Rides</text></g><!--entity UC_DDL--><g class="entity" data-entity="UC_DDL" data-source-line="5" data-uid="ent0005" id="entity_UC_DDL"><ellipse cx="302.996" cy="209.9972" fill="#F1F1F1" rx="85.686" ry="19.5372" style="stroke:#181818;stroke-width:0.5;"/><text fill="#000000" font-family="sans-serif" font-size="14" lengthAdjust="spacing" textLength="143.9033" x="231.0443" y="214.6456">Display driver listing</text></g><!--entity UC_FAR--><g class="entity" data-entity="UC_FAR" data-source-line="6" data-uid="ent0006" id="entity_UC_FAR"><ellipse cx="303.0045" cy="299.0029" fill="#F1F1F1" rx="79.2645" ry="18.2529" style="stroke:#181818;stroke-width:0.5;"/><text fill="#000000" font-family="sans-serif" font-size="14" lengthAdjust="spacing" textLength="128.9395" x="238.5348" y="303.6513">Find available ride</text></g><!--entity UC_SD--><g class="entity" data-entity="UC_SD" data-source-line="7" data-uid="ent0007" id="entity_UC_SD"><ellipse cx="303.0032" cy="58.0006" fill="#F1F1F1" rx="69.8032" ry="16.3606" style="stroke:#181818;stroke-width:0.5;"/><text fill="#000000" font-family="sans-serif" font-size="14" lengthAdjust="spacing" textLength="105.8818" x="250.0623" y="62.6491">Set destination</text></g><!--entity UC_SRD--><g class="entity" data-entity="UC_SRD" data-source-line="8" data-uid="ent0008" id="entity_UC_SRD"><ellipse cx="302.9958" cy="467.0012" fill="#F1F1F1" rx="82.9058" ry="18.9812" style="stroke:#181818;stroke-width:0.5;"/><text fill="#000000" font-family="sans-serif" font-size="14" lengthAdjust="spacing" textLength="137.4775" x="234.2571" y="471.6496">Set ride destination</text></g><!--entity UC_RRN--><g class="entity" data-entity="UC_RRN" data-source-line="9" data-uid="ent0009" id="entity_UC_RRN"><ellipse cx="302.9958" cy="390.9972" fill="#F1F1F1" rx="98.2858" ry="22.0572" style="stroke:#181818;stroke-width:0.5;"/><text fill="#000000" font-family="sans-serif" font-size="14" lengthAdjust="spacing" textLength="172.2725" x="216.8595" y="395.6456">Ride request notification</text></g><!--entity UC_RD--><g class="entity" data-entity="UC_RD" data-source-line="10" data-uid="ent0010" id="entity_UC_RD"><ellipse cx="302.997" cy="123.9994" fill="#F1F1F1" rx="61.997" ry="14.7994" style="stroke:#181818;stroke-width:0.5;"/><text fill="#000000" font-family="sans-serif" font-size="14" lengthAdjust="spacing" textLength="85.3398" x="260.3271" y="128.6478">Rate drivers</text></g><!--entity AC_H--><g class="entity" data-entity="AC_H" data-source-line="2" data-uid="ent0002" id="entity_AC_H"><ellipse cx="41.8579" cy="137.35" fill="#F1F1F1" rx="8" ry="8" style="stroke:#181818;stroke-width:0.5;"/><path d="M41.8579,145.35 L41.8579,172.35 M28.8579,153.35 L54.8579,153.35 M41.8579,172.35 L28.8579,187.35 M41.8579,172.35 L54.8579,187.35" fill="none" style="stroke:#181818;stroke-width:0.5;"/><text fill="#000000" font-family="sans-serif" font-size="14" lengthAdjust="spacing" textLength="71.7158" x="6" y="201.8451">Hitchhiker</text></g><!--entity AC_D--><g class="entity" data-entity="AC_D" data-source-line="3" data-uid="ent0003" id="entity_AC_D"><ellipse cx="41.86" cy="398.35" fill="#F1F1F1" rx="8" ry="8" style="stroke:#181818;stroke-width:0.5;"/><path d="M41.86,406.35 L41.86,433.35 M28.86,414.35 L54.86,414.35 M41.86,433.35 L28.86,448.35 M41.86,433.35 L54.86,448.35" fill="none" style="stroke:#181818;stroke-width:0.5;"/><text fill="#000000" font-family="sans-serif" font-size="14" lengthAdjust="spacing" textLength="43.0801" x="20.32" y="462.8451">Driver</text></g><!--reverse link UC_DDL to UC_FAR--><g class="link" data-entity-1="UC_DDL" data-entity-2="UC_FAR" data-source-line="12" data-uid="lnk12" id="link_UC_DDL_UC_FAR"><path d="M303,235.96 C303,251.12 303,265.79 303,280.56" fill="none" id="UC_DDL-backto-UC_FAR" style="stroke:#181818;stroke-width:1;stroke-dasharray:7.0,7.0;"/><polygon fill="#181818" points="303,229.96,299,238.96,303,234.96,307,238.96,303,229.96" style="stroke:#181818;stroke-width:1;"/><text fill="#000000" font-family="sans-serif" font-size="13" lengthAdjust="spacing" textLength="63.0068" x="260" y="259.7069">&#171;include&#187;</text></g><!--reverse link UC_SD to UC_FAR--><g class="link" data-entity-1="UC_SD" data-entity-2="UC_FAR" data-source-line="13" data-uid="lnk14" id="link_UC_SD_UC_FAR"><path d="M235.8144,67.515 C215.0244,72.485 198.44,79.1 180.72,92 C150.8,113.78 145.49,126.05 134.85,161.5 C116.25,223.44 198.04,264.1 254.06,284.19" fill="none" id="UC_SD-backto-UC_FAR" style="stroke:#181818;stroke-width:1;stroke-dasharray:7.0,7.0;"/><polygon fill="#181818" points="241.65,66.12,231.9666,64.3222,236.787,67.2825,233.8267,72.1029,241.65,66.12" style="stroke:#181818;stroke-width:1;"/><text fill="#000000" font-family="sans-serif" font-size="13" lengthAdjust="spacing" textLength="63.0068" x="108.72" y="174.5669">&#171;include&#187;</text></g><!--reverse link UC_RRN to UC_FAR--><g class="link" data-entity-1="UC_RRN" data-entity-2="UC_FAR" data-source-line="14" data-uid="lnk16" id="link_UC_RRN_UC_FAR"><path d="M303,362.73 C303,347.09 303,332.42 303,317.66" fill="none" id="UC_RRN-backto-UC_FAR" style="stroke:#181818;stroke-width:1;stroke-dasharray:7.0,7.0;"/><polygon fill="#181818" points="303,368.73,307,359.73,303,363.73,299,359.73,303,368.73" style="stroke:#181818;stroke-width:1;"/><text fill="#000000" font-family="sans-serif" font-size="13" lengthAdjust="spacing" textLength="63.0068" x="260" y="347.6669">&#171;include&#187;</text></g><!--reverse link UC_DDL to UC_RD--><g class="link" data-entity-1="UC_DDL" data-entity-2="UC_RD" data-source-line="15" data-uid="lnk18" id="link_UC_DDL_UC_RD"><path d="M303,184.05 C303,168.57 303,153.43 303,139.28" fill="none" id="UC_DDL-backto-UC_RD" style="stroke:#181818;stroke-width:1;stroke-dasharray:7.0,7.0;"/><polygon fill="#181818" points="303,190.05,307,181.05,303,185.05,299,181.05,303,190.05" style="stroke:#181818;stroke-width:1;"/><text fill="#000000" font-family="sans-serif" font-size="13" lengthAdjust="spacing" textLength="63.0068" x="260" y="169.1969">&#171;include&#187;</text></g><!--link AC_H to UC_DDL--><g class="link" data-entity-1="AC_H" data-entity-2="UC_DDL" data-source-line="16" data-uid="lnk19" id="link_AC_H_UC_DDL"><path d="M77.98,177.73 C87.56,180.39 97.98,183.03 107.72,185 C145.55,192.64 182.0689,197.7377 217.6289,201.8077" fill="none" id="AC_H-to-UC_DDL" style="stroke:#181818;stroke-width:1;"/><polygon fill="#181818" points="223.59,202.49,215.1032,197.4925,218.6224,201.9214,214.1935,205.4406,223.59,202.49" style="stroke:#181818;stroke-width:1;"/></g><!--link AC_H to UC_FAR--><g class="link" data-entity-1="AC_H" data-entity-2="UC_FAR" data-source-line="17" data-uid="lnk20" id="link_AC_H_UC_FAR"><path d="M78.2,189.1 C105.67,205.88 144.98,229.05 180.72,247 C207.13,260.26 232.1653,271.0916 256.0153,280.8316" fill="none" id="AC_H-to-UC_FAR" style="stroke:#181818;stroke-width:1;"/><polygon fill="#181818" points="261.57,283.1,254.7503,275.9942,256.9411,281.2096,251.7257,283.4004,261.57,283.1" style="stroke:#181818;stroke-width:1;"/></g><!--link AC_H to UC_SD--><g class="link" data-entity-1="AC_H" data-entity-2="UC_SD" data-source-line="18" data-uid="lnk21" id="link_AC_H_UC_SD"><path d="M77.99,140.57 C87.39,134.08 97.72,127.44 107.72,122 C153.57,97.05 205.0153,81.1296 245.4553,70.8396" fill="none" id="AC_H-to-UC_SD" style="stroke:#181818;stroke-width:1;"/><polygon fill="#181818" points="251.27,69.36,241.5616,67.7029,246.4244,70.593,243.5343,75.4558,251.27,69.36" style="stroke:#181818;stroke-width:1;"/></g><!--link AC_D to UC_SRD--><g class="link" data-entity-1="AC_D" data-entity-2="UC_SRD" data-source-line="19" data-uid="lnk22" id="link_AC_D_UC_SRD"><path d="M63.63,431.13 C99.84,436.58 170.1268,447.1573 226.6868,455.6673" fill="none" id="AC_D-to-UC_SRD" style="stroke:#181818;stroke-width:1;"/><polygon fill="#181818" points="232.62,456.56,224.3153,451.2655,227.6757,455.8161,223.125,459.1764,232.62,456.56" style="stroke:#181818;stroke-width:1;"/></g><!--link AC_D to UC_RRN--><g class="link" data-entity-1="AC_D" data-entity-2="UC_RRN" data-source-line="20" data-uid="lnk23" id="link_AC_D_UC_RRN"><path d="M63.63,425.03 C97.02,420.27 158.4802,411.4879 213.1202,403.6879" fill="none" id="AC_D-to-UC_RRN" style="stroke:#181818;stroke-width:1;"/><polygon fill="#181818" points="219.06,402.84,209.585,400.152,214.1102,403.5466,210.7156,408.0717,219.06,402.84" style="stroke:#181818;stroke-width:1;"/></g><!--link AC_H to UC_RD--><g class="link" data-entity-1="AC_H" data-entity-2="UC_RD" data-source-line="21" data-uid="lnk24" id="link_AC_H_UC_RD"><path d="M78.12,158.96 C87.7,156.89 98.08,154.76 107.72,153 C154.85,144.4 202.8261,137.3287 241.8861,131.9487" fill="none" id="AC_H-to-UC_RD" style="stroke:#181818;stroke-width:1;"/><polygon fill="#181818" points="247.83,131.13,238.3684,128.3954,242.8768,131.8122,239.46,136.3206,247.83,131.13" style="stroke:#181818;stroke-width:1;"/></g><!--SRC=[VP71Ri8m38RlVGghz_804wg45X27QOTKEwCiCQsrA6M9YpIXlViSHXaj4xav_lpRl-rnpy0zH6ex1aSHBLCV2cEvZr1kYMtNqGV64ao2rVDkEwPKfEFVjofofGcjHoZNLSFz0IfO9pRldb97eGLD3bC9fmBa3GcjIS8gIWTlli2TvK1W5lWi-oQowcMARoWuC4T3NeHHndOuifkLdh8DYYFCUYPx6hb6tMDPvrzMp-1i0Y9-3i92w9dsP2SLMh_EAWpZnLswGghuBdv7XeLVr1Uhy0JB9GNh1uTrFGSQzJWldUy1hHuqoEU4gXgpapXlypQMhUKpNqCzZRFjMroh7m00]--></g></svg>