<svg xmlns="http://www.w3.org/2000/svg" xmlns:xlink="http://www.w3.org/1999/xlink" contentStyleType="text/css" data-diagram-type="ACTIVITY" height="542px" preserveAspectRatio="none" style="width:668px;height:542px;background:#FFFFFF;" version="1.1" viewBox="0 0 668 542" width="668px" zoomAndPan="magnify"><defs/><g><ellipse cx="340.0763" cy="20" fill="#222222" rx="10" ry="10" style="stroke:#222222;stroke-width:1;"/><polygon fill="#F1F1F1" points="275.5618,50,404.5909,50,416.5909,62,404.5909,74,275.5618,74,263.5618,62,275.5618,50" style="stroke:#181818;stroke-width:0.5;"/><text fill="#000000" font-family="sans-serif" font-size="11" lengthAdjust="spacing" textLength="129.0291" x="275.5618" y="66.268">Driver location available?</text><text fill="#000000" font-family="sans-serif" font-size="11" lengthAdjust="spacing" textLength="17.0829" x="246.4789" y="58.777">yes</text><text fill="#000000" font-family="sans-serif" font-size="11" lengthAdjust="spacing" textLength="13.4529" x="416.5909" y="58.777">no</text><rect fill="#F1F1F1" height="36.3441" rx="12.5" ry="12.5" style="stroke:#181818;stroke-width:0.5;" width="190.7252" x="48.7761" y="141"/><text fill="#000000" font-family="sans-serif" font-size="12" lengthAdjust="spacing" textLength="170.7252" x="58.7761" y="163.8281">System tracks driver's location</text><polygon fill="#F1F1F1" points="144.1387,84,156.1387,96,144.1387,108,132.1387,96,144.1387,84" style="stroke:#181818;stroke-width:0.5;"/><polygon fill="#F1F1F1" points="32,197.3441,256.2774,197.3441,268.2774,209.3441,256.2774,221.3441,32,221.3441,20,209.3441,32,197.3441" style="stroke:#181818;stroke-width:0.5;"/><text fill="#000000" font-family="sans-serif" font-size="11" lengthAdjust="spacing" textLength="224.2774" x="32" y="213.6121">Driver is not close enough to meeting point</text><rect fill="#F1F1F1" height="36.3441" rx="12.5" ry="12.5" style="stroke:#181818;stroke-width:0.5;" width="236.8416" x="25.7179" y="241.3441"/><text fill="#000000" font-family="sans-serif" font-size="12" lengthAdjust="spacing" textLength="216.8416" x="35.7179" y="264.1722">App notifies hitchhiker of driver arrival</text><rect fill="#F1F1F1" height="36.3441" rx="12.5" ry="12.5" style="stroke:#181818;stroke-width:0.5;" width="157.377" x="65.4502" y="347.1792"/><text fill="#000000" font-family="sans-serif" font-size="12" lengthAdjust="spacing" textLength="137.377" x="75.4502" y="370.0073">App resends notification</text><rect fill="#F1F1F1" height="36.3441" rx="12.5" ry="12.5" style="stroke:#181818;stroke-width:0.5;" width="213.2134" x="37.532" y="453.0142"/><text fill="#000000" font-family="sans-serif" font-size="12" lengthAdjust="spacing" textLength="193.2134" x="47.532" y="475.8423">App informs driver of no response</text><ellipse cx="144.1387" cy="520.3583" fill="none" rx="11" ry="11" style="stroke:#222222;stroke-width:1;"/><ellipse cx="144.1387" cy="520.3583" fill="#222222" rx="6" ry="6" style="stroke:#222222;stroke-width:1;"/><polygon fill="#F1F1F1" points="76.9402,403.5233,211.3372,403.5233,223.3372,415.5233,211.3372,427.5233,76.9402,427.5233,64.9402,415.5233,76.9402,403.5233" style="stroke:#181818;stroke-width:0.5;"/><text fill="#000000" font-family="sans-serif" font-size="11" lengthAdjust="spacing" textLength="13.4529" x="148.1387" y="439.2822">no</text><text fill="#000000" font-family="sans-serif" font-size="11" lengthAdjust="spacing" textLength="134.397" x="76.9402" y="419.7913">Hitchhiker acknowledges?</text><text fill="#000000" font-family="sans-serif" font-size="11" lengthAdjust="spacing" textLength="17.0829" x="223.3372" y="412.3003">yes</text><ellipse cx="262.4201" cy="415.5233" fill="none" rx="11" ry="11" style="stroke:#222222;stroke-width:1;"/><ellipse cx="262.4201" cy="415.5233" fill="#222222" rx="6" ry="6" style="stroke:#222222;stroke-width:1;"/><polygon fill="#F1F1F1" points="76.9402,297.6882,211.3372,297.6882,223.3372,309.6882,211.3372,321.6882,76.9402,321.6882,64.9402,309.6882,76.9402,297.6882" style="stroke:#181818;stroke-width:0.5;"/><text fill="#000000" font-family="sans-serif" font-size="11" lengthAdjust="spacing" textLength="13.4529" x="148.1387" y="333.4471">no</text><text fill="#000000" font-family="sans-serif" font-size="11" lengthAdjust="spacing" textLength="134.397" x="76.9402" y="313.9562">Hitchhiker acknowledges?</text><text fill="#000000" font-family="sans-serif" font-size="11" lengthAdjust="spacing" textLength="17.0829" x="223.3372" y="306.4653">yes</text><ellipse cx="262.4201" cy="309.6882" fill="none" rx="11" ry="11" style="stroke:#222222;stroke-width:1;"/><ellipse cx="262.4201" cy="309.6882" fill="#222222" rx="6" ry="6" style="stroke:#222222;stroke-width:1;"/><rect fill="#F1F1F1" height="36.3441" rx="12.5" ry="12.5" style="stroke:#181818;stroke-width:0.5;" width="242.2056" x="414.9112" y="84"/><text fill="#000000" font-family="sans-serif" font-size="12" lengthAdjust="spacing" textLength="222.2056" x="424.9112" y="106.8281">App warns hitchhiker to watch the road</text><ellipse cx="536.014" cy="151.3441" fill="none" rx="11" ry="11" style="stroke:#222222;stroke-width:1;"/><ellipse cx="536.014" cy="151.3441" fill="#222222" rx="6" ry="6" style="stroke:#222222;stroke-width:1;"/><line style="stroke:#181818;stroke-width:1;" x1="144.1387" x2="144.1387" y1="108" y2="141"/><polygon fill="#181818" points="140.1387,131,144.1387,141,148.1387,131,144.1387,135" style="stroke:#181818;stroke-width:1;"/><line style="stroke:#181818;stroke-width:1;" x1="268.2774" x2="280.2774" y1="209.3441" y2="209.3441"/><polygon fill="#181818" points="276.2774,169.1721,280.2774,159.1721,284.2774,169.1721,280.2774,165.1721" style="stroke:#181818;stroke-width:1;"/><line style="stroke:#181818;stroke-width:1;" x1="280.2774" x2="280.2774" y1="96" y2="209.3441"/><line style="stroke:#181818;stroke-width:1;" x1="280.2774" x2="156.1387" y1="96" y2="96"/><polygon fill="#181818" points="166.1387,92,156.1387,96,166.1387,100,162.1387,96" style="stroke:#181818;stroke-width:1;"/><line style="stroke:#181818;stroke-width:1;" x1="144.1387" x2="144.1387" y1="177.3441" y2="197.3441"/><polygon fill="#181818" points="140.1387,187.3441,144.1387,197.3441,148.1387,187.3441,144.1387,191.3441" style="stroke:#181818;stroke-width:1;"/><line style="stroke:#181818;stroke-width:1;" x1="144.1387" x2="144.1387" y1="221.3441" y2="241.3441"/><polygon fill="#181818" points="140.1387,231.3441,144.1387,241.3441,148.1387,231.3441,144.1387,235.3441" style="stroke:#181818;stroke-width:1;"/><line style="stroke:#181818;stroke-width:1;" x1="144.1387" x2="144.1387" y1="489.3583" y2="509.3583"/><polygon fill="#181818" points="140.1387,499.3583,144.1387,509.3583,148.1387,499.3583,144.1387,503.3583" style="stroke:#181818;stroke-width:1;"/><line style="stroke:#181818;stroke-width:1;" x1="144.1387" x2="144.1387" y1="427.5233" y2="453.0142"/><polygon fill="#181818" points="140.1387,443.0142,144.1387,453.0142,148.1387,443.0142,144.1387,447.0142" style="stroke:#181818;stroke-width:1;"/><line style="stroke:#181818;stroke-width:1;" x1="223.3372" x2="251.4201" y1="415.5233" y2="415.5233"/><polygon fill="#181818" points="241.4201,411.5233,251.4201,415.5233,241.4201,419.5233,245.4201,415.5233" style="stroke:#181818;stroke-width:1;"/><line style="stroke:#181818;stroke-width:1;" x1="144.1387" x2="144.1387" y1="383.5233" y2="403.5233"/><polygon fill="#181818" points="140.1387,393.5233,144.1387,403.5233,148.1387,393.5233,144.1387,397.5233" style="stroke:#181818;stroke-width:1;"/><line style="stroke:#181818;stroke-width:1;" x1="144.1387" x2="144.1387" y1="321.6882" y2="347.1792"/><polygon fill="#181818" points="140.1387,337.1792,144.1387,347.1792,148.1387,337.1792,144.1387,341.1792" style="stroke:#181818;stroke-width:1;"/><line style="stroke:#181818;stroke-width:1;" x1="223.3372" x2="251.4201" y1="309.6882" y2="309.6882"/><polygon fill="#181818" points="241.4201,305.6882,251.4201,309.6882,241.4201,313.6882,245.4201,309.6882" style="stroke:#181818;stroke-width:1;"/><line style="stroke:#181818;stroke-width:1;" x1="144.1387" x2="144.1387" y1="277.6882" y2="297.6882"/><polygon fill="#181818" points="140.1387,287.6882,144.1387,297.6882,148.1387,287.6882,144.1387,291.6882" style="stroke:#181818;stroke-width:1;"/><line style="stroke:#181818;stroke-width:1;" x1="536.014" x2="536.014" y1="120.3441" y2="140.3441"/><polygon fill="#181818" points="532.014,130.3441,536.014,140.3441,540.014,130.3441,536.014,134.3441" style="stroke:#181818;stroke-width:1;"/><line style="stroke:#181818;stroke-width:1;" x1="263.5618" x2="144.1387" y1="62" y2="62"/><line style="stroke:#181818;stroke-width:1;" x1="144.1387" x2="144.1387" y1="62" y2="84"/><polygon fill="#181818" points="140.1387,74,144.1387,84,148.1387,74,144.1387,78" style="stroke:#181818;stroke-width:1;"/><line style="stroke:#181818;stroke-width:1;" x1="416.5909" x2="536.014" y1="62" y2="62"/><line style="stroke:#181818;stroke-width:1;" x1="536.014" x2="536.014" y1="62" y2="84"/><polygon fill="#181818" points="532.014,74,536.014,84,540.014,74,536.014,78" style="stroke:#181818;stroke-width:1;"/><line style="stroke:#181818;stroke-width:1;" x1="340.0763" x2="340.0763" y1="30" y2="50"/><polygon fill="#181818" points="336.0763,40,340.0763,50,344.0763,40,340.0763,44" style="stroke:#181818;stroke-width:1;"/><!--SRC=[bP0nRiCm34Ltdu9RdIl4Gr6WG_UUWBLfYuXC2Y8R8xUFv3XEcqwTI15V__7J7BCt3O_GlcS-KuQeFJgh09wH8tv5UZs01n9eBsI71Y1J8lJI01m_B-OqWsViJmR3Ql5Ykqctos4976cdi86eGn_L24ZqUmhW2ZEHiqoGbCKhw_YMKbNoo6GGsFiG-5GCTDneWBbKZ5rJv3N7nqDKbX9T8WqJsNCA07DDfQ5OLcX5RyCLcCb81jl0ZoZ_1Eo8PyY6OHarp_UprKYYbPrKZBe_5ZBmsDphJyFLRC4ilovKphbWUTMj82iENRDwtVvV0G00]--></g></svg>