<svg xmlns="http://www.w3.org/2000/svg" xmlns:xlink="http://www.w3.org/1999/xlink" contentStyleType="text/css" data-diagram-type="ACTIVITY" height="841px" preserveAspectRatio="none" style="width:801px;height:841px;background:#FFFFFF;" version="1.1" viewBox="0 0 801 841" width="801px" zoomAndPan="magnify"><defs/><g><ellipse cx="400.6748" cy="20" fill="#222222" rx="10" ry="10" style="stroke:#222222;stroke-width:1;"/><rect fill="#F1F1F1" height="33.9688" rx="12.5" ry="12.5" style="stroke:#181818;stroke-width:0.5;" width="360.9102" x="220.2197" y="50"/><text fill="#000000" font-family="sans-serif" font-size="12" lengthAdjust="spacing" textLength="340.9102" x="230.2197" y="71.1387">System shows the fastest path to the drivers destination</text><polygon fill="#F1F1F1" points="383.7505,103.9688,417.5991,103.9688,429.5991,115.9688,417.5991,127.9688,383.7505,127.9688,371.7505,115.9688,383.7505,103.9688" style="stroke:#181818;stroke-width:0.5;"/><text fill="#000000" font-family="sans-serif" font-size="11" lengthAdjust="spacing" textLength="33.8486" x="383.7505" y="119.7769">Driver</text><rect fill="#F1F1F1" height="33.9688" rx="12.5" ry="12.5" style="stroke:#181818;stroke-width:0.5;" width="433.748" x="11" y="163.5781"/><text fill="#000000" font-family="sans-serif" font-size="12" lengthAdjust="spacing" textLength="413.748" x="21" y="184.7168">Driver drives their car towards the destination using the fastest path</text><rect fill="#F1F1F1" height="33.9688" rx="12.5" ry="12.5" style="stroke:#181818;stroke-width:0.5;" width="325.6016" x="464.748" y="163.5781"/><text fill="#000000" font-family="sans-serif" font-size="12" lengthAdjust="spacing" textLength="305.6016" x="474.748" y="184.7168">System shows a fastest path from the current spot</text><rect fill="#F1F1F1" height="33.9688" rx="12.5" ry="12.5" style="stroke:#181818;stroke-width:0.5;" width="232.8828" x="511.1074" y="217.5469"/><text fill="#000000" font-family="sans-serif" font-size="12" lengthAdjust="spacing" textLength="212.8828" x="521.1074" y="238.6855">Driver drives using the fastest path</text><polygon fill="#F1F1F1" points="400.6748,261.5156,400.6748,261.5156,412.6748,273.5156,400.6748,285.5156,400.6748,285.5156,388.6748,273.5156,400.6748,261.5156" style="stroke:#181818;stroke-width:0.5;"/><rect fill="#F1F1F1" height="33.9688" rx="12.5" ry="12.5" style="stroke:#181818;stroke-width:0.5;" width="556.4551" x="122.4473" y="349.5156"/><text fill="#000000" font-family="sans-serif" font-size="12" lengthAdjust="spacing" textLength="536.4551" x="132.4473" y="370.6543">System shows notifications of awaiting hitchikers with similiar destinations as the drivers</text><polygon fill="#F1F1F1" points="383.7505,403.4844,417.5991,403.4844,429.5991,415.4844,417.5991,427.4844,383.7505,427.4844,371.7505,415.4844,383.7505,403.4844" style="stroke:#181818;stroke-width:0.5;"/><text fill="#000000" font-family="sans-serif" font-size="11" lengthAdjust="spacing" textLength="33.8486" x="383.7505" y="419.2925">Driver</text><rect fill="#F1F1F1" height="33.9688" rx="12.5" ry="12.5" style="stroke:#181818;stroke-width:0.5;" width="258.8926" x="164.7556" y="463.0938"/><text fill="#000000" font-family="sans-serif" font-size="12" lengthAdjust="spacing" textLength="238.8926" x="174.7556" y="484.2324">Driver picks up a hitchhiker on the road</text><rect fill="#F1F1F1" height="33.9688" rx="12.5" ry="12.5" style="stroke:#181818;stroke-width:0.5;" width="370.7246" x="108.8396" y="517.0625"/><text fill="#000000" font-family="sans-serif" font-size="12" lengthAdjust="spacing" textLength="350.7246" x="118.8396" y="538.2012">Driver drives to the hitchhikers destination (or closer to it)</text><rect fill="#F1F1F1" height="33.9688" rx="12.5" ry="12.5" style="stroke:#181818;stroke-width:0.5;" width="201.4824" x="193.4607" y="571.0313"/><text fill="#000000" font-family="sans-serif" font-size="12" lengthAdjust="spacing" textLength="181.4824" x="203.4607" y="592.1699">Driver drops off the hitchhiker</text><polygon fill="#F1F1F1" points="400.6748,615,400.6748,615,412.6748,627,400.6748,639,400.6748,639,388.6748,627,400.6748,615" style="stroke:#181818;stroke-width:0.5;"/><polygon fill="#F1F1F1" points="400.6748,305.5156,412.6748,317.5156,400.6748,329.5156,388.6748,317.5156,400.6748,305.5156" style="stroke:#181818;stroke-width:0.5;"/><polygon fill="#F1F1F1" points="400.6748,659,400.6748,659,412.6748,671,400.6748,683,400.6748,683,388.6748,671,400.6748,659" style="stroke:#181818;stroke-width:0.5;"/><rect fill="#F1F1F1" height="33.9688" rx="12.5" ry="12.5" style="stroke:#181818;stroke-width:0.5;" width="244.625" x="278.3623" y="703"/><text fill="#000000" font-family="sans-serif" font-size="12" lengthAdjust="spacing" textLength="224.625" x="288.3623" y="724.1387">Driver drives to their own destination</text><rect fill="#F1F1F1" height="33.9688" rx="12.5" ry="12.5" style="stroke:#181818;stroke-width:0.5;" width="224.3105" x="288.5195" y="756.9688"/><text fill="#000000" font-family="sans-serif" font-size="12" lengthAdjust="spacing" textLength="204.3105" x="298.5195" y="778.1074">Driver finishes in their destination</text><ellipse cx="400.6748" cy="820.9375" fill="none" rx="10" ry="10" style="stroke:#222222;stroke-width:1.5;"/><line style="stroke:#222222;stroke-width:2.5;" x1="394.4876" x2="406.862" y1="814.7503" y2="827.1247"/><line style="stroke:#222222;stroke-width:2.5;" x1="406.862" x2="394.4876" y1="814.7503" y2="827.1247"/><line style="stroke:#181818;stroke-width:1;" x1="400.6748" x2="400.6748" y1="30" y2="50"/><polygon fill="#181818" points="396.6748,40,400.6748,50,404.6748,40,400.6748,44" style="stroke:#181818;stroke-width:1;"/><line style="stroke:#181818;stroke-width:1;" x1="627.5488" x2="627.5488" y1="197.5469" y2="217.5469"/><polygon fill="#181818" points="623.5488,207.5469,627.5488,217.5469,631.5488,207.5469,627.5488,211.5469" style="stroke:#181818;stroke-width:1;"/><line style="stroke:#181818;stroke-width:1;" x1="371.7505" x2="227.874" y1="115.9688" y2="115.9688"/><line style="stroke:#181818;stroke-width:1;" x1="227.874" x2="227.874" y1="115.9688" y2="163.5781"/><polygon fill="#181818" points="223.874,153.5781,227.874,163.5781,231.874,153.5781,227.874,157.5781" style="stroke:#181818;stroke-width:1;"/><text fill="#000000" font-family="sans-serif" font-size="11" lengthAdjust="spacing" textLength="90.6802" x="227.874" y="143.5815">Follows the path</text><line style="stroke:#181818;stroke-width:1;" x1="429.5991" x2="627.5488" y1="115.9688" y2="115.9688"/><line style="stroke:#181818;stroke-width:1;" x1="627.5488" x2="627.5488" y1="115.9688" y2="163.5781"/><polygon fill="#181818" points="623.5488,153.5781,627.5488,163.5781,631.5488,153.5781,627.5488,157.5781" style="stroke:#181818;stroke-width:1;"/><text fill="#000000" font-family="sans-serif" font-size="11" lengthAdjust="spacing" textLength="135.7061" x="627.5488" y="143.5815">Chooses a different path</text><line style="stroke:#181818;stroke-width:1;" x1="227.874" x2="227.874" y1="197.5469" y2="273.5156"/><line style="stroke:#181818;stroke-width:1;" x1="227.874" x2="388.6748" y1="273.5156" y2="273.5156"/><polygon fill="#181818" points="378.6748,269.5156,388.6748,273.5156,378.6748,277.5156,382.6748,273.5156" style="stroke:#181818;stroke-width:1;"/><line style="stroke:#181818;stroke-width:1;" x1="627.5488" x2="627.5488" y1="251.5156" y2="273.5156"/><line style="stroke:#181818;stroke-width:1;" x1="627.5488" x2="412.6748" y1="273.5156" y2="273.5156"/><polygon fill="#181818" points="422.6748,269.5156,412.6748,273.5156,422.6748,277.5156,418.6748,273.5156" style="stroke:#181818;stroke-width:1;"/><line style="stroke:#181818;stroke-width:1;" x1="400.6748" x2="400.6748" y1="83.9688" y2="103.9688"/><polygon fill="#181818" points="396.6748,93.9688,400.6748,103.9688,404.6748,93.9688,400.6748,97.9688" style="stroke:#181818;stroke-width:1;"/><line style="stroke:#181818;stroke-width:1;" x1="294.2019" x2="294.2019" y1="497.0625" y2="517.0625"/><polygon fill="#181818" points="290.2019,507.0625,294.2019,517.0625,298.2019,507.0625,294.2019,511.0625" style="stroke:#181818;stroke-width:1;"/><line style="stroke:#181818;stroke-width:1;" x1="294.2019" x2="294.2019" y1="551.0313" y2="571.0313"/><polygon fill="#181818" points="290.2019,561.0313,294.2019,571.0313,298.2019,561.0313,294.2019,565.0313" style="stroke:#181818;stroke-width:1;"/><line style="stroke:#181818;stroke-width:1;" x1="371.7505" x2="294.2019" y1="415.4844" y2="415.4844"/><line style="stroke:#181818;stroke-width:1;" x1="294.2019" x2="294.2019" y1="415.4844" y2="463.0938"/><polygon fill="#181818" points="290.2019,453.0938,294.2019,463.0938,298.2019,453.0938,294.2019,457.0938" style="stroke:#181818;stroke-width:1;"/><text fill="#000000" font-family="sans-serif" font-size="11" lengthAdjust="spacing" textLength="171.4346" x="294.2019" y="443.0972">chooses to pick up a hitchhiker</text><line style="stroke:#181818;stroke-width:1;" x1="429.5991" x2="499.5642" y1="415.4844" y2="415.4844"/><line style="stroke:#181818;stroke-width:1;" x1="499.5642" x2="499.5642" y1="415.4844" y2="627"/><line style="stroke:#181818;stroke-width:1;" x1="499.5642" x2="412.6748" y1="627" y2="627"/><polygon fill="#181818" points="422.6748,623,412.6748,627,422.6748,631,418.6748,627" style="stroke:#181818;stroke-width:1;"/><text fill="#000000" font-family="sans-serif" font-size="11" lengthAdjust="spacing" textLength="192.9458" x="503.5642" y="419.2925">chooses not to pick up a hitchhiker</text><line style="stroke:#181818;stroke-width:1;" x1="294.2019" x2="294.2019" y1="605" y2="627"/><line style="stroke:#181818;stroke-width:1;" x1="294.2019" x2="388.6748" y1="627" y2="627"/><polygon fill="#181818" points="378.6748,623,388.6748,627,378.6748,631,382.6748,627" style="stroke:#181818;stroke-width:1;"/><line style="stroke:#181818;stroke-width:1;" x1="400.6748" x2="400.6748" y1="383.4844" y2="403.4844"/><polygon fill="#181818" points="396.6748,393.4844,400.6748,403.4844,404.6748,393.4844,400.6748,397.4844" style="stroke:#181818;stroke-width:1;"/><line style="stroke:#181818;stroke-width:1;" x1="400.6748" x2="400.6748" y1="329.5156" y2="349.5156"/><polygon fill="#181818" points="396.6748,339.5156,400.6748,349.5156,404.6748,339.5156,400.6748,343.5156" style="stroke:#181818;stroke-width:1;"/><line style="stroke:#181818;stroke-width:1;" x1="412.6748" x2="704.51" y1="671" y2="671"/><polygon fill="#181818" points="700.51,546.7578,704.51,536.7578,708.51,546.7578,704.51,542.7578" style="stroke:#181818;stroke-width:1;"/><line style="stroke:#181818;stroke-width:1;" x1="704.51" x2="704.51" y1="317.5156" y2="671"/><line style="stroke:#181818;stroke-width:1;" x1="704.51" x2="412.6748" y1="317.5156" y2="317.5156"/><polygon fill="#181818" points="422.6748,313.5156,412.6748,317.5156,422.6748,321.5156,418.6748,317.5156" style="stroke:#181818;stroke-width:1;"/><line style="stroke:#181818;stroke-width:1;" x1="400.6748" x2="400.6748" y1="639" y2="659"/><polygon fill="#181818" points="396.6748,649,400.6748,659,404.6748,649,400.6748,653" style="stroke:#181818;stroke-width:1;"/><line style="stroke:#181818;stroke-width:1;" x1="400.6748" x2="400.6748" y1="285.5156" y2="305.5156"/><polygon fill="#181818" points="396.6748,295.5156,400.6748,305.5156,404.6748,295.5156,400.6748,299.5156" style="stroke:#181818;stroke-width:1;"/><line style="stroke:#181818;stroke-width:1;" x1="400.6748" x2="400.6748" y1="683" y2="703"/><polygon fill="#181818" points="396.6748,693,400.6748,703,404.6748,693,400.6748,697" style="stroke:#181818;stroke-width:1;"/><line style="stroke:#181818;stroke-width:1;" x1="400.6748" x2="400.6748" y1="736.9688" y2="756.9688"/><polygon fill="#181818" points="396.6748,746.9688,400.6748,756.9688,404.6748,746.9688,400.6748,750.9688" style="stroke:#181818;stroke-width:1;"/><line style="stroke:#181818;stroke-width:1;" x1="400.6748" x2="400.6748" y1="790.9375" y2="810.9375"/><polygon fill="#181818" points="396.6748,800.9375,400.6748,810.9375,404.6748,800.9375,400.6748,804.9375" style="stroke:#181818;stroke-width:1;"/><!--SRC=[VL9BSeCm3Drp2Yt95SAodLwW9_20NMi25cE9Udhxo3QP025bYPxUps8nKPhhzn-BdO0z9GRn5fpH7omm6_4WLFuD4NzjP1XqWC48KkWQJYYzRp_BxDA0VhrXstxHE3x8CaaTNIkkKfKXHiL7bKWc3XM-uOU5CVoyEEgUEX-UY9NAm83EsMY3RFLsmSm-beiq5Uf-YMMFPvBkpESx5pOCDNyJxMpDiSX0WWxxaeI179XaK3ALpqjuostglWV62KVK7ZRPrIzlUw_EtlNThpteMytOts2PDMwHAJhx-ZE2Zn3GkhDS93ESjh2UmNDZTmhGaZxbg2RoQmBAvKX2Sox17KYwrmpQs_yvZhr3yZXQQ4uDwuLH2lkhVG0T1cIlK0mhT0TJdJi0]--></g></svg>