<?xml version="1.0" encoding="us-ascii" standalone="no"?><svg xmlns="http://www.w3.org/2000/svg" xmlns:xlink="http://www.w3.org/1999/xlink" contentStyleType="text/css" height="519px" preserveAspectRatio="none" style="width:943px;height:519px;background:#FFFFFF;" version="1.1" viewBox="0 0 943 519" width="943px" zoomAndPan="magnify"><defs/><g><ellipse cx="471.5" cy="20" fill="#222222" rx="10" ry="10" style="stroke:#222222;stroke-width:1.0;"/><rect fill="#F1F1F1" height="35.0938" rx="12.5" ry="12.5" style="stroke:#181818;stroke-width:0.5;" width="372" x="285.5" y="50"/><text fill="#000000" font-family="sans-serif" font-size="12" lengthAdjust="spacing" textLength="352" x="295.5" y="72.457">System shows a map with a search box and hitchhiker's location</text><rect fill="#F1F1F1" height="35.0938" rx="12.5" ry="12.5" style="stroke:#181818;stroke-width:0.5;" width="256" x="343.5" y="105.0938"/><text fill="#000000" font-family="sans-serif" font-size="12" lengthAdjust="spacing" textLength="236" x="353.5" y="127.5508">Hitchhiker chooses `Set destination` option</text><rect fill="#F1F1F1" height="35.0938" rx="12.5" ry="12.5" style="stroke:#181818;stroke-width:0.5;" width="415" x="264" y="160.1875"/><text fill="#000000" font-family="sans-serif" font-size="12" lengthAdjust="spacing" textLength="395" x="274" y="182.6445">Hitchhiker can search for destination (through search box or pin on map)</text><polygon fill="#F1F1F1" points="423.5,215.2813,519.5,215.2813,531.5,227.2813,519.5,239.2813,423.5,239.2813,411.5,227.2813,423.5,215.2813" style="stroke:#181818;stroke-width:0.5;"/><text fill="#000000" font-family="sans-serif" font-size="11" lengthAdjust="spacing" textLength="96" x="423.5" y="231.7822">Destination address</text><rect fill="#F1F1F1" height="35.0938" rx="12.5" ry="12.5" style="stroke:#181818;stroke-width:0.5;" width="329" x="11" y="276.9531"/><text fill="#000000" font-family="sans-serif" font-size="12" lengthAdjust="spacing" textLength="309" x="21" y="299.4102">System shows shows a prompt to complete the address</text><rect fill="#F1F1F1" height="35.0938" rx="12.5" ry="12.5" style="stroke:#181818;stroke-width:0.5;" width="221" x="65" y="332.0469"/><text fill="#000000" font-family="sans-serif" font-size="12" lengthAdjust="spacing" textLength="201" x="75" y="354.5039">Hitchhiker can complete the address</text><rect fill="#F1F1F1" height="35.0938" rx="12.5" ry="12.5" style="stroke:#181818;stroke-width:0.5;" width="261" x="360" y="276.9531"/><text fill="#000000" font-family="sans-serif" font-size="12" lengthAdjust="spacing" textLength="241" x="370" y="299.4102">Hitchhiker confirms their chosen destination</text><rect fill="#F1F1F1" height="35.0938" rx="12.5" ry="12.5" style="stroke:#181818;stroke-width:0.5;" width="291" x="641" y="276.9531"/><text fill="#000000" font-family="sans-serif" font-size="12" lengthAdjust="spacing" textLength="271" x="651" y="299.4102">System shows a list of places with similar names</text><rect fill="#F1F1F1" height="35.0938" rx="12.5" ry="12.5" style="stroke:#181818;stroke-width:0.5;" width="254" x="659.5" y="332.0469"/><text fill="#000000" font-family="sans-serif" font-size="12" lengthAdjust="spacing" textLength="234" x="669.5" y="354.5039">Hitchhiker can pick destination from the list</text><polygon fill="#F1F1F1" points="471.5,387.1406,471.5,387.1406,483.5,399.1406,471.5,411.1406,471.5,411.1406,459.5,399.1406,471.5,387.1406" style="stroke:#181818;stroke-width:0.5;"/><rect fill="#F1F1F1" height="35.0938" rx="12.5" ry="12.5" style="stroke:#181818;stroke-width:0.5;" width="171" x="386" y="431.1406"/><text fill="#000000" font-family="sans-serif" font-size="12" lengthAdjust="spacing" textLength="151" x="396" y="453.5977">System confirms this action</text><ellipse cx="471.5" cy="497.2344" fill="none" rx="11" ry="11" style="stroke:#222222;stroke-width:1.0;"/><ellipse cx="471.5" cy="497.2344" fill="#222222" rx="6" ry="6" style="stroke:#222222;stroke-width:1.0;"/><line style="stroke:#181818;stroke-width:1.0;" x1="471.5" x2="471.5" y1="30" y2="50"/><polygon fill="#181818" points="467.5,40,471.5,50,475.5,40,471.5,44" style="stroke:#181818;stroke-width:1.0;"/><line style="stroke:#181818;stroke-width:1.0;" x1="471.5" x2="471.5" y1="85.0938" y2="105.0938"/><polygon fill="#181818" points="467.5,95.0938,471.5,105.0938,475.5,95.0938,471.5,99.0938" style="stroke:#181818;stroke-width:1.0;"/><line style="stroke:#181818;stroke-width:1.0;" x1="471.5" x2="471.5" y1="140.1875" y2="160.1875"/><polygon fill="#181818" points="467.5,150.1875,471.5,160.1875,475.5,150.1875,471.5,154.1875" style="stroke:#181818;stroke-width:1.0;"/><line style="stroke:#181818;stroke-width:1.0;" x1="175.5" x2="175.5" y1="312.0469" y2="332.0469"/><polygon fill="#181818" points="171.5,322.0469,175.5,332.0469,179.5,322.0469,175.5,326.0469" style="stroke:#181818;stroke-width:1.0;"/><line style="stroke:#181818;stroke-width:1.0;" x1="786.5" x2="786.5" y1="312.0469" y2="332.0469"/><polygon fill="#181818" points="782.5,322.0469,786.5,332.0469,790.5,322.0469,786.5,326.0469" style="stroke:#181818;stroke-width:1.0;"/><line style="stroke:#181818;stroke-width:1.0;" x1="411.5" x2="175.5" y1="227.2813" y2="227.2813"/><line style="stroke:#181818;stroke-width:1.0;" x1="175.5" x2="175.5" y1="227.2813" y2="276.9531"/><polygon fill="#181818" points="171.5,266.9531,175.5,276.9531,179.5,266.9531,175.5,270.9531" style="stroke:#181818;stroke-width:1.0;"/><text fill="#000000" font-family="sans-serif" font-size="11" lengthAdjust="spacing" textLength="62" x="178.5" y="256.6182">is incomplete</text><line style="stroke:#181818;stroke-width:1.0;" x1="531.5" x2="786.5" y1="227.2813" y2="227.2813"/><line style="stroke:#181818;stroke-width:1.0;" x1="786.5" x2="786.5" y1="227.2813" y2="276.9531"/><polygon fill="#181818" points="782.5,266.9531,786.5,276.9531,790.5,266.9531,786.5,270.9531" style="stroke:#181818;stroke-width:1.0;"/><text fill="#000000" font-family="sans-serif" font-size="11" lengthAdjust="spacing" textLength="56" x="789.5" y="256.6182">is unknown</text><line style="stroke:#181818;stroke-width:1.0;" x1="471.5" x2="471.5" y1="239.2813" y2="251.8385"/><line style="stroke:#181818;stroke-width:1.0;" x1="471.5" x2="490.5" y1="251.8385" y2="251.8385"/><line style="stroke:#181818;stroke-width:1.0;" x1="490.5" x2="490.5" y1="251.8385" y2="276.9531"/><polygon fill="#181818" points="486.5,266.9531,490.5,276.9531,494.5,266.9531,490.5,270.9531" style="stroke:#181818;stroke-width:1.0;"/><text fill="#000000" font-family="sans-serif" font-size="11" lengthAdjust="spacing" textLength="33" x="474.5" y="257.6182">is valid</text><line style="stroke:#181818;stroke-width:1.0;" x1="175.5" x2="175.5" y1="367.1406" y2="399.1406"/><line style="stroke:#181818;stroke-width:1.0;" x1="175.5" x2="459.5" y1="399.1406" y2="399.1406"/><polygon fill="#181818" points="449.5,395.1406,459.5,399.1406,449.5,403.1406,453.5,399.1406" style="stroke:#181818;stroke-width:1.0;"/><line style="stroke:#181818;stroke-width:1.0;" x1="786.5" x2="786.5" y1="367.1406" y2="399.1406"/><line style="stroke:#181818;stroke-width:1.0;" x1="786.5" x2="483.5" y1="399.1406" y2="399.1406"/><polygon fill="#181818" points="493.5,395.1406,483.5,399.1406,493.5,403.1406,489.5,399.1406" style="stroke:#181818;stroke-width:1.0;"/><line style="stroke:#181818;stroke-width:1.0;" x1="490.5" x2="490.5" y1="312.0469" y2="372.1406"/><line style="stroke:#181818;stroke-width:1.0;" x1="490.5" x2="471.5" y1="372.1406" y2="372.1406"/><line style="stroke:#181818;stroke-width:1.0;" x1="471.5" x2="471.5" y1="372.1406" y2="387.1406"/><polygon fill="#181818" points="467.5,377.1406,471.5,387.1406,475.5,377.1406,471.5,381.1406" style="stroke:#181818;stroke-width:1.0;"/><line style="stroke:#181818;stroke-width:1.0;" x1="471.5" x2="471.5" y1="195.2813" y2="215.2813"/><polygon fill="#181818" points="467.5,205.2813,471.5,215.2813,475.5,205.2813,471.5,209.2813" style="stroke:#181818;stroke-width:1.0;"/><line style="stroke:#181818;stroke-width:1.0;" x1="471.5" x2="471.5" y1="411.1406" y2="431.1406"/><polygon fill="#181818" points="467.5,421.1406,471.5,431.1406,475.5,421.1406,471.5,425.1406" style="stroke:#181818;stroke-width:1.0;"/><line style="stroke:#181818;stroke-width:1.0;" x1="471.5" x2="471.5" y1="466.2344" y2="486.2344"/><polygon fill="#181818" points="467.5,476.2344,471.5,486.2344,475.5,476.2344,471.5,480.2344" style="stroke:#181818;stroke-width:1.0;"/><!--SRC=[TL8nSiCm3Dlz2cnDlX2l7Rhd0s5bkkB55dKYMxU_hsAVKoTDDEb4W0H0cLFnvd3yCUSH5dKo44RAcCHZlHfJ2H7l-WrA7Q9uY57EN5uCWmPoqTGsXxVhEq9KDJQSZkpes5pIZ3f1ymCqfNL6hsMBnyvZqS-FkDLG8LaIQhLgtBUDJPTMsBrkUDHrXSts3Ue9P8mTn20fw9W7TbugjwPNwxbKaCCLAneUUUtPBimx_S-HVzE_Q91k_v-kgPSoseKgStR6QPl2VP_FT4uwfKSM28EOGtlaWKBTmBn2ar46AaWqyXFzMSBv9lc-XZ2RkJHi6qxTalFresnaLqqK5gNccdy1]--></g></svg>