<svg xmlns="http://www.w3.org/2000/svg" xmlns:xlink="http://www.w3.org/1999/xlink" contentStyleType="text/css" data-diagram-type="CLASS" height="393px" preserveAspectRatio="none" style="width:1111px;height:393px;background:#FFFFFF;" version="1.1" viewBox="0 0 1111 393" width="1111px" zoomAndPan="magnify"><defs/><g><!--class User--><g class="entity" data-entity="User" data-source-line="2" data-uid="ent0002" id="entity_User"><rect fill="#F1F1F1" height="86.1358" rx="2.5" ry="2.5" style="stroke:#181818;stroke-width:0.5;" width="103.8677" x="214.68" y="7"/><ellipse cx="248.2424" cy="23" fill="#ADD1B2" rx="11" ry="11" style="stroke:#181818;stroke-width:1;"/><path d="M247.7111,29.9219 Q245.9611,29.9219 244.8205,29.1875 Q243.6955,28.4375 243.133,27.0938 Q242.5861,25.7344 242.5861,23.9375 Q242.5861,21.9063 243.2424,20.4531 Q243.8986,19 245.1799,18.2188 Q246.4611,17.4375 248.3361,17.4375 Q249.2268,17.4375 249.8986,17.625 Q250.5705,17.7969 251.258,18.1406 L250.4455,20.1563 Q249.8205,19.8438 249.2736,19.7188 Q248.7424,19.5938 248.258,19.5938 Q247.0861,19.5938 246.383,20.125 Q245.6799,20.6563 245.383,21.6094 Q245.0861,22.5625 245.0861,23.8281 Q245.0861,25.8438 245.8049,26.8125 Q246.5236,27.7656 248.1174,27.7656 Q248.7111,27.7656 249.3361,27.6094 Q249.9611,27.4531 250.7893,27.0781 L250.7893,29.2969 Q250.0549,29.6094 249.258,29.7656 Q248.4768,29.9219 247.7111,29.9219 Z " fill="#000000"/><text fill="#000000" font-family="sans-serif" font-size="14" lengthAdjust="spacing" textLength="30.6179" x="266.3674" y="28.432">User</text><line style="stroke:#181818;stroke-width:0.5;" x1="215.68" x2="317.5477" y1="39" y2="39"/><text fill="#000000" font-family="sans-serif" font-size="14" lengthAdjust="spacing" textLength="77.0137" x="220.68" y="57.9659">given name</text><text fill="#000000" font-family="sans-serif" font-size="14" lengthAdjust="spacing" textLength="91.8677" x="220.68" y="77.0339">email address</text><line style="stroke:#181818;stroke-width:0.5;" x1="215.68" x2="317.5477" y1="85.1358" y2="85.1358"/></g><!--class Hitchhiker--><g class="entity" data-entity="Hitchhiker" data-source-line="7" data-uid="ent0003" id="entity_Hitchhiker"><rect fill="#F1F1F1" height="67.0679" rx="2.5" ry="2.5" style="stroke:#181818;stroke-width:0.5;" width="199.2213" x="7" y="154.14"/><ellipse cx="68.4458" cy="170.14" fill="#ADD1B2" rx="11" ry="11" style="stroke:#181818;stroke-width:1;"/><path d="M67.9145,177.0619 Q66.1645,177.0619 65.0239,176.3275 Q63.8989,175.5775 63.3364,174.2338 Q62.7895,172.8744 62.7895,171.0775 Q62.7895,169.0463 63.4458,167.5931 Q64.102,166.14 65.3833,165.3588 Q66.6645,164.5775 68.5395,164.5775 Q69.4301,164.5775 70.102,164.765 Q70.7739,164.9369 71.4614,165.2806 L70.6489,167.2963 Q70.0239,166.9838 69.477,166.8588 Q68.9458,166.7338 68.4614,166.7338 Q67.2895,166.7338 66.5864,167.265 Q65.8833,167.7963 65.5864,168.7494 Q65.2895,169.7025 65.2895,170.9681 Q65.2895,172.9838 66.0083,173.9525 Q66.727,174.9056 68.3208,174.9056 Q68.9145,174.9056 69.5395,174.7494 Q70.1645,174.5931 70.9926,174.2181 L70.9926,176.4369 Q70.2583,176.7494 69.4614,176.9056 Q68.6801,177.0619 67.9145,177.0619 Z " fill="#000000"/><text fill="#000000" font-family="sans-serif" font-size="14" lengthAdjust="spacing" textLength="67.8297" x="88.9458" y="175.572">Hitchhiker</text><line style="stroke:#181818;stroke-width:0.5;" x1="8" x2="205.2213" y1="186.14" y2="186.14"/><text fill="#000000" font-family="sans-serif" font-size="14" lengthAdjust="spacing" textLength="187.2213" x="13" y="205.1059">preference: Preference [0..*]</text><line style="stroke:#181818;stroke-width:0.5;" x1="8" x2="205.2213" y1="213.2079" y2="213.2079"/></g><!--class Driver--><g class="entity" data-entity="Driver" data-source-line="11" data-uid="ent0004" id="entity_Driver"><rect fill="#F1F1F1" height="67.0679" rx="2.5" ry="2.5" style="stroke:#181818;stroke-width:0.5;" width="199.2213" x="420" y="154.14"/><ellipse cx="495.1587" cy="170.14" fill="#ADD1B2" rx="11" ry="11" style="stroke:#181818;stroke-width:1;"/><path d="M494.6275,177.0619 Q492.8775,177.0619 491.7368,176.3275 Q490.6118,175.5775 490.0493,174.2338 Q489.5025,172.8744 489.5025,171.0775 Q489.5025,169.0463 490.1587,167.5931 Q490.815,166.14 492.0962,165.3588 Q493.3775,164.5775 495.2525,164.5775 Q496.1431,164.5775 496.815,164.765 Q497.4868,164.9369 498.1743,165.2806 L497.3618,167.2963 Q496.7368,166.9838 496.19,166.8588 Q495.6587,166.7338 495.1743,166.7338 Q494.0025,166.7338 493.2993,167.265 Q492.5962,167.7963 492.2993,168.7494 Q492.0025,169.7025 492.0025,170.9681 Q492.0025,172.9838 492.7212,173.9525 Q493.44,174.9056 495.0337,174.9056 Q495.6275,174.9056 496.2525,174.7494 Q496.8775,174.5931 497.7056,174.2181 L497.7056,176.4369 Q496.9712,176.7494 496.1743,176.9056 Q495.3931,177.0619 494.6275,177.0619 Z " fill="#000000"/><text fill="#000000" font-family="sans-serif" font-size="14" lengthAdjust="spacing" textLength="40.4038" x="515.6587" y="175.572">Driver</text><line style="stroke:#181818;stroke-width:0.5;" x1="421" x2="618.2213" y1="186.14" y2="186.14"/><text fill="#000000" font-family="sans-serif" font-size="14" lengthAdjust="spacing" textLength="187.2213" x="426" y="205.1059">preference: Preference [0..*]</text><line style="stroke:#181818;stroke-width:0.5;" x1="421" x2="618.2213" y1="213.2079" y2="213.2079"/></g><!--class Vehicle--><g class="entity" data-entity="Vehicle" data-source-line="15" data-uid="ent0005" id="entity_Vehicle"><rect fill="#F1F1F1" height="67.0679" rx="2.5" ry="2.5" style="stroke:#181818;stroke-width:0.5;" width="135.3115" x="451.95" y="309.74"/><ellipse cx="492.3857" cy="325.74" fill="#ADD1B2" rx="11" ry="11" style="stroke:#181818;stroke-width:1;"/><path d="M491.8544,332.6619 Q490.1044,332.6619 488.9638,331.9275 Q487.8388,331.1775 487.2763,329.8337 Q486.7294,328.4744 486.7294,326.6775 Q486.7294,324.6462 487.3857,323.1931 Q488.0419,321.74 489.3232,320.9587 Q490.6044,320.1775 492.4794,320.1775 Q493.37,320.1775 494.0419,320.365 Q494.7138,320.5369 495.4013,320.8806 L494.5888,322.8962 Q493.9638,322.5837 493.4169,322.4587 Q492.8857,322.3337 492.4013,322.3337 Q491.2294,322.3337 490.5263,322.865 Q489.8232,323.3962 489.5263,324.3494 Q489.2294,325.3025 489.2294,326.5681 Q489.2294,328.5837 489.9482,329.5525 Q490.6669,330.5056 492.2607,330.5056 Q492.8544,330.5056 493.4794,330.3494 Q494.1044,330.1931 494.9325,329.8181 L494.9325,332.0369 Q494.1982,332.3494 493.4013,332.5056 Q492.62,332.6619 491.8544,332.6619 Z " fill="#000000"/><text fill="#000000" font-family="sans-serif" font-size="14" lengthAdjust="spacing" textLength="46.7878" x="512.038" y="331.172">Vehicle</text><line style="stroke:#181818;stroke-width:0.5;" x1="452.95" x2="586.2615" y1="341.74" y2="341.74"/><text fill="#000000" font-family="sans-serif" font-size="14" lengthAdjust="spacing" textLength="123.3115" x="457.95" y="360.7059">hitchhiker capacity</text><line style="stroke:#181818;stroke-width:0.5;" x1="452.95" x2="586.2615" y1="368.8079" y2="368.8079"/></g><!--class Ride--><g class="entity" data-entity="Ride" data-source-line="19" data-uid="ent0006" id="entity_Ride"><rect fill="#F1F1F1" height="48" rx="2.5" ry="2.5" style="stroke:#181818;stroke-width:0.5;" width="60.8259" x="270.2" y="163.67"/><ellipse cx="285.2" cy="179.67" fill="#ADD1B2" rx="11" ry="11" style="stroke:#181818;stroke-width:1;"/><path d="M284.6688,186.5919 Q282.9188,186.5919 281.7781,185.8575 Q280.6531,185.1075 280.0906,183.7638 Q279.5438,182.4044 279.5438,180.6075 Q279.5438,178.5763 280.2,177.1231 Q280.8563,175.67 282.1375,174.8888 Q283.4188,174.1075 285.2938,174.1075 Q286.1844,174.1075 286.8563,174.295 Q287.5281,174.4669 288.2156,174.8106 L287.4031,176.8263 Q286.7781,176.5138 286.2313,176.3888 Q285.7,176.2638 285.2156,176.2638 Q284.0438,176.2638 283.3406,176.795 Q282.6375,177.3263 282.3406,178.2794 Q282.0438,179.2325 282.0438,180.4981 Q282.0438,182.5138 282.7625,183.4825 Q283.4813,184.4356 285.075,184.4356 Q285.6688,184.4356 286.2938,184.2794 Q286.9188,184.1231 287.7469,183.7481 L287.7469,185.9669 Q287.0125,186.2794 286.2156,186.4356 Q285.4344,186.5919 284.6688,186.5919 Z " fill="#000000"/><text fill="#000000" font-family="sans-serif" font-size="14" lengthAdjust="spacing" textLength="28.8259" x="299.2" y="185.102">Ride</text><line style="stroke:#181818;stroke-width:0.5;" x1="271.2" x2="330.0259" y1="195.67" y2="195.67"/><line style="stroke:#181818;stroke-width:0.5;" x1="271.2" x2="330.0259" y1="203.67" y2="203.67"/></g><!--class Destination--><g class="entity" data-entity="Destination" data-source-line="23" data-uid="ent0007" id="entity_Destination"><rect fill="#F1F1F1" height="48" rx="2.5" ry="2.5" style="stroke:#181818;stroke-width:0.5;" width="107.7817" x="659.72" y="26.07"/><ellipse cx="674.72" cy="42.07" fill="#ADD1B2" rx="11" ry="11" style="stroke:#181818;stroke-width:1;"/><path d="M674.1888,48.9919 Q672.4388,48.9919 671.2981,48.2575 Q670.1731,47.5075 669.6106,46.1637 Q669.0638,44.8044 669.0638,43.0075 Q669.0638,40.9762 669.72,39.5231 Q670.3763,38.07 671.6575,37.2887 Q672.9388,36.5075 674.8138,36.5075 Q675.7044,36.5075 676.3763,36.695 Q677.0481,36.8669 677.7356,37.2106 L676.9231,39.2262 Q676.2981,38.9137 675.7513,38.7887 Q675.22,38.6637 674.7356,38.6637 Q673.5638,38.6637 672.8606,39.195 Q672.1575,39.7262 671.8606,40.6794 Q671.5638,41.6325 671.5638,42.8981 Q671.5638,44.9137 672.2825,45.8825 Q673.0013,46.8356 674.595,46.8356 Q675.1888,46.8356 675.8138,46.6794 Q676.4388,46.5231 677.2669,46.1481 L677.2669,48.3669 Q676.5325,48.6794 675.7356,48.8356 Q674.9544,48.9919 674.1888,48.9919 Z " fill="#000000"/><text fill="#000000" font-family="sans-serif" font-size="14" lengthAdjust="spacing" textLength="75.7817" x="688.72" y="47.502">Destination</text><line style="stroke:#181818;stroke-width:0.5;" x1="660.72" x2="766.5017" y1="58.07" y2="58.07"/><line style="stroke:#181818;stroke-width:0.5;" x1="660.72" x2="766.5017" y1="66.07" y2="66.07"/></g><!--class DriverRating--><g class="entity" data-entity="DriverRating" data-source-line="26" data-uid="ent0008" id="entity_DriverRating"><rect fill="#F1F1F1" height="86.1358" rx="2.5" ry="2.5" style="stroke:#181818;stroke-width:0.5;" width="118.5337" x="249.34" y="300.2"/><ellipse cx="264.34" cy="316.2" fill="#ADD1B2" rx="11" ry="11" style="stroke:#181818;stroke-width:1;"/><path d="M263.8088,323.1219 Q262.0588,323.1219 260.9181,322.3875 Q259.7931,321.6375 259.2306,320.2938 Q258.6838,318.9344 258.6838,317.1375 Q258.6838,315.1063 259.34,313.6531 Q259.9963,312.2 261.2775,311.4188 Q262.5588,310.6375 264.4338,310.6375 Q265.3244,310.6375 265.9963,310.825 Q266.6681,310.9969 267.3556,311.3406 L266.5431,313.3563 Q265.9181,313.0438 265.3713,312.9188 Q264.84,312.7938 264.3556,312.7938 Q263.1838,312.7938 262.4806,313.325 Q261.7775,313.8563 261.4806,314.8094 Q261.1838,315.7625 261.1838,317.0281 Q261.1838,319.0438 261.9025,320.0125 Q262.6213,320.9656 264.215,320.9656 Q264.8088,320.9656 265.4338,320.8094 Q266.0588,320.6531 266.8869,320.2781 L266.8869,322.4969 Q266.1525,322.8094 265.3556,322.9656 Q264.5744,323.1219 263.8088,323.1219 Z " fill="#000000"/><text fill="#000000" font-family="sans-serif" font-size="14" lengthAdjust="spacing" textLength="86.5337" x="278.34" y="321.632">Driver Rating</text><line style="stroke:#181818;stroke-width:0.5;" x1="250.34" x2="366.8737" y1="332.2" y2="332.2"/><text fill="#000000" font-family="sans-serif" font-size="14" lengthAdjust="spacing" textLength="35.5739" x="255.34" y="351.1659">score</text><text fill="#000000" font-family="sans-serif" font-size="14" lengthAdjust="spacing" textLength="99.3436" x="255.34" y="370.2339">comment [0..1]</text><line style="stroke:#181818;stroke-width:0.5;" x1="250.34" x2="366.8737" y1="378.3358" y2="378.3358"/></g><!--class Route--><g class="entity" data-entity="Route" data-source-line="31" data-uid="ent0009" id="entity_Route"><rect fill="#F1F1F1" height="86.1358" rx="2.5" ry="2.5" style="stroke:#181818;stroke-width:0.5;" width="125.6236" x="802.8" y="7"/><ellipse cx="842.4797" cy="23" fill="#ADD1B2" rx="11" ry="11" style="stroke:#181818;stroke-width:1;"/><path d="M841.9484,29.9219 Q840.1984,29.9219 839.0578,29.1875 Q837.9328,28.4375 837.3703,27.0938 Q836.8234,25.7344 836.8234,23.9375 Q836.8234,21.9063 837.4797,20.4531 Q838.1359,19 839.4172,18.2188 Q840.6984,17.4375 842.5734,17.4375 Q843.4641,17.4375 844.1359,17.625 Q844.8078,17.7969 845.4953,18.1406 L844.6828,20.1563 Q844.0578,19.8438 843.5109,19.7188 Q842.9797,19.5938 842.4953,19.5938 Q841.3234,19.5938 840.6203,20.125 Q839.9172,20.6563 839.6203,21.6094 Q839.3234,22.5625 839.3234,23.8281 Q839.3234,25.8438 840.0422,26.8125 Q840.7609,27.7656 842.3547,27.7656 Q842.9484,27.7656 843.5734,27.6094 Q844.1984,27.4531 845.0266,27.0781 L845.0266,29.2969 Q844.2922,29.6094 843.4953,29.7656 Q842.7141,29.9219 841.9484,29.9219 Z " fill="#000000"/><text fill="#000000" font-family="sans-serif" font-size="14" lengthAdjust="spacing" textLength="38.7798" x="861.9641" y="28.432">Route</text><line style="stroke:#181818;stroke-width:0.5;" x1="803.8" x2="927.4236" y1="39" y2="39"/><text fill="#000000" font-family="sans-serif" font-size="14" lengthAdjust="spacing" textLength="113.6236" x="808.8" y="57.9659">start: Destination</text><text fill="#000000" font-family="sans-serif" font-size="14" lengthAdjust="spacing" textLength="108.3316" x="808.8" y="77.0339">end: Destination</text><line style="stroke:#181818;stroke-width:0.5;" x1="803.8" x2="927.4236" y1="85.1358" y2="85.1358"/></g><!--class DriverListing--><g class="entity" data-entity="DriverListing" data-source-line="36" data-uid="ent0010" id="entity_DriverListing"><rect fill="#F1F1F1" height="67.0679" rx="2.5" ry="2.5" style="stroke:#181818;stroke-width:0.5;" width="141.3735" x="962.92" y="16.53"/><ellipse cx="987.7065" cy="32.53" fill="#ADD1B2" rx="11" ry="11" style="stroke:#181818;stroke-width:1;"/><path d="M987.1753,39.4519 Q985.4253,39.4519 984.2847,38.7175 Q983.1597,37.9675 982.5972,36.6237 Q982.0503,35.2644 982.0503,33.4675 Q982.0503,31.4362 982.7065,29.9831 Q983.3628,28.53 984.644,27.7487 Q985.9253,26.9675 987.8003,26.9675 Q988.6909,26.9675 989.3628,27.155 Q990.0347,27.3269 990.7222,27.6706 L989.9097,29.6862 Q989.2847,29.3737 988.7378,29.2487 Q988.2065,29.1237 987.7222,29.1237 Q986.5503,29.1237 985.8472,29.655 Q985.144,30.1862 984.8472,31.1394 Q984.5503,32.0925 984.5503,33.3581 Q984.5503,35.3737 985.269,36.3425 Q985.9878,37.2956 987.5815,37.2956 Q988.1753,37.2956 988.8003,37.1394 Q989.4253,36.9831 990.2534,36.6081 L990.2534,38.8269 Q989.519,39.1394 988.7222,39.2956 Q987.9409,39.4519 987.1753,39.4519 Z " fill="#000000"/><text fill="#000000" font-family="sans-serif" font-size="14" lengthAdjust="spacing" textLength="87.6257" x="1003.8813" y="37.962">Driver Listing</text><line style="stroke:#181818;stroke-width:0.5;" x1="963.92" x2="1103.2935" y1="48.53" y2="48.53"/><text fill="#000000" font-family="sans-serif" font-size="14" lengthAdjust="spacing" textLength="129.3735" x="968.92" y="67.4959">drivers: Driver [0..*]</text><line style="stroke:#181818;stroke-width:0.5;" x1="963.92" x2="1103.2935" y1="75.5979" y2="75.5979"/></g><!--class RideRequest--><g class="entity" data-entity="RideRequest" data-source-line="40" data-uid="ent0011" id="entity_RideRequest"><rect fill="#F1F1F1" height="67.0679" rx="2.5" ry="2.5" style="stroke:#181818;stroke-width:0.5;" width="117.9877" x="654.62" y="154.14"/><ellipse cx="669.62" cy="170.14" fill="#ADD1B2" rx="11" ry="11" style="stroke:#181818;stroke-width:1;"/><path d="M669.0888,177.0619 Q667.3388,177.0619 666.1981,176.3275 Q665.0731,175.5775 664.5106,174.2338 Q663.9638,172.8744 663.9638,171.0775 Q663.9638,169.0463 664.62,167.5931 Q665.2763,166.14 666.5575,165.3588 Q667.8388,164.5775 669.7138,164.5775 Q670.6044,164.5775 671.2763,164.765 Q671.9481,164.9369 672.6356,165.2806 L671.8231,167.2963 Q671.1981,166.9838 670.6513,166.8588 Q670.12,166.7338 669.6356,166.7338 Q668.4638,166.7338 667.7606,167.265 Q667.0575,167.7963 666.7606,168.7494 Q666.4638,169.7025 666.4638,170.9681 Q666.4638,172.9838 667.1825,173.9525 Q667.9013,174.9056 669.495,174.9056 Q670.0888,174.9056 670.7138,174.7494 Q671.3388,174.5931 672.1669,174.2181 L672.1669,176.4369 Q671.4325,176.7494 670.6356,176.9056 Q669.8544,177.0619 669.0888,177.0619 Z " fill="#000000"/><text fill="#000000" font-family="sans-serif" font-size="14" lengthAdjust="spacing" textLength="85.9877" x="683.62" y="175.572">Ride Request</text><line style="stroke:#181818;stroke-width:0.5;" x1="655.62" x2="771.6077" y1="186.14" y2="186.14"/><text fill="#000000" font-family="sans-serif" font-size="14" lengthAdjust="spacing" textLength="40.0259" x="660.62" y="205.1059">status</text><line style="stroke:#181818;stroke-width:0.5;" x1="655.62" x2="771.6077" y1="213.2079" y2="213.2079"/></g><!--class Preference--><g class="entity" data-entity="Preference" data-source-line="44" data-uid="ent0012" id="entity_Preference"><rect fill="#F1F1F1" height="48" rx="2.5" ry="2.5" style="stroke:#181818;stroke-width:0.5;" width="103.8057" x="807.71" y="163.67"/><ellipse cx="822.71" cy="179.67" fill="#ADD1B2" rx="11" ry="11" style="stroke:#181818;stroke-width:1;"/><path d="M822.1788,186.5919 Q820.4288,186.5919 819.2881,185.8575 Q818.1631,185.1075 817.6006,183.7638 Q817.0538,182.4044 817.0538,180.6075 Q817.0538,178.5763 817.71,177.1231 Q818.3663,175.67 819.6475,174.8888 Q820.9288,174.1075 822.8038,174.1075 Q823.6944,174.1075 824.3663,174.295 Q825.0381,174.4669 825.7256,174.8106 L824.9131,176.8263 Q824.2881,176.5138 823.7413,176.3888 Q823.21,176.2638 822.7256,176.2638 Q821.5538,176.2638 820.8506,176.795 Q820.1475,177.3263 819.8506,178.2794 Q819.5538,179.2325 819.5538,180.4981 Q819.5538,182.5138 820.2725,183.4825 Q820.9913,184.4356 822.585,184.4356 Q823.1788,184.4356 823.8038,184.2794 Q824.4288,184.1231 825.2569,183.7481 L825.2569,185.9669 Q824.5225,186.2794 823.7256,186.4356 Q822.9444,186.5919 822.1788,186.5919 Z " fill="#000000"/><text fill="#000000" font-family="sans-serif" font-size="14" lengthAdjust="spacing" textLength="71.8057" x="836.71" y="185.102">Preference</text><line style="stroke:#181818;stroke-width:0.5;" x1="808.71" x2="910.5157" y1="195.67" y2="195.67"/><line style="stroke:#181818;stroke-width:0.5;" x1="808.71" x2="910.5157" y1="203.67" y2="203.67"/></g><!--reverse link User to Driver--><g class="link" data-entity-1="User" data-entity-2="Driver" data-source-line="48" data-uid="lnk14" id="link_User_Driver"><path codeLine="48" d="M334.8954,87.6723 C375.4254,109.3923 415.75,131 458.35,153.83" fill="none" id="User-backto-Driver" style="stroke:#181818;stroke-width:1;"/><polygon fill="none" points="319.03,79.17,332.0613,92.9607,337.7295,82.3838,319.03,79.17" style="stroke:#181818;stroke-width:1;"/></g><!--reverse link User to Hitchhiker--><g class="link" data-entity-1="User" data-entity-2="Hitchhiker" data-source-line="49" data-uid="lnk16" id="link_User_Hitchhiker"><path codeLine="49" d="M202.6893,105.239 C179.7793,124.659 166.79,135.66 145.45,153.75" fill="none" id="User-backto-Hitchhiker" style="stroke:#181818;stroke-width:1;"/><polygon fill="none" points="216.42,93.6,198.8096,100.6621,206.569,109.816,216.42,93.6" style="stroke:#181818;stroke-width:1;"/></g><!--link Driver to DriverRating--><g class="link" data-entity-1="Driver" data-entity-2="DriverRating" data-source-line="51" data-uid="lnk17" id="link_Driver_DriverRating"><path codeLine="51" d="M458.64,221.61 C443.25,230.65 427.02,240.83 412.61,251.2 C392.26,265.86 375.6498,279.7062 357.8498,295.7262" fill="none" id="Driver-to-DriverRating" style="stroke:#181818;stroke-width:1;"/><polygon fill="#181818" points="353.39,299.74,362.7555,296.6925,357.1065,296.3952,357.4038,290.7461,353.39,299.74" style="stroke:#181818;stroke-width:1;"/><text fill="#000000" font-family="sans-serif" font-size="13" lengthAdjust="spacing" textLength="97.9031" x="413.61" y="266.097">received ratings</text><text fill="#000000" font-family="sans-serif" font-size="13" lengthAdjust="spacing" textLength="7.436" x="440.195" y="243.1288">1</text><text fill="#000000" font-family="sans-serif" font-size="13" lengthAdjust="spacing" textLength="21.567" x="337.8991" y="288.4013">0..*</text></g><!--link Hitchhiker to DriverRating--><g class="link" data-entity-1="Hitchhiker" data-entity-2="DriverRating" data-source-line="52" data-uid="lnk18" id="link_Hitchhiker_DriverRating"><path codeLine="52" d="M149.94,221.62 C179.97,244.45 215.4436,271.4288 247.8936,296.0988" fill="none" id="Hitchhiker-to-DriverRating" style="stroke:#181818;stroke-width:1;"/><polygon fill="#181818" points="252.67,299.73,247.9262,291.0989,248.6897,296.704,243.0846,297.4674,252.67,299.73" style="stroke:#181818;stroke-width:1;"/><text fill="#000000" font-family="sans-serif" font-size="13" lengthAdjust="spacing" textLength="79.6641" x="214.67" y="266.097">given ratings</text><text fill="#000000" font-family="sans-serif" font-size="13" lengthAdjust="spacing" textLength="7.436" x="150.0734" y="243.1406">1</text><text fill="#000000" font-family="sans-serif" font-size="13" lengthAdjust="spacing" textLength="21.567" x="221.1268" y="288.3897">0..*</text></g><!--reverse link Ride to Driver--><g class="link" data-entity-1="Ride" data-entity-2="Driver" data-source-line="54" data-uid="lnk20" id="link_Ride_Driver"><path codeLine="54" d="M337.52,187.67 C360.63,187.67 387.61,187.67 419.52,187.67" fill="none" id="Ride-backto-Driver" style="stroke:#181818;stroke-width:1;"/><polygon fill="#181818" points="331.52,187.67,340.52,191.67,336.52,187.67,340.52,183.67,331.52,187.67" style="stroke:#181818;stroke-width:1;"/><text fill="#000000" font-family="sans-serif" font-size="13" lengthAdjust="spacing" textLength="52.741" x="349.51" y="180.567">provides</text><text fill="#000000" font-family="sans-serif" font-size="13" lengthAdjust="spacing" textLength="21.84" x="338.9704" y="203.144">0..1</text><text fill="#000000" font-family="sans-serif" font-size="13" lengthAdjust="spacing" textLength="7.436" x="404.6055" y="183.943">1</text></g><!--link Hitchhiker to Ride--><g class="link" data-entity-1="Hitchhiker" data-entity-2="Ride" data-source-line="55" data-uid="lnk21" id="link_Hitchhiker_Ride"><path codeLine="55" d="M206.45,187.67 C229.66,187.67 246.66,187.67 264.11,187.67" fill="none" id="Hitchhiker-to-Ride" style="stroke:#181818;stroke-width:1;"/><polygon fill="#181818" points="270.11,187.67,261.11,183.67,265.11,187.67,261.11,191.67,270.11,187.67" style="stroke:#181818;stroke-width:1;"/><text fill="#000000" font-family="sans-serif" font-size="13" lengthAdjust="spacing" textLength="27.82" x="224.71" y="180.567">uses</text><text fill="#000000" font-family="sans-serif" font-size="13" lengthAdjust="spacing" textLength="21.567" x="214.2282" y="202.1892">0..*</text><text fill="#000000" font-family="sans-serif" font-size="13" lengthAdjust="spacing" textLength="21.84" x="240.2325" y="203.5036">0..1</text></g><!--link Driver to Vehicle--><g class="link" data-entity-1="Driver" data-entity-2="Vehicle" data-source-line="57" data-uid="lnk22" id="link_Driver_Vehicle"><path codeLine="57" d="M519.61,221.62 C519.61,247.54 519.61,277.47 519.61,303.38" fill="none" id="Driver-to-Vehicle" style="stroke:#181818;stroke-width:1;"/><polygon fill="#181818" points="519.61,309.38,523.61,300.38,519.61,304.38,515.61,300.38,519.61,309.38" style="stroke:#181818;stroke-width:1;"/><text fill="#000000" font-family="sans-serif" font-size="13" lengthAdjust="spacing" textLength="36.881" x="520.61" y="266.097">drives</text><text fill="#000000" font-family="sans-serif" font-size="13" lengthAdjust="spacing" textLength="21.84" x="496.8144" y="243.1406">0..1</text><text fill="#000000" font-family="sans-serif" font-size="13" lengthAdjust="spacing" textLength="7.436" x="511.9647" y="298.0002">1</text></g><!--SRC=[bLAxJiGm4Epz5IkNI3bnhOkhA2WeK2He48LbBnUBn3cypaa8-7SSFnBdJa8YJUpnpknulAgNHF14wE2BGVYEvemMh1mmRd6GfWUfjKCYziEOYeHxurNNcVU5TdBuXWwjGW6FonfURdUxczULT-U2_3yvpzWPrMCcTMjd9KzI6V-vbhP6ptLLFoHlhFHcj05VO9vzjE747Zd8uYm1kHMfqQKKr3WCQ7sqjg-ijUFaYp7oqdbHTqm1Mhq5hqmy6BfmaP4ih2D6eeHtcG-FjsxnOmfTeieCvFrgpa_L-rLnfxYoTZCrtuSu3gnwuWejXNpFeMaEm6SpV9kU08SA0w31HOHgiR-PQVmARTEjpwImZZSMOO36SrXjvPDiuwwg9y9ACHr58-5VPaoaj8dz0W00]--></g></svg>