<svg xmlns="http://www.w3.org/2000/svg" xmlns:xlink="http://www.w3.org/1999/xlink" contentStyleType="text/css" data-diagram-type="DESCRIPTION" height="438px" preserveAspectRatio="none" style="width:417px;height:438px;background:#FFFFFF;" version="1.1" viewBox="0 0 417 438" width="417px" zoomAndPan="magnify">
<style>
    :target ellipse {
      fill: #00c3ff !important ;
    }
    </style>
<defs/><g><!--cluster E-Stop - Managing Rides--><g class="cluster" data-entity="E-Stop - Managing Rides" data-source-line="4" data-uid="ent0004" id="cluster_E-Stop - Managing Rides"><rect fill="none" height="425" rx="2.5" ry="2.5" style="stroke:#181818;stroke-width:1;" width="286.86" x="124.72" y="7"/><text fill="#000000" font-family="sans-serif" font-size="14" font-weight="bold" lengthAdjust="spacing" textLength="193.252" x="171.524" y="21.9951">E-Stop - Managing Rides</text></g><!--entity UC_RC--><g class="entity" data-entity="UC_RC" data-source-line="5" data-uid="ent0005" id="entity_UC_RC"><ellipse cx="268.1494" cy="150.0019" fill="#F1F1F1" rx="75.6094" ry="17.5219" style="stroke:#181818;stroke-width:0.5;"/><text fill="#000000" font-family="sans-serif" font-size="14" lengthAdjust="spacing" textLength="120.2031" x="208.0478" y="154.6503">Ride cancellation</text></g><!--entity UC_SNDA--><g class="entity" data-entity="UC_SNDA" data-source-line="6" data-uid="ent0006" id="entity_UC_SNDA"><ellipse cx="268.1537" cy="69.9967" fill="#F1F1F1" rx="127.4337" ry="27.8867" style="stroke:#181818;stroke-width:0.5;"/><text fill="#000000" font-family="sans-serif" font-size="14" lengthAdjust="spacing" textLength="235.1494" x="150.579" y="74.6452">Send notification on driver arrival</text></g><!--entity UC_RHB--><g class="entity" data-entity="UC_RHB" data-source-line="7" data-uid="ent0007" id="entity_UC_RHB"><ellipse cx="268.15" cy="391.996" fill="#F1F1F1" rx="109.28" ry="24.256" style="stroke:#181818;stroke-width:0.5;"/><text fill="#000000" font-family="sans-serif" font-size="14" lengthAdjust="spacing" textLength="196.3213" x="169.9894" y="396.6444">Report hitchhiker behaviour</text></g><!--entity UC_RRN--><g class="entity" data-entity="UC_RRN" data-source-line="8" data-uid="ent0008" id="entity_UC_RRN"><ellipse cx="268.1458" cy="310.9972" fill="#F1F1F1" rx="98.2858" ry="22.0572" style="stroke:#181818;stroke-width:0.5;"/><text fill="#000000" font-family="sans-serif" font-size="14" lengthAdjust="spacing" textLength="172.2725" x="182.0095" y="315.6456">Ride request notification</text></g><!--entity UC_DN--><g class="entity" data-entity="UC_DN" data-source-line="9" data-uid="ent0009" id="entity_UC_DN"><ellipse cx="268.1523" cy="220.0045" fill="#F1F1F1" rx="76.1223" ry="17.6245" style="stroke:#181818;stroke-width:0.5;"/><text fill="#000000" font-family="sans-serif" font-size="14" lengthAdjust="spacing" textLength="121.4404" x="207.4321" y="224.6529">Driver navigation</text></g><!--entity AC_H--><g class="entity" data-entity="AC_H" data-source-line="2" data-uid="ent0002" id="entity_AC_H"><ellipse cx="41.8579" cy="60.35" fill="#F1F1F1" rx="8" ry="8" style="stroke:#181818;stroke-width:0.5;"/><path d="M41.8579,68.35 L41.8579,95.35 M28.8579,76.35 L54.8579,76.35 M41.8579,95.35 L28.8579,110.35 M41.8579,95.35 L54.8579,110.35" fill="none" style="stroke:#181818;stroke-width:0.5;"/><text fill="#000000" font-family="sans-serif" font-size="14" lengthAdjust="spacing" textLength="71.7158" x="6" y="124.8451">Hitchhiker</text></g><!--entity AC_D--><g class="entity" data-entity="AC_D" data-source-line="3" data-uid="ent0003" id="entity_AC_D"><ellipse cx="41.86" cy="190.35" fill="#F1F1F1" rx="8" ry="8" style="stroke:#181818;stroke-width:0.5;"/><path d="M41.86,198.35 L41.86,225.35 M28.86,206.35 L54.86,206.35 M41.86,225.35 L28.86,240.35 M41.86,225.35 L54.86,240.35" fill="none" style="stroke:#181818;stroke-width:0.5;"/><text fill="#000000" font-family="sans-serif" font-size="14" lengthAdjust="spacing" textLength="43.0801" x="20.32" y="254.8451">Driver</text></g><!--reverse link UC_RRN to UC_DN--><g class="link" data-entity-1="UC_RRN" data-entity-2="UC_DN" data-source-line="11" data-uid="lnk11" id="link_UC_RRN_UC_DN"><path d="M268.15,282.51 C268.15,266.93 268.15,252.46 268.15,237.97" fill="none" id="UC_RRN-backto-UC_DN" style="stroke:#181818;stroke-width:1;stroke-dasharray:7.0,7.0;"/><polygon fill="#181818" points="268.15,288.51,272.15,279.51,268.15,283.51,264.15,279.51,268.15,288.51" style="stroke:#181818;stroke-width:1;"/><text fill="#000000" font-family="sans-serif" font-size="13" lengthAdjust="spacing" textLength="63.0068" x="225.15" y="267.8469">&#171;include&#187;</text></g><!--link AC_H to UC_RC--><g class="link" data-entity-1="AC_H" data-entity-2="UC_RC" data-source-line="12" data-uid="lnk12" id="link_AC_H_UC_RC"><path d="M77.95,102.66 C90.14,106.85 103.96,111.37 116.72,115 C147.53,123.78 176.5008,130.6976 204.8808,136.9576" fill="none" id="AC_H-to-UC_RC" style="stroke:#181818;stroke-width:1;"/><polygon fill="#181818" points="210.74,138.25,202.8129,132.4053,205.8574,137.173,201.0897,140.2175,210.74,138.25" style="stroke:#181818;stroke-width:1;"/></g><!--link AC_D to UC_RC--><g class="link" data-entity-1="AC_D" data-entity-2="UC_RC" data-source-line="13" data-uid="lnk13" id="link_AC_D_UC_RC"><path d="M63.68,208.66 C78.21,201.12 98.23,191.45 116.72,185 C145.96,174.8 173.567,167.908 201.497,162.068" fill="none" id="AC_D-to-UC_RC" style="stroke:#181818;stroke-width:1;"/><polygon fill="#181818" points="207.37,160.84,197.7418,158.7667,202.4758,161.8633,199.3792,166.5973,207.37,160.84" style="stroke:#181818;stroke-width:1;"/></g><!--link AC_H to UC_SNDA--><g class="link" data-entity-1="AC_H" data-entity-2="UC_SNDA" data-source-line="14" data-uid="lnk14" id="link_AC_H_UC_SNDA"><path d="M77.9,86.88 C97.62,85.12 117.5137,83.3425 143.7737,81.0025" fill="none" id="AC_H-to-UC_SNDA" style="stroke:#181818;stroke-width:1;"/><polygon fill="#181818" points="149.75,80.47,140.4305,77.2846,144.7697,80.9138,141.1405,85.253,149.75,80.47" style="stroke:#181818;stroke-width:1;"/></g><!--link AC_D to UC_RHB--><g class="link" data-entity-1="AC_D" data-entity-2="UC_RHB" data-source-line="15" data-uid="lnk15" id="link_AC_D_UC_RHB"><path d="M55.27,258.5 C66.71,287.99 86.54,327.5 116.72,351 C133.48,364.06 148.356,371.2596 168.896,377.3296" fill="none" id="AC_D-to-UC_RHB" style="stroke:#181818;stroke-width:1;"/><polygon fill="#181818" points="174.65,379.03,167.1526,372.6434,169.855,377.613,164.8854,380.3154,174.65,379.03" style="stroke:#181818;stroke-width:1;"/></g><!--link AC_D to UC_DN--><g class="link" data-entity-1="AC_D" data-entity-2="UC_DN" data-source-line="16" data-uid="lnk16" id="link_AC_D_UC_DN"><path d="M63.56,220 C92.46,220 140.43,220 185.55,220" fill="none" id="AC_D-to-UC_DN" style="stroke:#181818;stroke-width:1;"/><polygon fill="#181818" points="191.55,220,182.55,216,186.55,220,182.55,224,191.55,220" style="stroke:#181818;stroke-width:1;"/></g><!--SRC=[RL31QiCm3BtxAnwvfnymIg1B1haiXuITY-QeYPYnEyVffVJVvsHjDeyPWv3qdfwU39y2WeENOGpenRCEugmY7Pn7LalGuoWVx3FGX4Dvh1-joilbfrofXKbsC8pi9U-2EoF7AraQn0vefUSfmrKXldbYJLF4BLLeifgDeKLsdVPM7jio1NPiUrWNv2Hw1IB-Vbq0v6Cayw1sJNNuey9dvmF6pGhUUQIBkDblUlNpFvjv_fnv2edmncYRbF5z3jWuU4YGLQDkQetOcLrn9-C9-xrORUQUYq8jXqMU5tVpoq7JTEkk_f9-tFrtNZLV]--></g></svg>