<svg xmlns="http://www.w3.org/2000/svg" xmlns:xlink="http://www.w3.org/1999/xlink" contentStyleType="text/css" data-diagram-type="ACTIVITY" height="1532px" preserveAspectRatio="none" style="width:1258px;height:1532px;background:#FFFFFF;" version="1.1" viewBox="0 0 1258 1532" width="1258px" zoomAndPan="magnify"><defs/><g><ellipse cx="597.5161" cy="20" fill="#222222" rx="10" ry="10" style="stroke:#222222;stroke-width:1;"/><rect fill="#F1F1F1" height="33.9688" rx="12.5" ry="12.5" style="stroke:#181818;stroke-width:0.5;" width="352.6367" x="421.1978" y="50"/><text fill="#000000" font-family="sans-serif" font-size="12" lengthAdjust="spacing" textLength="332.6367" x="431.1978" y="71.1387">Hitchhiker navigates to the option to find available ride</text><rect fill="none" height="404.75" style="stroke:#000000;stroke-width:1.5;" width="1016.5254" x="89.2534" y="93.9688"/><path d="M205.1353,93.9688 L205.1353,103.2656 L195.1353,113.2656 L89.2534,113.2656" fill="none" style="stroke:#000000;stroke-width:1.5;"/><text fill="#000000" font-family="sans-serif" font-size="14" lengthAdjust="spacing" textLength="105.8818" x="92.2534" y="107.9639">Set destination</text><rect fill="#F1F1F1" height="33.9688" rx="12.5" ry="12.5" style="stroke:#181818;stroke-width:0.5;" width="444.1602" x="375.436" y="133.2656"/><text fill="#000000" font-family="sans-serif" font-size="12" lengthAdjust="spacing" textLength="424.1602" x="385.436" y="154.4043">System shows them a map with a search box and hitchhiker's location</text><rect fill="#F1F1F1" height="33.9688" rx="12.5" ry="12.5" style="stroke:#181818;stroke-width:0.5;" width="590.0996" x="302.4663" y="187.2344"/><text fill="#000000" font-family="sans-serif" font-size="12" lengthAdjust="spacing" textLength="570.0996" x="312.4663" y="208.373">Hitchhiker can search for a desired destination to travel to (through search box or pin on map)</text><polygon fill="#F1F1F1" points="542.4785,241.2031,652.5537,241.2031,664.5537,253.2031,652.5537,265.2031,542.4785,265.2031,530.4785,253.2031,542.4785,241.2031" style="stroke:#181818;stroke-width:0.5;"/><text fill="#000000" font-family="sans-serif" font-size="11" lengthAdjust="spacing" textLength="110.0752" x="542.4785" y="257.0112">Destination address</text><rect fill="#F1F1F1" height="33.9688" rx="12.5" ry="12.5" style="stroke:#181818;stroke-width:0.5;" width="356.252" x="99.2534" y="300.8125"/><text fill="#000000" font-family="sans-serif" font-size="12" lengthAdjust="spacing" textLength="336.252" x="109.2534" y="321.9512">System shows shows a prompt to complete the address</text><rect fill="#F1F1F1" height="33.9688" rx="12.5" ry="12.5" style="stroke:#181818;stroke-width:0.5;" width="241.4375" x="156.6606" y="354.7813"/><text fill="#000000" font-family="sans-serif" font-size="12" lengthAdjust="spacing" textLength="221.4375" x="166.6606" y="375.9199">Hitchhiker can complete the address</text><rect fill="#F1F1F1" height="33.9688" rx="12.5" ry="12.5" style="stroke:#181818;stroke-width:0.5;" width="286.6895" x="475.5054" y="300.8125"/><text fill="#000000" font-family="sans-serif" font-size="12" lengthAdjust="spacing" textLength="266.6895" x="485.5054" y="321.9512">Hitchhiker confirms their chosen destination</text><rect fill="#F1F1F1" height="33.9688" rx="12.5" ry="12.5" style="stroke:#181818;stroke-width:0.5;" width="313.584" x="782.1948" y="300.8125"/><text fill="#000000" font-family="sans-serif" font-size="12" lengthAdjust="spacing" textLength="293.584" x="792.1948" y="321.9512">System shows a list of places with similar names</text><rect fill="#F1F1F1" height="33.9688" rx="12.5" ry="12.5" style="stroke:#181818;stroke-width:0.5;" width="283.1563" x="797.4087" y="354.7813"/><text fill="#000000" font-family="sans-serif" font-size="12" lengthAdjust="spacing" textLength="263.1563" x="807.4087" y="375.9199">Hitchhiker can pick destination from the list</text><polygon fill="#F1F1F1" points="597.5161,408.75,597.5161,408.75,609.5161,420.75,597.5161,432.75,597.5161,432.75,585.5161,420.75,597.5161,408.75" style="stroke:#181818;stroke-width:0.5;"/><rect fill="#F1F1F1" height="33.9688" rx="12.5" ry="12.5" style="stroke:#181818;stroke-width:0.5;" width="249.3418" x="472.8452" y="452.75"/><text fill="#000000" font-family="sans-serif" font-size="12" lengthAdjust="spacing" textLength="229.3418" x="482.8452" y="473.8887">System confirms destination selection</text><rect fill="none" height="450.4917" style="stroke:#000000;stroke-width:1.5;" width="1191.0322" x="11" y="596.7188"/><path d="M164.9033,596.7188 L164.9033,606.0156 L154.9033,616.0156 L11,616.0156" fill="none" style="stroke:#000000;stroke-width:1.5;"/><text fill="#000000" font-family="sans-serif" font-size="14" lengthAdjust="spacing" textLength="143.9033" x="14" y="610.7139">Display driver listing</text><rect fill="#F1F1F1" height="33.9688" rx="12.5" ry="12.5" style="stroke:#181818;stroke-width:0.5;" width="489.9746" x="352.5288" y="636.0156"/><text fill="#000000" font-family="sans-serif" font-size="12" lengthAdjust="spacing" textLength="469.9746" x="362.5288" y="657.1543">System shows them a list of nearby and available drivers going the same way</text><polygon fill="#F1F1F1" points="546.2866,733.9844,648.7456,733.9844,660.7456,745.9844,648.7456,757.9844,546.2866,757.9844,534.2866,745.9844,546.2866,733.9844" style="stroke:#181818;stroke-width:0.5;"/><text fill="#000000" font-family="sans-serif" font-size="11" lengthAdjust="spacing" textLength="102.459" x="546.2866" y="749.7925">Hitchhiker's action</text><rect fill="#F1F1F1" height="33.9688" rx="12.5" ry="12.5" style="stroke:#181818;stroke-width:0.5;" width="329.2109" x="73.834" y="793.5938"/><text fill="#000000" font-family="sans-serif" font-size="12" lengthAdjust="spacing" textLength="309.2109" x="83.834" y="814.7324">System show list all possible driver filtering options</text><rect fill="#F1F1F1" height="33.9688" rx="12.5" ry="12.5" style="stroke:#181818;stroke-width:0.5;" width="434.8789" x="21" y="847.5625"/><text fill="#000000" font-family="sans-serif" font-size="12" lengthAdjust="spacing" textLength="414.8789" x="31" y="868.7012">Hitchhiker specifies their preferences using the options and confirms</text><rect fill="#F1F1F1" height="33.9688" rx="12.5" ry="12.5" style="stroke:#181818;stroke-width:0.5;" width="279.8457" x="486.6279" y="793.5938"/><text fill="#000000" font-family="sans-serif" font-size="12" lengthAdjust="spacing" textLength="259.8457" x="496.6279" y="814.7324">System displays a text box and a keyboard</text><rect fill="#F1F1F1" height="33.9688" rx="12.5" ry="12.5" style="stroke:#181818;stroke-width:0.5;" width="301.3438" x="475.8789" y="847.5625"/><text fill="#000000" font-family="sans-serif" font-size="12" lengthAdjust="spacing" textLength="281.3438" x="485.8789" y="868.7012">Hitchhiker enters a driver's name to search for</text><rect fill="#F1F1F1" height="33.9688" rx="12.5" ry="12.5" style="stroke:#181818;stroke-width:0.5;" width="270.8047" x="852.2153" y="793.5938"/><text fill="#000000" font-family="sans-serif" font-size="12" lengthAdjust="spacing" textLength="250.8047" x="862.2153" y="814.7324">Hitchhiker goes through the list of drivers</text><polygon fill="#F1F1F1" points="597.5161,901.5313,597.5161,901.5313,609.5161,913.5313,597.5161,925.5313,597.5161,925.5313,585.5161,913.5313,597.5161,901.5313" style="stroke:#181818;stroke-width:0.5;"/><polygon fill="#F1F1F1" points="597.5161,689.9844,609.5161,701.9844,597.5161,713.9844,585.5161,701.9844,597.5161,689.9844" style="stroke:#181818;stroke-width:0.5;"/><polygon fill="#F1F1F1" points="540.5449,945.5313,654.4873,945.5313,666.4873,957.5313,654.4873,969.5313,540.5449,969.5313,528.5449,957.5313,540.5449,945.5313" style="stroke:#181818;stroke-width:0.5;"/><text fill="#000000" font-family="sans-serif" font-size="11" lengthAdjust="spacing" textLength="260.4819" x="601.5161" y="979.7417">Hitchhiker chooses one of the drivers in the list</text><text fill="#000000" font-family="sans-serif" font-size="11" lengthAdjust="spacing" textLength="113.9424" x="540.5449" y="961.3394">Hitchhiker's decision</text><text fill="#000000" font-family="sans-serif" font-size="11" lengthAdjust="spacing" textLength="201.5664" x="666.4873" y="954.937">Hitchhiker searches for more drivers</text><rect fill="#F1F1F1" height="33.9688" rx="12.5" ry="12.5" style="stroke:#181818;stroke-width:0.5;" width="332.4453" x="431.2935" y="1001.2417"/><text fill="#000000" font-family="sans-serif" font-size="12" lengthAdjust="spacing" textLength="312.4453" x="441.2935" y="1022.3804">System shows more details about the chosen driver</text><polygon fill="#F1F1F1" points="597.5161,562.7188,609.5161,574.7188,597.5161,586.7188,585.5161,574.7188,597.5161,562.7188" style="stroke:#181818;stroke-width:0.5;"/><polygon fill="#F1F1F1" points="540.5449,1067.2104,654.4873,1067.2104,666.4873,1079.2104,654.4873,1091.2104,540.5449,1091.2104,528.5449,1079.2104,540.5449,1067.2104" style="stroke:#181818;stroke-width:0.5;"/><text fill="#000000" font-family="sans-serif" font-size="11" lengthAdjust="spacing" textLength="190.98" x="601.5161" y="1101.4209">Hitchhiker finds the driver suitable</text><text fill="#000000" font-family="sans-serif" font-size="11" lengthAdjust="spacing" textLength="113.9424" x="540.5449" y="1083.0186">Hitchhiker's decision</text><text fill="#000000" font-family="sans-serif" font-size="11" lengthAdjust="spacing" textLength="204.9233" x="666.4873" y="1076.6162">Hitchhiker finds the driver unsuitable</text><rect fill="#F1F1F1" height="33.9688" rx="12.5" ry="12.5" style="stroke:#181818;stroke-width:0.5;" width="257.6387" x="468.6968" y="1122.9209"/><text fill="#000000" font-family="sans-serif" font-size="12" lengthAdjust="spacing" textLength="237.6387" x="478.6968" y="1144.0596">Hitchhiker confirms the driver selection</text><rect fill="#F1F1F1" height="33.9688" rx="12.5" ry="12.5" style="stroke:#181818;stroke-width:0.5;" width="182.3457" x="506.3433" y="1176.8896"/><text fill="#000000" font-family="sans-serif" font-size="12" lengthAdjust="spacing" textLength="162.3457" x="516.3433" y="1198.0283">System contacts the driver</text><rect fill="none" height="203.2344" style="stroke:#000000;stroke-width:1.5;" width="901.9258" x="145.4575" y="1220.8584"/><path d="M327.73,1220.8584 L327.73,1230.1553 L317.73,1240.1553 L145.4575,1240.1553" fill="none" style="stroke:#000000;stroke-width:1.5;"/><text fill="#000000" font-family="sans-serif" font-size="14" lengthAdjust="spacing" textLength="172.2725" x="148.4575" y="1234.8535">Ride request notification</text><rect fill="#F1F1F1" height="33.9688" rx="12.5" ry="12.5" style="stroke:#181818;stroke-width:0.5;" width="407.1348" x="393.9487" y="1260.1553"/><text fill="#000000" font-family="sans-serif" font-size="12" lengthAdjust="spacing" textLength="387.1348" x="403.9487" y="1281.2939">System notifies the driver that a hitchhiker wants to use his ride</text><polygon fill="#F1F1F1" points="551.7947,1314.124,643.2375,1314.124,655.2375,1326.124,643.2375,1338.124,551.7947,1338.124,539.7947,1326.124,551.7947,1314.124" style="stroke:#181818;stroke-width:0.5;"/><text fill="#000000" font-family="sans-serif" font-size="11" lengthAdjust="spacing" textLength="91.4429" x="551.7947" y="1329.9321">Driver's decision</text><text fill="#000000" font-family="sans-serif" font-size="11" lengthAdjust="spacing" textLength="192.8276" x="346.967" y="1323.5298">Driver accepts hitchhiker's request</text><text fill="#000000" font-family="sans-serif" font-size="11" lengthAdjust="spacing" textLength="195.5776" x="655.2375" y="1323.5298">Driver declines hitchhiker's request</text><rect fill="#F1F1F1" height="33.9688" rx="12.5" ry="12.5" style="stroke:#181818;stroke-width:0.5;" width="423.1543" x="165.4575" y="1348.124"/><text fill="#000000" font-family="sans-serif" font-size="12" lengthAdjust="spacing" textLength="403.1543" x="175.4575" y="1369.2627">System notifies the hitchhiker that their ride request was accepted</text><rect fill="#F1F1F1" height="33.9688" rx="12.5" ry="12.5" style="stroke:#181818;stroke-width:0.5;" width="418.7715" x="608.6118" y="1348.124"/><text fill="#000000" font-family="sans-serif" font-size="12" lengthAdjust="spacing" textLength="398.7715" x="618.6118" y="1369.2627">System notifies the hitchhiker that their ride request was declined</text><polygon fill="#F1F1F1" points="597.5161,1388.0928,609.5161,1400.0928,597.5161,1412.0928,585.5161,1400.0928,597.5161,1388.0928" style="stroke:#181818;stroke-width:0.5;"/><polygon fill="#F1F1F1" points="597.5161,518.7188,609.5161,530.7188,597.5161,542.7188,585.5161,530.7188,597.5161,518.7188" style="stroke:#181818;stroke-width:0.5;"/><polygon fill="#F1F1F1" points="551.7947,1444.0928,643.2375,1444.0928,655.2375,1456.0928,643.2375,1468.0928,551.7947,1468.0928,539.7947,1456.0928,551.7947,1444.0928" style="stroke:#181818;stroke-width:0.5;"/><text fill="#000000" font-family="sans-serif" font-size="11" lengthAdjust="spacing" textLength="149.1123" x="601.5161" y="1478.3032">Ride request was accepted</text><text fill="#000000" font-family="sans-serif" font-size="11" lengthAdjust="spacing" textLength="91.4429" x="551.7947" y="1459.9009">Driver's decision</text><text fill="#000000" font-family="sans-serif" font-size="11" lengthAdjust="spacing" textLength="145.0947" x="655.2375" y="1453.4985">Ride request was declined</text><ellipse cx="597.5161" cy="1510.8032" fill="none" rx="11" ry="11" style="stroke:#222222;stroke-width:1;"/><ellipse cx="597.5161" cy="1510.8032" fill="#222222" rx="6" ry="6" style="stroke:#222222;stroke-width:1;"/><line style="stroke:#181818;stroke-width:1;" x1="597.5161" x2="597.5161" y1="30" y2="50"/><polygon fill="#181818" points="593.5161,40,597.5161,50,601.5161,40,597.5161,44" style="stroke:#181818;stroke-width:1;"/><line style="stroke:#181818;stroke-width:1;" x1="597.5161" x2="597.5161" y1="83.9688" y2="133.2656"/><polygon fill="#181818" points="593.5161,123.2656,597.5161,133.2656,601.5161,123.2656,597.5161,127.2656" style="stroke:#181818;stroke-width:1;"/><line style="stroke:#181818;stroke-width:1;" x1="597.5161" x2="597.5161" y1="167.2344" y2="187.2344"/><polygon fill="#181818" points="593.5161,177.2344,597.5161,187.2344,601.5161,177.2344,597.5161,181.2344" style="stroke:#181818;stroke-width:1;"/><line style="stroke:#181818;stroke-width:1;" x1="277.3794" x2="277.3794" y1="334.7813" y2="354.7813"/><polygon fill="#181818" points="273.3794,344.7813,277.3794,354.7813,281.3794,344.7813,277.3794,348.7813" style="stroke:#181818;stroke-width:1;"/><line style="stroke:#181818;stroke-width:1;" x1="938.9868" x2="938.9868" y1="334.7813" y2="354.7813"/><polygon fill="#181818" points="934.9868,344.7813,938.9868,354.7813,942.9868,344.7813,938.9868,348.7813" style="stroke:#181818;stroke-width:1;"/><line style="stroke:#181818;stroke-width:1;" x1="530.4785" x2="277.3794" y1="253.2031" y2="253.2031"/><line style="stroke:#181818;stroke-width:1;" x1="277.3794" x2="277.3794" y1="253.2031" y2="300.8125"/><polygon fill="#181818" points="273.3794,290.8125,277.3794,300.8125,281.3794,290.8125,277.3794,294.8125" style="stroke:#181818;stroke-width:1;"/><text fill="#000000" font-family="sans-serif" font-size="11" lengthAdjust="spacing" textLength="73.6914" x="280.876" y="280.8159">is incomplete</text><line style="stroke:#181818;stroke-width:1;" x1="664.5537" x2="938.9868" y1="253.2031" y2="253.2031"/><line style="stroke:#181818;stroke-width:1;" x1="938.9868" x2="938.9868" y1="253.2031" y2="300.8125"/><polygon fill="#181818" points="934.9868,290.8125,938.9868,300.8125,942.9868,290.8125,938.9868,294.8125" style="stroke:#181818;stroke-width:1;"/><text fill="#000000" font-family="sans-serif" font-size="11" lengthAdjust="spacing" textLength="62.2671" x="942.4834" y="280.8159">is unknown</text><line style="stroke:#181818;stroke-width:1;" x1="597.5161" x2="597.5161" y1="265.2031" y2="277.0729"/><line style="stroke:#181818;stroke-width:1;" x1="597.5161" x2="618.8501" y1="277.0729" y2="277.0729"/><line style="stroke:#181818;stroke-width:1;" x1="618.8501" x2="618.8501" y1="277.0729" y2="300.8125"/><polygon fill="#181818" points="614.8501,290.8125,618.8501,300.8125,622.8501,290.8125,618.8501,294.8125" style="stroke:#181818;stroke-width:1;"/><text fill="#000000" font-family="sans-serif" font-size="11" lengthAdjust="spacing" textLength="38.6289" x="601.0127" y="281.8159">is valid</text><line style="stroke:#181818;stroke-width:1;" x1="277.3794" x2="277.3794" y1="388.75" y2="420.75"/><line style="stroke:#181818;stroke-width:1;" x1="277.3794" x2="585.5161" y1="420.75" y2="420.75"/><polygon fill="#181818" points="575.5161,416.75,585.5161,420.75,575.5161,424.75,579.5161,420.75" style="stroke:#181818;stroke-width:1;"/><line style="stroke:#181818;stroke-width:1;" x1="938.9868" x2="938.9868" y1="388.75" y2="420.75"/><line style="stroke:#181818;stroke-width:1;" x1="938.9868" x2="609.5161" y1="420.75" y2="420.75"/><polygon fill="#181818" points="619.5161,416.75,609.5161,420.75,619.5161,424.75,615.5161,420.75" style="stroke:#181818;stroke-width:1;"/><line style="stroke:#181818;stroke-width:1;" x1="618.8501" x2="618.8501" y1="334.7813" y2="393.75"/><line style="stroke:#181818;stroke-width:1;" x1="618.8501" x2="597.5161" y1="393.75" y2="393.75"/><line style="stroke:#181818;stroke-width:1;" x1="597.5161" x2="597.5161" y1="393.75" y2="408.75"/><polygon fill="#181818" points="593.5161,398.75,597.5161,408.75,601.5161,398.75,597.5161,402.75" style="stroke:#181818;stroke-width:1;"/><line style="stroke:#181818;stroke-width:1;" x1="597.5161" x2="597.5161" y1="221.2031" y2="241.2031"/><polygon fill="#181818" points="593.5161,231.2031,597.5161,241.2031,601.5161,231.2031,597.5161,235.2031" style="stroke:#181818;stroke-width:1;"/><line style="stroke:#181818;stroke-width:1;" x1="597.5161" x2="597.5161" y1="432.75" y2="452.75"/><polygon fill="#181818" points="593.5161,442.75,597.5161,452.75,601.5161,442.75,597.5161,446.75" style="stroke:#181818;stroke-width:1;"/><line style="stroke:#181818;stroke-width:1;" x1="597.5161" x2="597.5161" y1="586.7188" y2="636.0156"/><polygon fill="#181818" points="593.5161,626.0156,597.5161,636.0156,601.5161,626.0156,597.5161,630.0156" style="stroke:#181818;stroke-width:1;"/><line style="stroke:#181818;stroke-width:1;" x1="238.4395" x2="238.4395" y1="827.5625" y2="847.5625"/><polygon fill="#181818" points="234.4395,837.5625,238.4395,847.5625,242.4395,837.5625,238.4395,841.5625" style="stroke:#181818;stroke-width:1;"/><line style="stroke:#181818;stroke-width:1;" x1="626.5508" x2="626.5508" y1="827.5625" y2="847.5625"/><polygon fill="#181818" points="622.5508,837.5625,626.5508,847.5625,630.5508,837.5625,626.5508,841.5625" style="stroke:#181818;stroke-width:1;"/><line style="stroke:#181818;stroke-width:1;" x1="534.2866" x2="238.4395" y1="745.9844" y2="745.9844"/><line style="stroke:#181818;stroke-width:1;" x1="238.4395" x2="238.4395" y1="745.9844" y2="793.5938"/><polygon fill="#181818" points="234.4395,783.5938,238.4395,793.5938,242.4395,783.5938,238.4395,787.5938" style="stroke:#181818;stroke-width:1;"/><text fill="#000000" font-family="sans-serif" font-size="11" lengthAdjust="spacing" textLength="195.6743" x="238.4395" y="773.5972">Hitchhiker selects the 'Filter' option</text><line style="stroke:#181818;stroke-width:1;" x1="660.7456" x2="987.6177" y1="745.9844" y2="745.9844"/><line style="stroke:#181818;stroke-width:1;" x1="987.6177" x2="987.6177" y1="745.9844" y2="793.5938"/><polygon fill="#181818" points="983.6177,783.5938,987.6177,793.5938,991.6177,783.5938,987.6177,787.5938" style="stroke:#181818;stroke-width:1;"/><text fill="#000000" font-family="sans-serif" font-size="11" lengthAdjust="spacing" textLength="186.4146" x="987.6177" y="773.5972">Hitchhiker is satisfied with the list</text><line style="stroke:#181818;stroke-width:1;" x1="597.5161" x2="597.5161" y1="757.9844" y2="769.8542"/><line style="stroke:#181818;stroke-width:1;" x1="597.5161" x2="626.5508" y1="769.8542" y2="769.8542"/><line style="stroke:#181818;stroke-width:1;" x1="626.5508" x2="626.5508" y1="769.8542" y2="793.5938"/><polygon fill="#181818" points="622.5508,783.5938,626.5508,793.5938,630.5508,783.5938,626.5508,787.5938" style="stroke:#181818;stroke-width:1;"/><text fill="#000000" font-family="sans-serif" font-size="11" lengthAdjust="spacing" textLength="205.6646" x="597.5161" y="774.5972">Hitchhiker selects the 'Search' option</text><line style="stroke:#181818;stroke-width:1;" x1="238.4395" x2="238.4395" y1="881.5313" y2="913.5313"/><line style="stroke:#181818;stroke-width:1;" x1="238.4395" x2="585.5161" y1="913.5313" y2="913.5313"/><polygon fill="#181818" points="575.5161,909.5313,585.5161,913.5313,575.5161,917.5313,579.5161,913.5313" style="stroke:#181818;stroke-width:1;"/><line style="stroke:#181818;stroke-width:1;" x1="987.6177" x2="987.6177" y1="827.5625" y2="913.5313"/><line style="stroke:#181818;stroke-width:1;" x1="987.6177" x2="609.5161" y1="913.5313" y2="913.5313"/><polygon fill="#181818" points="619.5161,909.5313,609.5161,913.5313,619.5161,917.5313,615.5161,913.5313" style="stroke:#181818;stroke-width:1;"/><line style="stroke:#181818;stroke-width:1;" x1="626.5508" x2="626.5508" y1="881.5313" y2="886.5313"/><line style="stroke:#181818;stroke-width:1;" x1="626.5508" x2="597.5161" y1="886.5313" y2="886.5313"/><line style="stroke:#181818;stroke-width:1;" x1="597.5161" x2="597.5161" y1="886.5313" y2="901.5313"/><polygon fill="#181818" points="593.5161,891.5313,597.5161,901.5313,601.5161,891.5313,597.5161,895.5313" style="stroke:#181818;stroke-width:1;"/><line style="stroke:#181818;stroke-width:1;" x1="597.5161" x2="597.5161" y1="713.9844" y2="733.9844"/><polygon fill="#181818" points="593.5161,723.9844,597.5161,733.9844,601.5161,723.9844,597.5161,727.9844" style="stroke:#181818;stroke-width:1;"/><line style="stroke:#181818;stroke-width:1;" x1="666.4873" x2="1186.0322" y1="957.5313" y2="957.5313"/><polygon fill="#181818" points="1182.0322,877.2578,1186.0322,867.2578,1190.0322,877.2578,1186.0322,873.2578" style="stroke:#181818;stroke-width:1;"/><line style="stroke:#181818;stroke-width:1;" x1="1186.0322" x2="1186.0322" y1="701.9844" y2="957.5313"/><line style="stroke:#181818;stroke-width:1;" x1="1186.0322" x2="609.5161" y1="701.9844" y2="701.9844"/><polygon fill="#181818" points="619.5161,697.9844,609.5161,701.9844,619.5161,705.9844,615.5161,701.9844" style="stroke:#181818;stroke-width:1;"/><line style="stroke:#181818;stroke-width:1;" x1="597.5161" x2="597.5161" y1="925.5313" y2="945.5313"/><polygon fill="#181818" points="593.5161,935.5313,597.5161,945.5313,601.5161,935.5313,597.5161,939.5313" style="stroke:#181818;stroke-width:1;"/><line style="stroke:#181818;stroke-width:1;" x1="597.5161" x2="597.5161" y1="669.9844" y2="689.9844"/><polygon fill="#181818" points="593.5161,679.9844,597.5161,689.9844,601.5161,679.9844,597.5161,683.9844" style="stroke:#181818;stroke-width:1;"/><line style="stroke:#181818;stroke-width:1;" x1="597.5161" x2="597.5161" y1="969.5313" y2="1001.2417"/><polygon fill="#181818" points="593.5161,991.2417,597.5161,1001.2417,601.5161,991.2417,597.5161,995.2417" style="stroke:#181818;stroke-width:1;"/><line style="stroke:#181818;stroke-width:1;" x1="666.4873" x2="1214.0322" y1="1079.2104" y2="1079.2104"/><polygon fill="#181818" points="1210.0322,851.6094,1214.0322,841.6094,1218.0322,851.6094,1214.0322,847.6094" style="stroke:#181818;stroke-width:1;"/><line style="stroke:#181818;stroke-width:1;" x1="1214.0322" x2="1214.0322" y1="574.7188" y2="1079.2104"/><line style="stroke:#181818;stroke-width:1;" x1="1214.0322" x2="609.5161" y1="574.7188" y2="574.7188"/><polygon fill="#181818" points="619.5161,570.7188,609.5161,574.7188,619.5161,578.7188,615.5161,574.7188" style="stroke:#181818;stroke-width:1;"/><line style="stroke:#181818;stroke-width:1;" x1="597.5161" x2="597.5161" y1="1035.2104" y2="1067.2104"/><polygon fill="#181818" points="593.5161,1057.2104,597.5161,1067.2104,601.5161,1057.2104,597.5161,1061.2104" style="stroke:#181818;stroke-width:1;"/><line style="stroke:#181818;stroke-width:1;" x1="597.5161" x2="597.5161" y1="1091.2104" y2="1122.9209"/><polygon fill="#181818" points="593.5161,1112.9209,597.5161,1122.9209,601.5161,1112.9209,597.5161,1116.9209" style="stroke:#181818;stroke-width:1;"/><line style="stroke:#181818;stroke-width:1;" x1="597.5161" x2="597.5161" y1="1156.8896" y2="1176.8896"/><polygon fill="#181818" points="593.5161,1166.8896,597.5161,1176.8896,601.5161,1166.8896,597.5161,1170.8896" style="stroke:#181818;stroke-width:1;"/><line style="stroke:#181818;stroke-width:1;" x1="597.5161" x2="597.5161" y1="1210.8584" y2="1260.1553"/><polygon fill="#181818" points="593.5161,1250.1553,597.5161,1260.1553,601.5161,1250.1553,597.5161,1254.1553" style="stroke:#181818;stroke-width:1;"/><line style="stroke:#181818;stroke-width:1;" x1="539.7947" x2="377.0347" y1="1326.124" y2="1326.124"/><line style="stroke:#181818;stroke-width:1;" x1="377.0347" x2="377.0347" y1="1326.124" y2="1348.124"/><polygon fill="#181818" points="373.0347,1338.124,377.0347,1348.124,381.0347,1338.124,377.0347,1342.124" style="stroke:#181818;stroke-width:1;"/><line style="stroke:#181818;stroke-width:1;" x1="655.2375" x2="817.9976" y1="1326.124" y2="1326.124"/><line style="stroke:#181818;stroke-width:1;" x1="817.9976" x2="817.9976" y1="1326.124" y2="1348.124"/><polygon fill="#181818" points="813.9976,1338.124,817.9976,1348.124,821.9976,1338.124,817.9976,1342.124" style="stroke:#181818;stroke-width:1;"/><line style="stroke:#181818;stroke-width:1;" x1="377.0347" x2="377.0347" y1="1382.0928" y2="1400.0928"/><line style="stroke:#181818;stroke-width:1;" x1="377.0347" x2="585.5161" y1="1400.0928" y2="1400.0928"/><polygon fill="#181818" points="575.5161,1396.0928,585.5161,1400.0928,575.5161,1404.0928,579.5161,1400.0928" style="stroke:#181818;stroke-width:1;"/><line style="stroke:#181818;stroke-width:1;" x1="817.9976" x2="817.9976" y1="1382.0928" y2="1400.0928"/><line style="stroke:#181818;stroke-width:1;" x1="817.9976" x2="609.5161" y1="1400.0928" y2="1400.0928"/><polygon fill="#181818" points="619.5161,1396.0928,609.5161,1400.0928,619.5161,1404.0928,615.5161,1400.0928" style="stroke:#181818;stroke-width:1;"/><line style="stroke:#181818;stroke-width:1;" x1="597.5161" x2="597.5161" y1="1294.124" y2="1314.124"/><polygon fill="#181818" points="593.5161,1304.124,597.5161,1314.124,601.5161,1304.124,597.5161,1308.124" style="stroke:#181818;stroke-width:1;"/><line style="stroke:#181818;stroke-width:1;" x1="597.5161" x2="597.5161" y1="542.7188" y2="562.7188"/><polygon fill="#181818" points="593.5161,552.7188,597.5161,562.7188,601.5161,552.7188,597.5161,556.7188" style="stroke:#181818;stroke-width:1;"/><line style="stroke:#181818;stroke-width:1;" x1="655.2375" x2="1232.0322" y1="1456.0928" y2="1456.0928"/><polygon fill="#181818" points="1228.0322,949.1953,1232.0322,939.1953,1236.0322,949.1953,1232.0322,945.1953" style="stroke:#181818;stroke-width:1;"/><line style="stroke:#181818;stroke-width:1;" x1="1232.0322" x2="1232.0322" y1="530.7188" y2="1456.0928"/><line style="stroke:#181818;stroke-width:1;" x1="1232.0322" x2="609.5161" y1="530.7188" y2="530.7188"/><polygon fill="#181818" points="619.5161,526.7188,609.5161,530.7188,619.5161,534.7188,615.5161,530.7188" style="stroke:#181818;stroke-width:1;"/><line style="stroke:#181818;stroke-width:1;" x1="597.5161" x2="597.5161" y1="1412.0928" y2="1444.0928"/><polygon fill="#181818" points="593.5161,1434.0928,597.5161,1444.0928,601.5161,1434.0928,597.5161,1438.0928" style="stroke:#181818;stroke-width:1;"/><line style="stroke:#181818;stroke-width:1;" x1="597.5161" x2="597.5161" y1="486.7188" y2="518.7188"/><polygon fill="#181818" points="593.5161,508.7188,597.5161,518.7188,601.5161,508.7188,597.5161,512.7188" style="stroke:#181818;stroke-width:1;"/><line style="stroke:#181818;stroke-width:1;" x1="597.5161" x2="597.5161" y1="1468.0928" y2="1499.8032"/><polygon fill="#181818" points="593.5161,1489.8032,597.5161,1499.8032,601.5161,1489.8032,597.5161,1493.8032" style="stroke:#181818;stroke-width:1;"/><!--SRC=[jLRBRkCm3BpxAuXUslp2vbeiUcu_851iEYOYIrvHJXei-kzBILOivr441TQ788cfqGmr79kzShxwzKQ-xZhQemEZ3hHJ7Xcy1TyXsC6JDU5NIwO1TL2arLOZE6fmNGq2GB7YwGCzDCYUZ0f_F070tqe-GEfH0wFV5BVZdLyV9_RO0tVso66x7XJqQe0Z-Kw-CYfNTx2rdw1ay-xCyvb1spe2hHDIeQ5M9gzihHCOsPOSDYMxAC-fWn2JRo- -StRSTUM6id8W0r8gX5Pf5pw6NU3bjG1IJUEGUHKBmbKhHdW1OY1JstxGw76-kvISFXKCJWfze99NnEPFsEjvzONCxwjd9WUbgLdTXh6c9TV7zfFyx2oZALjr2syqUsEFvfui1PhOWsrXqAeMCyNpPEh5Ey5ZFNwZQQ1wlpYgLfeJ1GRGj0vDayvYOQEpb78reyOwwVYg70weV5nKV0rNOUHNOg5zWiRHGJY5NSdiPZ_dA_cwITMRLBsPgXU5DssUEsJ4SjjJzFSyN0cCOMS5AsfdQHeSrMczGBuGaQ_iqxToO5JimkggU3xPuY1Iro9PUFvDsWl4b0Mt4Ivr9drAQnWiCysY94S2Mj2Ly7Xz7x1aD61DBM4swk2mHOScs6latAO9ChOpss7z0yaVCGWUbpov85ZVuwS_HvQ2FPwsLhdcCPLeV3XtDJLBZYrCImY6ET4Ur2DZoZ82B3rhqW3c6LezH6LdOwzJCEQbmR6JEQzfBATowL4uTgJnmfAD72c7_WQooxC8OcN_4E2zTUU9M86nVb4gWIM9nHBK6CW5edbw9BvlIruEPC97ByCddT_QqSTbEGaZs2psg_gfgF00vOAWf2YFvCF0NykwAZwNLjyb-BbwJhsBXFGgcxnKLiJVkppOHT-VKK8qq9AXgo-Uw7FwXRU0pLIyAOkldWpf9YvO-avwg8hdkYISyV7TOnGtTzB0z9gHmQYLXs-UZBdH0cdo3Scv6WS1MRmjJ1Hlss11hI0JwQMqSMLJZegdNR0OQzHX02SImasJmV_DOjgcP64QQgjarAL9R_Gj6FJz7kRaoVTxobSLUply0m00]--></g></svg>