<svg xmlns="http://www.w3.org/2000/svg" xmlns:xlink="http://www.w3.org/1999/xlink" contentStyleType="text/css" data-diagram-type="STATE" height="174px" preserveAspectRatio="none" style="width:1320px;height:174px;background:#FFFFFF;" version="1.1" viewBox="0 0 1320 174" width="1320px" zoomAndPan="magnify"><defs/><g><rect fill="#F1F1F1" height="40" rx="12.5" ry="12.5" style="stroke:#181818;stroke-width:0.5;" width="108.9236" x="171.54" y="9.309"/><text fill="#000000" font-family="sans-serif" font-size="14" lengthAdjust="spacing" textLength="98.9236" x="176.54" y="34.741">Tracking driver</text><rect fill="#F1F1F1" height="40" rx="12.5" ry="12.5" style="stroke:#181818;stroke-width:0.5;" width="145.1275" x="291.44" y="128.309"/><text fill="#000000" font-family="sans-serif" font-size="14" lengthAdjust="spacing" textLength="135.1275" x="296.44" y="153.741">Location unavailable</text><rect fill="#F1F1F1" height="40" rx="12.5" ry="12.5" style="stroke:#181818;stroke-width:0.5;" width="286.4709" x="471.76" y="9.309"/><text fill="#000000" font-family="sans-serif" font-size="14" lengthAdjust="spacing" textLength="276.4709" x="476.76" y="34.741">Waiting for notification acknowledgement</text><rect fill="#F1F1F1" height="40" rx="12.5" ry="12.5" style="stroke:#181818;stroke-width:0.5;" width="332.0967" x="981.95" y="9.309"/><text fill="#000000" font-family="sans-serif" font-size="14" lengthAdjust="spacing" textLength="322.0967" x="986.95" y="34.741">Waiting for resent notification acknowledgement</text><ellipse cx="16" cy="29.309" fill="#222222" rx="10" ry="10" style="stroke:#222222;stroke-width:1;"/><ellipse cx="615" cy="148.309" fill="none" rx="11" ry="11" style="stroke:#222222;stroke-width:1;"/><ellipse cx="615" cy="148.309" fill="#222222" rx="6" ry="6" style="stroke:#222222;stroke-width:1;"/><!--link *start* to Tracking--><g class="link" data-entity-1="*start*" data-entity-2="Tracking" data-source-line="7" data-uid="lnk3" id="link_*start*_Tracking"><path d="M26.41,29.309 C52.4,29.309 115.58,29.309 165.2,29.309" fill="none" id="*start*-to-Tracking" style="stroke:#181818;stroke-width:1;"/><polygon fill="#181818" points="171.2,29.309,162.2,25.309,166.2,29.309,162.2,33.309,171.2,29.309" style="stroke:#181818;stroke-width:1;"/><text fill="#000000" font-family="sans-serif" font-size="13" lengthAdjust="spacing" textLength="109.4081" x="44.27" y="22.206">Location available</text></g><!--link Tracking to NotifyWait--><g class="link" data-entity-1="Tracking" data-entity-2="NotifyWait" data-source-line="8" data-uid="lnk4" id="link_Tracking_NotifyWait"><path d="M280.91,29.309 C330.33,29.309 399.18,29.309 465.51,29.309" fill="none" id="Tracking-to-NotifyWait" style="stroke:#181818;stroke-width:1;"/><polygon fill="#181818" points="471.51,29.309,462.51,25.309,466.51,29.309,462.51,33.309,471.51,29.309" style="stroke:#181818;stroke-width:1;"/><text fill="#000000" font-family="sans-serif" font-size="13" lengthAdjust="spacing" textLength="155.5841" x="298.61" y="22.206">Meeting location reached</text></g><!--link NotifyWait to *end*--><g class="link" data-entity-1="NotifyWait" data-entity-2="*end*" data-source-line="9" data-uid="lnk6" id="link_NotifyWait_*end*"><path d="M615,49.629 C615,74.679 615,111.479 615,131.029" fill="none" id="NotifyWait-to-*end*" style="stroke:#181818;stroke-width:1;"/><polygon fill="#181818" points="615,137.029,619,128.029,615,132.029,611,128.029,615,137.029" style="stroke:#181818;stroke-width:1;"/><text fill="#000000" font-family="sans-serif" font-size="13" lengthAdjust="spacing" textLength="163.0721" x="616" y="94.206">Notification acknowledged</text></g><!--link NotifyWait to NotifyWaitResent--><g class="link" data-entity-1="NotifyWait" data-entity-2="NotifyWaitResent" data-source-line="10" data-uid="lnk7" id="link_NotifyWait_NotifyWaitResent"><path d="M758.54,29.309 C827.29,29.309 904.04,29.309 975.54,29.309" fill="none" id="NotifyWait-to-NotifyWaitResent" style="stroke:#181818;stroke-width:1;"/><polygon fill="#181818" points="981.54,29.309,972.54,25.309,976.54,29.309,972.54,33.309,981.54,29.309" style="stroke:#181818;stroke-width:1;"/><text fill="#000000" font-family="sans-serif" font-size="13" lengthAdjust="spacing" textLength="187.0442" x="776.59" y="22.206">Notification not acknowledged</text></g><!--link NotifyWaitResent to *end*--><g class="link" data-entity-1="NotifyWaitResent" data-entity-2="*end*" data-source-line="12" data-uid="lnk8" id="link_NotifyWaitResent_*end*"><path d="M1059.39,49.759 C925,79.259 685.3905,131.8525 631.5005,143.6825" fill="none" id="NotifyWaitResent-to-*end*" style="stroke:#181818;stroke-width:1;"/><polygon fill="#181818" points="625.64,144.969,635.2883,146.9462,630.5237,143.8969,633.573,139.1323,625.64,144.969" style="stroke:#181818;stroke-width:1;"/></g><!--link *start* to NoLocation--><g class="link" data-entity-1="*start*" data-entity-2="NoLocation" data-source-line="13" data-uid="lnk9" id="link_*start*_NoLocation"><path d="M25.31,33.439 C64.76,46.699 214.4027,97.0172 300.3427,125.9072" fill="none" id="*start*-to-NoLocation" style="stroke:#181818;stroke-width:1;"/><polygon fill="#181818" points="306.03,127.819,298.7737,121.1597,301.2906,126.2258,296.2246,128.7427,306.03,127.819" style="stroke:#181818;stroke-width:1;"/><text fill="#000000" font-family="sans-serif" font-size="13" lengthAdjust="spacing" textLength="125.4761" x="211.84" y="94.206">Location unavailable</text></g><!--link NoLocation to *end*--><g class="link" data-entity-1="NoLocation" data-entity-2="*end*" data-source-line="14" data-uid="lnk10" id="link_NoLocation_*end*"><path d="M437.04,148.309 C492.54,148.309 542.04,148.309 597.53,148.309" fill="none" id="NoLocation-to-*end*" style="stroke:#181818;stroke-width:1;"/><polygon fill="#181818" points="603.53,148.309,594.53,144.309,598.53,148.309,594.53,152.309,603.53,148.309" style="stroke:#181818;stroke-width:1;"/></g><!--SRC=[bP513e8m44NtFSM4fGaNOE49r8KnSM5SZ7I0YT2IKZ7Utb9iHM3ZjlFUd_bfnPA0cjQ-G5AN6sujQoKwYvOWEHdCxwnAa8PxCWbW1-4jC3kTu-30Gs6FNEEj9WyUT1W5z8niXxH26r3QSi4VrIKg_Qn9bjIGiX_T0Qz1MTCDTGxy9-Ne3I4kcoka9jt68f11x10RY3Zrx3V6qNiYVqSTB4EOLoJ5XFBMi2eRtPKRb_pysBdislu6Y8MHZcl7bj9dndAJdfE_4XCYNFq6]--></g></svg>