<svg xmlns="http://www.w3.org/2000/svg" xmlns:xlink="http://www.w3.org/1999/xlink" contentStyleType="text/css" data-diagram-type="ACTIVITY" height="789px" preserveAspectRatio="none" style="width:630px;height:789px;background:#FFFFFF;" version="1.1" viewBox="0 0 630 789" width="630px" zoomAndPan="magnify"><defs/><g><ellipse cx="301.6201" cy="20" fill="#222222" rx="10" ry="10" style="stroke:#222222;stroke-width:1;"/><rect fill="#F1F1F1" height="33.9688" rx="12.5" ry="12.5" style="stroke:#181818;stroke-width:0.5;" width="360.9102" x="121.165" y="94"/><text fill="#000000" font-family="sans-serif" font-size="12" lengthAdjust="spacing" textLength="340.9102" x="131.165" y="115.1387">System shows the fastest path to the drivers destination</text><rect fill="#F1F1F1" height="33.9688" rx="12.5" ry="12.5" style="stroke:#181818;stroke-width:0.5;" width="448.9355" x="77.1523" y="147.9688"/><text fill="#000000" font-family="sans-serif" font-size="12" lengthAdjust="spacing" textLength="428.9355" x="87.1523" y="169.1074">System notifies driver, that a hitchiker in the area wants to use his ride</text><polygon fill="#F1F1F1" points="285.4397,201.9375,317.8005,201.9375,329.8005,213.9375,317.8005,225.9375,285.4397,225.9375,273.4397,213.9375,285.4397,201.9375" style="stroke:#181818;stroke-width:0.5;"/><text fill="#000000" font-family="sans-serif" font-size="11" lengthAdjust="spacing" textLength="32.3608" x="285.4397" y="217.7456">driver</text><rect fill="#F1F1F1" height="33.9688" rx="12.5" ry="12.5" style="stroke:#181818;stroke-width:0.5;" width="308.3574" x="96.9836" y="261.5469"/><text fill="#000000" font-family="sans-serif" font-size="12" lengthAdjust="spacing" textLength="288.3574" x="106.9836" y="282.6855">System shows the fastest path to the hitchhiker</text><rect fill="#F1F1F1" height="33.9688" rx="12.5" ry="12.5" style="stroke:#181818;stroke-width:0.5;" width="200.5977" x="150.8635" y="315.5156"/><text fill="#000000" font-family="sans-serif" font-size="12" lengthAdjust="spacing" textLength="180.5977" x="160.8635" y="336.6543">Driver drives to the hitchhiker</text><polygon fill="#F1F1F1" points="234.9819,369.4844,267.3428,369.4844,279.3428,381.4844,267.3428,393.4844,234.9819,393.4844,222.9819,381.4844,234.9819,369.4844" style="stroke:#181818;stroke-width:0.5;"/><text fill="#000000" font-family="sans-serif" font-size="11" lengthAdjust="spacing" textLength="32.3608" x="234.9819" y="385.2925">driver</text><rect fill="#F1F1F1" height="33.9688" rx="12.5" ry="12.5" style="stroke:#181818;stroke-width:0.5;" width="197.9023" x="95.0879" y="429.0938"/><text fill="#000000" font-family="sans-serif" font-size="12" lengthAdjust="spacing" textLength="177.9023" x="105.0879" y="450.2324">Driver picks up the hitchhiker</text><rect fill="#F1F1F1" height="33.9688" rx="12.5" ry="12.5" style="stroke:#181818;stroke-width:0.5;" width="341.7266" x="23.1758" y="483.0625"/><text fill="#000000" font-family="sans-serif" font-size="12" lengthAdjust="spacing" textLength="321.7266" x="33.1758" y="504.2012">Driver drives the hitchiker closer to theirs destination</text><rect fill="#F1F1F1" height="33.9688" rx="12.5" ry="12.5" style="stroke:#181818;stroke-width:0.5;" width="366.0781" x="11" y="537.0313"/><text fill="#000000" font-family="sans-serif" font-size="12" lengthAdjust="spacing" textLength="346.0781" x="21" y="558.1699">Driver drops off the hitchhiker closer to theirs destination</text><polygon fill="#F1F1F1" points="251.1624,581,251.1624,581,263.1624,593,251.1624,605,251.1624,605,239.1624,593,251.1624,581" style="stroke:#181818;stroke-width:0.5;"/><polygon fill="#F1F1F1" points="301.6201,615,301.6201,615,313.6201,627,301.6201,639,301.6201,639,289.6201,627,301.6201,615" style="stroke:#181818;stroke-width:0.5;"/><polygon fill="#F1F1F1" points="301.6201,50,313.6201,62,301.6201,74,289.6201,62,301.6201,50" style="stroke:#181818;stroke-width:0.5;"/><polygon fill="#F1F1F1" points="301.6201,659,301.6201,659,313.6201,671,301.6201,683,301.6201,683,289.6201,671,301.6201,659" style="stroke:#181818;stroke-width:0.5;"/><rect fill="#F1F1F1" height="33.9688" rx="12.5" ry="12.5" style="stroke:#181818;stroke-width:0.5;" width="291.1367" x="156.0518" y="703"/><text fill="#000000" font-family="sans-serif" font-size="12" lengthAdjust="spacing" textLength="271.1367" x="166.0518" y="724.1387">Driver drives and finishes in their destination</text><ellipse cx="301.6201" cy="767.9688" fill="none" rx="11" ry="11" style="stroke:#222222;stroke-width:1;"/><ellipse cx="301.6201" cy="767.9688" fill="#222222" rx="6" ry="6" style="stroke:#222222;stroke-width:1;"/><line style="stroke:#181818;stroke-width:1;" x1="301.6201" x2="301.6201" y1="127.9688" y2="147.9688"/><polygon fill="#181818" points="297.6201,137.9688,301.6201,147.9688,305.6201,137.9688,301.6201,141.9688" style="stroke:#181818;stroke-width:1;"/><line style="stroke:#181818;stroke-width:1;" x1="251.1624" x2="251.1624" y1="295.5156" y2="315.5156"/><polygon fill="#181818" points="247.1624,305.5156,251.1624,315.5156,255.1624,305.5156,251.1624,309.5156" style="stroke:#181818;stroke-width:1;"/><line style="stroke:#181818;stroke-width:1;" x1="194.0391" x2="194.0391" y1="463.0625" y2="483.0625"/><polygon fill="#181818" points="190.0391,473.0625,194.0391,483.0625,198.0391,473.0625,194.0391,477.0625" style="stroke:#181818;stroke-width:1;"/><line style="stroke:#181818;stroke-width:1;" x1="194.0391" x2="194.0391" y1="517.0313" y2="537.0313"/><polygon fill="#181818" points="190.0391,527.0313,194.0391,537.0313,198.0391,527.0313,194.0391,531.0313" style="stroke:#181818;stroke-width:1;"/><line style="stroke:#181818;stroke-width:1;" x1="222.9819" x2="194.0391" y1="381.4844" y2="381.4844"/><line style="stroke:#181818;stroke-width:1;" x1="194.0391" x2="194.0391" y1="381.4844" y2="429.0938"/><polygon fill="#181818" points="190.0391,419.0938,194.0391,429.0938,198.0391,419.0938,194.0391,423.0938" style="stroke:#181818;stroke-width:1;"/><text fill="#000000" font-family="sans-serif" font-size="11" lengthAdjust="spacing" textLength="128.2026" x="194.0391" y="409.0972">drives to the hitchhiker</text><line style="stroke:#181818;stroke-width:1;" x1="279.3428" x2="397.0781" y1="381.4844" y2="381.4844"/><line style="stroke:#181818;stroke-width:1;" x1="397.0781" x2="397.0781" y1="381.4844" y2="593"/><line style="stroke:#181818;stroke-width:1;" x1="397.0781" x2="263.1624" y1="593" y2="593"/><polygon fill="#181818" points="273.1624,589,263.1624,593,273.1624,597,269.1624,593" style="stroke:#181818;stroke-width:1;"/><text fill="#000000" font-family="sans-serif" font-size="11" lengthAdjust="spacing" textLength="94.2466" x="401.0781" y="385.2925">cancels the drive</text><line style="stroke:#181818;stroke-width:1;" x1="194.0391" x2="194.0391" y1="571" y2="593"/><line style="stroke:#181818;stroke-width:1;" x1="194.0391" x2="239.1624" y1="593" y2="593"/><polygon fill="#181818" points="229.1624,589,239.1624,593,229.1624,597,233.1624,593" style="stroke:#181818;stroke-width:1;"/><line style="stroke:#181818;stroke-width:1;" x1="251.1624" x2="251.1624" y1="349.4844" y2="369.4844"/><polygon fill="#181818" points="247.1624,359.4844,251.1624,369.4844,255.1624,359.4844,251.1624,363.4844" style="stroke:#181818;stroke-width:1;"/><line style="stroke:#181818;stroke-width:1;" x1="273.4397" x2="251.1624" y1="213.9375" y2="213.9375"/><line style="stroke:#181818;stroke-width:1;" x1="251.1624" x2="251.1624" y1="213.9375" y2="261.5469"/><polygon fill="#181818" points="247.1624,251.5469,251.1624,261.5469,255.1624,251.5469,251.1624,255.5469" style="stroke:#181818;stroke-width:1;"/><text fill="#000000" font-family="sans-serif" font-size="11" lengthAdjust="spacing" textLength="42.6304" x="251.1624" y="241.5503">accepts</text><line style="stroke:#181818;stroke-width:1;" x1="329.8005" x2="511.3247" y1="213.9375" y2="213.9375"/><line style="stroke:#181818;stroke-width:1;" x1="511.3247" x2="511.3247" y1="213.9375" y2="627"/><line style="stroke:#181818;stroke-width:1;" x1="511.3247" x2="313.6201" y1="627" y2="627"/><polygon fill="#181818" points="323.6201,623,313.6201,627,323.6201,631,319.6201,627" style="stroke:#181818;stroke-width:1;"/><text fill="#000000" font-family="sans-serif" font-size="11" lengthAdjust="spacing" textLength="80.9155" x="515.3247" y="217.7456">doesn't accept</text><line style="stroke:#181818;stroke-width:1;" x1="251.1624" x2="251.1624" y1="605" y2="627"/><line style="stroke:#181818;stroke-width:1;" x1="251.1624" x2="289.6201" y1="627" y2="627"/><polygon fill="#181818" points="279.6201,623,289.6201,627,279.6201,631,283.6201,627" style="stroke:#181818;stroke-width:1;"/><line style="stroke:#181818;stroke-width:1;" x1="301.6201" x2="301.6201" y1="181.9375" y2="201.9375"/><polygon fill="#181818" points="297.6201,191.9375,301.6201,201.9375,305.6201,191.9375,301.6201,195.9375" style="stroke:#181818;stroke-width:1;"/><line style="stroke:#181818;stroke-width:1;" x1="301.6201" x2="301.6201" y1="74" y2="94"/><polygon fill="#181818" points="297.6201,84,301.6201,94,305.6201,84,301.6201,88" style="stroke:#181818;stroke-width:1;"/><line style="stroke:#181818;stroke-width:1;" x1="313.6201" x2="604.2402" y1="671" y2="671"/><polygon fill="#181818" points="600.2402,461.5,604.2402,451.5,608.2402,461.5,604.2402,457.5" style="stroke:#181818;stroke-width:1;"/><line style="stroke:#181818;stroke-width:1;" x1="604.2402" x2="604.2402" y1="62" y2="671"/><line style="stroke:#181818;stroke-width:1;" x1="604.2402" x2="313.6201" y1="62" y2="62"/><polygon fill="#181818" points="323.6201,58,313.6201,62,323.6201,66,319.6201,62" style="stroke:#181818;stroke-width:1;"/><line style="stroke:#181818;stroke-width:1;" x1="301.6201" x2="301.6201" y1="639" y2="659"/><polygon fill="#181818" points="297.6201,649,301.6201,659,305.6201,649,301.6201,653" style="stroke:#181818;stroke-width:1;"/><line style="stroke:#181818;stroke-width:1;" x1="301.6201" x2="301.6201" y1="30" y2="50"/><polygon fill="#181818" points="297.6201,40,301.6201,50,305.6201,40,301.6201,44" style="stroke:#181818;stroke-width:1;"/><line style="stroke:#181818;stroke-width:1;" x1="301.6201" x2="301.6201" y1="683" y2="703"/><polygon fill="#181818" points="297.6201,693,301.6201,703,305.6201,693,301.6201,697" style="stroke:#181818;stroke-width:1;"/><line style="stroke:#181818;stroke-width:1;" x1="301.6201" x2="301.6201" y1="736.9688" y2="756.9688"/><polygon fill="#181818" points="297.6201,746.9688,301.6201,756.9688,305.6201,746.9688,301.6201,750.9688" style="stroke:#181818;stroke-width:1;"/><!--SRC=[ZL9BRWCX3Drp2k-QaNg2PfiRz0GMU8ILAI2Uqr5lNmBfD4rJfIi4VduV6nXNSrMAiBcNrm-Ol15YNa4MXMPk3p0gR94izxTGzLqgABI29ZRDQR-rfcmwg-22UcuTRCGKrNpKerJIr5cu2jFAoN3cFK4Q15GroDvXFQDtWs9odY4xzbwAOVgdoQxN1PktGoSQbd0FSK_mB_IqyHNrHz2fF1JyAlVyViben-3LNtFSMdC1vNc-8N_GtfrxJbuMV2zhSfB2o7Z9bWNfgUsb3_MwF7u2hL4NkSt1AT2iIH7RPQnHwqzzM2wV]--></g></svg>