<svg xmlns="http://www.w3.org/2000/svg" xmlns:xlink="http://www.w3.org/1999/xlink" contentStyleType="text/css" data-diagram-type="STATE" height="293px" preserveAspectRatio="none" style="width:756px;height:293px;background:#FFFFFF;" version="1.1" viewBox="0 0 756 293" width="756px" zoomAndPan="magnify"><defs/><g><rect fill="#F1F1F1" height="40" rx="12.5" ry="12.5" style="stroke:#181818;stroke-width:0.5;" width="219.1592" x="61.42" y="9.309"/><text fill="#000000" font-family="sans-serif" font-size="14" lengthAdjust="spacing" textLength="209.1592" x="66.42" y="34.741">Displaying map with search box</text><rect fill="#F1F1F1" height="40" rx="12.5" ry="12.5" style="stroke:#181818;stroke-width:0.5;" width="199.1113" x="472.44" y="146.309"/><text fill="#000000" font-family="sans-serif" font-size="14" lengthAdjust="spacing" textLength="189.1113" x="477.44" y="171.741">Confirm selected destination</text><rect fill="#F1F1F1" height="40" rx="12.5" ry="12.5" style="stroke:#181818;stroke-width:0.5;" width="249.0491" x="46.48" y="146.309"/><text fill="#000000" font-family="sans-serif" font-size="14" lengthAdjust="spacing" textLength="239.0491" x="51.48" y="171.741">Showing dialog to complete address</text><rect fill="#F1F1F1" height="40" rx="12.5" ry="12.5" style="stroke:#181818;stroke-width:0.5;" width="250.6031" x="499.7" y="9.309"/><text fill="#000000" font-family="sans-serif" font-size="14" lengthAdjust="spacing" textLength="240.6031" x="504.7" y="34.741">Displaying list of similar destinations</text><ellipse cx="16" cy="29.309" fill="#222222" rx="10" ry="10" style="stroke:#222222;stroke-width:1;"/><ellipse cx="572" cy="276.309" fill="none" rx="11" ry="11" style="stroke:#222222;stroke-width:1;"/><ellipse cx="572" cy="276.309" fill="#222222" rx="6" ry="6" style="stroke:#222222;stroke-width:1;"/><!--link *start* to Map--><g class="link" data-entity-1="*start*" data-entity-2="Map" data-source-line="7" data-uid="lnk3" id="link_*start*_Map"><path d="M26.29,29.309 C37.88,29.309 43.47,29.309 55.06,29.309" fill="none" id="*start*-to-Map" style="stroke:#181818;stroke-width:1;"/><polygon fill="#181818" points="61.06,29.309,52.06,25.309,56.06,29.309,52.06,33.309,61.06,29.309" style="stroke:#181818;stroke-width:1;"/></g><!--link Map to Confirm--><g class="link" data-entity-1="Map" data-entity-2="Confirm" data-source-line="8" data-uid="lnk4" id="link_Map_Confirm"><path d="M268.21,49.799 C302.64,57.679 341.4,67.689 376,79.309 C432.18,98.179 489.0466,124.2901 528.0066,143.2801" fill="none" id="Map-to-Confirm" style="stroke:#181818;stroke-width:1;"/><polygon fill="#181818" points="533.4,145.909,527.0625,138.3701,528.9055,143.7183,523.5573,145.5613,533.4,145.909" style="stroke:#181818;stroke-width:1;"/><text fill="#000000" font-family="sans-serif" font-size="13" lengthAdjust="spacing" textLength="82.4851" x="469.63" y="94.206">selected valid</text><text fill="#000000" font-family="sans-serif" font-size="13" lengthAdjust="spacing" textLength="68.8741" x="479.8155" y="111.912">destination</text></g><!--link Confirm to *end*--><g class="link" data-entity-1="Confirm" data-entity-2="*end*" data-source-line="9" data-uid="lnk6" id="link_Confirm_*end*"><path d="M572,186.619 C572,209.549 572,240.969 572,258.979" fill="none" id="Confirm-to-*end*" style="stroke:#181818;stroke-width:1;"/><polygon fill="#181818" points="572,264.979,576,255.979,572,259.979,568,255.979,572,264.979" style="stroke:#181818;stroke-width:1;"/><text fill="#000000" font-family="sans-serif" font-size="13" lengthAdjust="spacing" textLength="135.0701" x="573" y="231.206">destination confirmed</text></g><!--link Map to Unknown--><g class="link" data-entity-1="Map" data-entity-2="Unknown" data-source-line="10" data-uid="lnk7" id="link_Map_Unknown"><path d="M280.9,29.309 C346.77,29.309 424.75,29.309 493.26,29.309" fill="none" id="Map-to-Unknown" style="stroke:#181818;stroke-width:1;"/><polygon fill="#181818" points="499.26,29.309,490.26,25.309,494.26,29.309,490.26,33.309,499.26,29.309" style="stroke:#181818;stroke-width:1;"/><text fill="#000000" font-family="sans-serif" font-size="13" lengthAdjust="spacing" textLength="183.3002" x="298.64" y="22.206">selected unknown destination</text></g><!--link Unknown to Confirm--><g class="link" data-entity-1="Unknown" data-entity-2="Confirm" data-source-line="11" data-uid="lnk8" id="link_Unknown_Confirm"><path d="M617.41,49.649 C607.33,75.319 591.8434,114.7743 581.7734,140.4143" fill="none" id="Unknown-to-Confirm" style="stroke:#181818;stroke-width:1;"/><polygon fill="#181818" points="579.58,145.999,586.5932,139.0842,581.4078,141.3451,579.1469,136.1597,579.58,145.999" style="stroke:#181818;stroke-width:1;"/><text fill="#000000" font-family="sans-serif" font-size="13" lengthAdjust="spacing" textLength="122.7851" x="605.81" y="94.206">picked a destination</text><text fill="#000000" font-family="sans-serif" font-size="13" lengthAdjust="spacing" textLength="74.3081" x="633.4285" y="111.912">from the list</text></g><!--link Map to Incomplete--><g class="link" data-entity-1="Map" data-entity-2="Incomplete" data-source-line="12" data-uid="lnk9" id="link_Map_Incomplete"><path d="M171,49.649 C171,75.319 171,114.359 171,139.999" fill="none" id="Map-to-Incomplete" style="stroke:#181818;stroke-width:1;"/><polygon fill="#181818" points="171,145.999,175,136.999,171,140.999,167,136.999,171,145.999" style="stroke:#181818;stroke-width:1;"/><text fill="#000000" font-family="sans-serif" font-size="13" lengthAdjust="spacing" textLength="50.505" x="242.9606" y="94.206">selected</text><text fill="#000000" font-family="sans-serif" font-size="13" lengthAdjust="spacing" textLength="192.4262" x="175.38" y="111.912">incomplete destination address</text></g><!--link Incomplete to Confirm--><g class="link" data-entity-1="Incomplete" data-entity-2="Confirm" data-source-line="13" data-uid="lnk10" id="link_Incomplete_Confirm"><path d="M295.96,166.309 C352.61,166.309 412.7,166.309 466.01,166.309" fill="none" id="Incomplete-to-Confirm" style="stroke:#181818;stroke-width:1;"/><polygon fill="#181818" points="472.01,166.309,463.01,162.309,467.01,166.309,463.01,170.309,472.01,166.309" style="stroke:#181818;stroke-width:1;"/><text fill="#000000" font-family="sans-serif" font-size="13" lengthAdjust="spacing" textLength="140.2181" x="313.98" y="159.206">completed the address</text></g><!--SRC=[RP2zKWGX48JpVOgf2wtQ5xZ0H1C38yj8BnXXzfWw_WhGzTvUuA10ou20cUwl6nHB0Z8-NK5I585zOcUNc30H71uvUerNjcSmw67df20I1g7WmtqV02Cye-_g1sSt3YOhD8b4iX0JMop4gcs2hdzHRYzeoQZT6P83uOpNb7SePQ0Og-l9zl4_jJJ716w3o8OrXZdovdwr5-jskonlToTOmtfV6-S3gyoNtlauMd-XPWdlTcOjNLTD1NMSrxbuNPEyaKjC2vx9dsqqWxliJnlFuf8T-2ibTzg2Cv0KrOUFPum_clEodiTY9hN_NIPVBJqAzBciQKt_0m00]--></g></svg>