<svg xmlns="http://www.w3.org/2000/svg" xmlns:xlink="http://www.w3.org/1999/xlink" contentStyleType="text/css" data-diagram-type="CLASS" height="518px" preserveAspectRatio="none" style="width:990px;height:518px;background:#FFFFFF;" version="1.1" viewBox="0 0 990 518" width="990px" zoomAndPan="magnify"><defs/><g><!--class User--><g class="entity" data-entity="User" data-source-line="1" data-uid="ent0002" id="entity_User"><rect fill="#F1F1F1" height="80.5938" rx="2.5" ry="2.5" style="stroke:#181818;stroke-width:0.5;" width="110.3691" x="582.12" y="132.3"/><ellipse cx="618.0265" cy="148.3" fill="#ADD1B2" rx="11" ry="11" style="stroke:#181818;stroke-width:1;"/><path d="M620.9953,153.9406 Q620.4172,154.2375 619.7765,154.3781 Q619.1359,154.5344 618.4328,154.5344 Q615.9328,154.5344 614.6047,152.8937 Q613.2922,151.2375 613.2922,148.1125 Q613.2922,144.9875 614.6047,143.3312 Q615.9328,141.675 618.4328,141.675 Q619.1359,141.675 619.7765,141.8312 Q620.4328,141.9875 620.9953,142.2844 L620.9953,145.0031 Q620.3703,144.425 619.7765,144.1594 Q619.1828,143.8781 618.5578,143.8781 Q617.214,143.8781 616.5265,144.9562 Q615.839,146.0187 615.839,148.1125 Q615.839,150.2062 616.5265,151.2844 Q617.214,152.3469 618.5578,152.3469 Q619.1828,152.3469 619.7765,152.0812 Q620.3703,151.8 620.9953,151.2219 L620.9953,153.9406 Z " fill="#000000"/><text fill="#000000" font-family="sans-serif" font-size="14" lengthAdjust="spacing" textLength="31.9102" x="636.6724" y="153.1467">User</text><line style="stroke:#181818;stroke-width:0.5;" x1="583.12" x2="691.4891" y1="164.3" y2="164.3"/><text fill="#000000" font-family="sans-serif" font-size="14" lengthAdjust="spacing" textLength="82.7012" x="588.12" y="181.2951">given name</text><text fill="#000000" font-family="sans-serif" font-size="14" lengthAdjust="spacing" textLength="98.3691" x="588.12" y="197.592">email address</text><line style="stroke:#181818;stroke-width:0.5;" x1="583.12" x2="691.4891" y1="204.8937" y2="204.8937"/></g><!--class Hitchhiker--><g class="entity" data-entity="Hitchhiker" data-source-line="6" data-uid="ent0003" id="entity_Hitchhiker"><rect fill="#F1F1F1" height="64.2969" rx="2.5" ry="2.5" style="stroke:#181818;stroke-width:0.5;" width="213.6055" x="530.51" y="7"/><ellipse cx="597.2048" cy="23" fill="#ADD1B2" rx="11" ry="11" style="stroke:#181818;stroke-width:1;"/><path d="M600.1736,28.6406 Q599.5954,28.9375 598.9548,29.0781 Q598.3142,29.2344 597.6111,29.2344 Q595.1111,29.2344 593.7829,27.5938 Q592.4704,25.9375 592.4704,22.8125 Q592.4704,19.6875 593.7829,18.0313 Q595.1111,16.375 597.6111,16.375 Q598.3142,16.375 598.9548,16.5313 Q599.6111,16.6875 600.1736,16.9844 L600.1736,19.7031 Q599.5486,19.125 598.9548,18.8594 Q598.3611,18.5781 597.7361,18.5781 Q596.3923,18.5781 595.7048,19.6563 Q595.0173,20.7188 595.0173,22.8125 Q595.0173,24.9063 595.7048,25.9844 Q596.3923,27.0469 597.7361,27.0469 Q598.3611,27.0469 598.9548,26.7813 Q599.5486,26.5 600.1736,25.9219 L600.1736,28.6406 Z " fill="#000000"/><text fill="#000000" font-family="sans-serif" font-size="14" lengthAdjust="spacing" textLength="71.7158" x="617.7048" y="27.8467">Hitchhiker</text><line style="stroke:#181818;stroke-width:0.5;" x1="531.51" x2="743.1155" y1="39" y2="39"/><text fill="#000000" font-family="sans-serif" font-size="14" lengthAdjust="spacing" textLength="201.6055" x="536.51" y="55.9951">preference: Preference [0..*]</text><line style="stroke:#181818;stroke-width:0.5;" x1="531.51" x2="743.1155" y1="63.2969" y2="63.2969"/></g><!--class Driver--><g class="entity" data-entity="Driver" data-source-line="10" data-uid="ent0004" id="entity_Driver"><rect fill="#F1F1F1" height="64.2969" rx="2.5" ry="2.5" style="stroke:#181818;stroke-width:0.5;" width="213.6055" x="530.51" y="289.89"/><ellipse cx="611.5227" cy="305.89" fill="#ADD1B2" rx="11" ry="11" style="stroke:#181818;stroke-width:1;"/><path d="M614.4914,311.5306 Q613.9133,311.8275 613.2727,311.9681 Q612.6321,312.1244 611.9289,312.1244 Q609.4289,312.1244 608.1008,310.4838 Q606.7883,308.8275 606.7883,305.7025 Q606.7883,302.5775 608.1008,300.9213 Q609.4289,299.265 611.9289,299.265 Q612.6321,299.265 613.2727,299.4213 Q613.9289,299.5775 614.4914,299.8744 L614.4914,302.5931 Q613.8664,302.015 613.2727,301.7494 Q612.6789,301.4681 612.0539,301.4681 Q610.7102,301.4681 610.0227,302.5463 Q609.3352,303.6088 609.3352,305.7025 Q609.3352,307.7963 610.0227,308.8744 Q610.7102,309.9369 612.0539,309.9369 Q612.6789,309.9369 613.2727,309.6713 Q613.8664,309.39 614.4914,308.8119 L614.4914,311.5306 Z " fill="#000000"/><text fill="#000000" font-family="sans-serif" font-size="14" lengthAdjust="spacing" textLength="43.0801" x="632.0227" y="310.7367">Driver</text><line style="stroke:#181818;stroke-width:0.5;" x1="531.51" x2="743.1155" y1="321.89" y2="321.89"/><text fill="#000000" font-family="sans-serif" font-size="14" lengthAdjust="spacing" textLength="201.6055" x="536.51" y="338.8851">preference: Preference [0..*]</text><line style="stroke:#181818;stroke-width:0.5;" x1="531.51" x2="743.1155" y1="346.1869" y2="346.1869"/></g><!--class Vehicle--><g class="entity" data-entity="Vehicle" data-source-line="14" data-uid="ent0005" id="entity_Vehicle"><rect fill="#F1F1F1" height="64.2969" rx="2.5" ry="2.5" style="stroke:#181818;stroke-width:0.5;" width="145.6152" x="309.5" y="289.89"/><ellipse cx="352.6079" cy="305.89" fill="#ADD1B2" rx="11" ry="11" style="stroke:#181818;stroke-width:1;"/><path d="M355.5766,311.5306 Q354.9985,311.8275 354.3579,311.9681 Q353.7172,312.1244 353.0141,312.1244 Q350.5141,312.1244 349.186,310.4838 Q347.8735,308.8275 347.8735,305.7025 Q347.8735,302.5775 349.186,300.9213 Q350.5141,299.265 353.0141,299.265 Q353.7172,299.265 354.3579,299.4213 Q355.0141,299.5775 355.5766,299.8744 L355.5766,302.5931 Q354.9516,302.015 354.3579,301.7494 Q353.7641,301.4681 353.1391,301.4681 Q351.7954,301.4681 351.1079,302.5463 Q350.4204,303.6088 350.4204,305.7025 Q350.4204,307.7963 351.1079,308.8744 Q351.7954,309.9369 353.1391,309.9369 Q353.7641,309.9369 354.3579,309.6713 Q354.9516,309.39 355.5766,308.8119 L355.5766,311.5306 Z " fill="#000000"/><text fill="#000000" font-family="sans-serif" font-size="14" lengthAdjust="spacing" textLength="51.1533" x="372.8541" y="310.7367">Vehicle</text><line style="stroke:#181818;stroke-width:0.5;" x1="310.5" x2="454.1152" y1="321.89" y2="321.89"/><text fill="#000000" font-family="sans-serif" font-size="14" lengthAdjust="spacing" textLength="133.6152" x="315.5" y="338.8851">hitchhiker capacity</text><line style="stroke:#181818;stroke-width:0.5;" x1="310.5" x2="454.1152" y1="346.1869" y2="346.1869"/></g><!--class Ride--><g class="entity" data-entity="Ride" data-source-line="18" data-uid="ent0006" id="entity_Ride"><rect fill="#F1F1F1" height="48" rx="2.5" ry="2.5" style="stroke:#181818;stroke-width:0.5;" width="63.1172" x="835.75" y="298.04"/><ellipse cx="850.75" cy="314.04" fill="#ADD1B2" rx="11" ry="11" style="stroke:#181818;stroke-width:1;"/><path d="M853.7188,319.6806 Q853.1406,319.9775 852.5,320.1181 Q851.8594,320.2744 851.1563,320.2744 Q848.6563,320.2744 847.3281,318.6337 Q846.0156,316.9775 846.0156,313.8525 Q846.0156,310.7275 847.3281,309.0712 Q848.6563,307.415 851.1563,307.415 Q851.8594,307.415 852.5,307.5712 Q853.1563,307.7275 853.7188,308.0244 L853.7188,310.7431 Q853.0938,310.165 852.5,309.8994 Q851.9063,309.6181 851.2813,309.6181 Q849.9375,309.6181 849.25,310.6962 Q848.5625,311.7587 848.5625,313.8525 Q848.5625,315.9462 849.25,317.0244 Q849.9375,318.0869 851.2813,318.0869 Q851.9063,318.0869 852.5,317.8212 Q853.0938,317.54 853.7188,316.9619 L853.7188,319.6806 Z " fill="#000000"/><text fill="#000000" font-family="sans-serif" font-size="14" lengthAdjust="spacing" textLength="31.1172" x="864.75" y="318.8867">Ride</text><line style="stroke:#181818;stroke-width:0.5;" x1="836.75" x2="897.8672" y1="330.04" y2="330.04"/><line style="stroke:#181818;stroke-width:0.5;" x1="836.75" x2="897.8672" y1="338.04" y2="338.04"/></g><!--class Destination--><g class="entity" data-entity="Destination" data-source-line="22" data-uid="ent0007" id="entity_Destination"><rect fill="#F1F1F1" height="48" rx="2.5" ry="2.5" style="stroke:#181818;stroke-width:0.5;" width="112.3359" x="353.14" y="447.48"/><ellipse cx="368.14" cy="463.48" fill="#ADD1B2" rx="11" ry="11" style="stroke:#181818;stroke-width:1;"/><path d="M371.1088,469.1206 Q370.5306,469.4175 369.89,469.5581 Q369.2494,469.7144 368.5463,469.7144 Q366.0463,469.7144 364.7181,468.0737 Q363.4056,466.4175 363.4056,463.2925 Q363.4056,460.1675 364.7181,458.5112 Q366.0463,456.855 368.5463,456.855 Q369.2494,456.855 369.89,457.0112 Q370.5463,457.1675 371.1088,457.4644 L371.1088,460.1831 Q370.4838,459.605 369.89,459.3394 Q369.2963,459.0581 368.6713,459.0581 Q367.3275,459.0581 366.64,460.1362 Q365.9525,461.1987 365.9525,463.2925 Q365.9525,465.3862 366.64,466.4644 Q367.3275,467.5269 368.6713,467.5269 Q369.2963,467.5269 369.89,467.2612 Q370.4838,466.98 371.1088,466.4019 L371.1088,469.1206 Z " fill="#000000"/><text fill="#000000" font-family="sans-serif" font-size="14" lengthAdjust="spacing" textLength="80.3359" x="382.14" y="468.3267">Destination</text><line style="stroke:#181818;stroke-width:0.5;" x1="354.14" x2="464.4759" y1="479.48" y2="479.48"/><line style="stroke:#181818;stroke-width:0.5;" x1="354.14" x2="464.4759" y1="487.48" y2="487.48"/></g><!--class DriverRating--><g class="entity" data-entity="DriverRating" data-source-line="25" data-uid="ent0008" id="entity_DriverRating"><rect fill="#F1F1F1" height="80.5938" rx="2.5" ry="2.5" style="stroke:#181818;stroke-width:0.5;" width="124.9756" x="10.82" y="431.19"/><ellipse cx="25.82" cy="447.19" fill="#ADD1B2" rx="11" ry="11" style="stroke:#181818;stroke-width:1;"/><path d="M28.7888,452.8306 Q28.2106,453.1275 27.57,453.2681 Q26.9294,453.4244 26.2263,453.4244 Q23.7263,453.4244 22.3981,451.7837 Q21.0856,450.1275 21.0856,447.0025 Q21.0856,443.8775 22.3981,442.2212 Q23.7263,440.565 26.2263,440.565 Q26.9294,440.565 27.57,440.7212 Q28.2263,440.8775 28.7888,441.1744 L28.7888,443.8931 Q28.1638,443.315 27.57,443.0494 Q26.9763,442.7681 26.3513,442.7681 Q25.0075,442.7681 24.32,443.8462 Q23.6325,444.9087 23.6325,447.0025 Q23.6325,449.0962 24.32,450.1744 Q25.0075,451.2369 26.3513,451.2369 Q26.9763,451.2369 27.57,450.9712 Q28.1638,450.69 28.7888,450.1119 L28.7888,452.8306 Z " fill="#000000"/><text fill="#000000" font-family="sans-serif" font-size="14" lengthAdjust="spacing" textLength="92.9756" x="39.82" y="452.0367">Driver Rating</text><line style="stroke:#181818;stroke-width:0.5;" x1="11.82" x2="134.7956" y1="463.19" y2="463.19"/><text fill="#000000" font-family="sans-serif" font-size="14" lengthAdjust="spacing" textLength="37.9258" x="16.82" y="480.1851">score</text><text fill="#000000" font-family="sans-serif" font-size="14" lengthAdjust="spacing" textLength="108.6025" x="16.82" y="496.482">comment [0..1]</text><line style="stroke:#181818;stroke-width:0.5;" x1="11.82" x2="134.7956" y1="503.7837" y2="503.7837"/></g><!--class Route--><g class="entity" data-entity="Route" data-source-line="30" data-uid="ent0009" id="entity_Route"><rect fill="#F1F1F1" height="80.5938" rx="2.5" ry="2.5" style="stroke:#181818;stroke-width:0.5;" width="164.8311" x="591.89" y="431.19"/><ellipse cx="649.4213" cy="447.19" fill="#ADD1B2" rx="11" ry="11" style="stroke:#181818;stroke-width:1;"/><path d="M652.39,452.8306 Q651.8119,453.1275 651.1713,453.2681 Q650.5306,453.4244 649.8275,453.4244 Q647.3275,453.4244 645.9994,451.7837 Q644.6869,450.1275 644.6869,447.0025 Q644.6869,443.8775 645.9994,442.2212 Q647.3275,440.565 649.8275,440.565 Q650.5306,440.565 651.1713,440.7212 Q651.8275,440.8775 652.39,441.1744 L652.39,443.8931 Q651.765,443.315 651.1713,443.0494 Q650.5775,442.7681 649.9525,442.7681 Q648.6088,442.7681 647.9213,443.8462 Q647.2338,444.9087 647.2338,447.0025 Q647.2338,449.0962 647.9213,450.1744 Q648.6088,451.2369 649.9525,451.2369 Q650.5775,451.2369 651.1713,450.9712 Q651.765,450.69 652.39,450.1119 L652.39,452.8306 Z " fill="#000000"/><text fill="#000000" font-family="sans-serif" font-size="14" lengthAdjust="spacing" textLength="41.2686" x="669.9213" y="452.0367">Route</text><line style="stroke:#181818;stroke-width:0.5;" x1="592.89" x2="755.7211" y1="463.19" y2="463.19"/><text fill="#000000" font-family="sans-serif" font-size="14" lengthAdjust="spacing" textLength="152.8311" x="597.89" y="480.1851">start: current location</text><text fill="#000000" font-family="sans-serif" font-size="14" lengthAdjust="spacing" textLength="115.876" x="597.89" y="496.482">end: Destination</text><line style="stroke:#181818;stroke-width:0.5;" x1="592.89" x2="755.7211" y1="503.7837" y2="503.7837"/></g><!--class DriverListing--><g class="entity" data-entity="DriverListing" data-source-line="35" data-uid="ent0010" id="entity_DriverListing"><rect fill="#F1F1F1" height="64.2969" rx="2.5" ry="2.5" style="stroke:#181818;stroke-width:0.5;" width="152.9092" x="121.85" y="289.89"/><ellipse cx="149.1156" cy="305.89" fill="#ADD1B2" rx="11" ry="11" style="stroke:#181818;stroke-width:1;"/><path d="M152.0843,311.5306 Q151.5062,311.8275 150.8656,311.9681 Q150.225,312.1244 149.5218,312.1244 Q147.0218,312.1244 145.6937,310.4838 Q144.3812,308.8275 144.3812,305.7025 Q144.3812,302.5775 145.6937,300.9213 Q147.0218,299.265 149.5218,299.265 Q150.225,299.265 150.8656,299.4213 Q151.5218,299.5775 152.0843,299.8744 L152.0843,302.5931 Q151.4593,302.015 150.8656,301.7494 Q150.2718,301.4681 149.6468,301.4681 Q148.3031,301.4681 147.6156,302.5463 Q146.9281,303.6088 146.9281,305.7025 Q146.9281,307.7963 147.6156,308.8744 Q148.3031,309.9369 149.6468,309.9369 Q150.2718,309.9369 150.8656,309.6713 Q151.4593,309.39 152.0843,308.8119 L152.0843,311.5306 Z " fill="#000000"/><text fill="#000000" font-family="sans-serif" font-size="14" lengthAdjust="spacing" textLength="93.6523" x="165.8413" y="310.7367">Driver Listing</text><line style="stroke:#181818;stroke-width:0.5;" x1="122.85" x2="273.7592" y1="321.89" y2="321.89"/><text fill="#000000" font-family="sans-serif" font-size="14" lengthAdjust="spacing" textLength="140.9092" x="127.85" y="338.8851">drivers: Driver [0..*]</text><line style="stroke:#181818;stroke-width:0.5;" x1="122.85" x2="273.7592" y1="346.1869" y2="346.1869"/></g><!--class RideRequest--><g class="entity" data-entity="RideRequest" data-source-line="39" data-uid="ent0011" id="entity_RideRequest"><rect fill="#F1F1F1" height="64.2969" rx="2.5" ry="2.5" style="stroke:#181818;stroke-width:0.5;" width="125.0645" x="858.78" y="439.33"/><ellipse cx="873.78" cy="455.33" fill="#ADD1B2" rx="11" ry="11" style="stroke:#181818;stroke-width:1;"/><path d="M876.7488,460.9706 Q876.1706,461.2675 875.53,461.4081 Q874.8894,461.5644 874.1863,461.5644 Q871.6863,461.5644 870.3581,459.9238 Q869.0456,458.2675 869.0456,455.1425 Q869.0456,452.0175 870.3581,450.3613 Q871.6863,448.705 874.1863,448.705 Q874.8894,448.705 875.53,448.8613 Q876.1863,449.0175 876.7488,449.3144 L876.7488,452.0331 Q876.1238,451.455 875.53,451.1894 Q874.9363,450.9081 874.3113,450.9081 Q872.9675,450.9081 872.28,451.9863 Q871.5925,453.0488 871.5925,455.1425 Q871.5925,457.2363 872.28,458.3144 Q872.9675,459.3769 874.3113,459.3769 Q874.9363,459.3769 875.53,459.1113 Q876.1238,458.83 876.7488,458.2519 L876.7488,460.9706 Z " fill="#000000"/><text fill="#000000" font-family="sans-serif" font-size="14" lengthAdjust="spacing" textLength="93.0645" x="887.78" y="460.1767">Ride Request</text><line style="stroke:#181818;stroke-width:0.5;" x1="859.78" x2="982.8445" y1="471.33" y2="471.33"/><text fill="#000000" font-family="sans-serif" font-size="14" lengthAdjust="spacing" textLength="43.0186" x="864.78" y="488.3251">status</text><line style="stroke:#181818;stroke-width:0.5;" x1="859.78" x2="982.8445" y1="495.6269" y2="495.6269"/></g><!--class Preference--><g class="entity" data-entity="Preference" data-source-line="43" data-uid="ent0012" id="entity_Preference"><rect fill="#F1F1F1" height="48" rx="2.5" ry="2.5" style="stroke:#181818;stroke-width:0.5;" width="107.9063" x="779.35" y="15.15"/><ellipse cx="794.35" cy="31.15" fill="#ADD1B2" rx="11" ry="11" style="stroke:#181818;stroke-width:1;"/><path d="M797.3188,36.7906 Q796.7406,37.0875 796.1,37.2281 Q795.4594,37.3844 794.7563,37.3844 Q792.2563,37.3844 790.9281,35.7437 Q789.6156,34.0875 789.6156,30.9625 Q789.6156,27.8375 790.9281,26.1812 Q792.2563,24.525 794.7563,24.525 Q795.4594,24.525 796.1,24.6812 Q796.7563,24.8375 797.3188,25.1344 L797.3188,27.8531 Q796.6938,27.275 796.1,27.0094 Q795.5063,26.7281 794.8813,26.7281 Q793.5375,26.7281 792.85,27.8062 Q792.1625,28.8687 792.1625,30.9625 Q792.1625,33.0562 792.85,34.1344 Q793.5375,35.1969 794.8813,35.1969 Q795.5063,35.1969 796.1,34.9312 Q796.6938,34.65 797.3188,34.0719 L797.3188,36.7906 Z " fill="#000000"/><text fill="#000000" font-family="sans-serif" font-size="14" lengthAdjust="spacing" textLength="75.9063" x="808.35" y="35.9967">Preference</text><line style="stroke:#181818;stroke-width:0.5;" x1="780.35" x2="886.2563" y1="47.15" y2="47.15"/><line style="stroke:#181818;stroke-width:0.5;" x1="780.35" x2="886.2563" y1="55.15" y2="55.15"/></g><!--reverse link User to Driver--><g class="link" data-entity-1="User" data-entity-2="Driver" data-source-line="47" data-uid="lnk14" id="link_User_Driver"><path codeLine="47" d="M637.31,231.11 C637.31,255.16 637.31,267.46 637.31,289.83" fill="none" id="User-backto-Driver" style="stroke:#181818;stroke-width:1;"/><polygon fill="none" points="637.31,213.11,631.31,231.11,643.31,231.11,637.31,213.11" style="stroke:#181818;stroke-width:1;"/></g><!--link Hitchhiker to User--><g class="link" data-entity-1="Hitchhiker" data-entity-2="User" data-source-line="48" data-uid="lnk15" id="link_Hitchhiker_User"><path codeLine="48" d="M637.31,71.63 C637.31,89.71 637.31,94.58 637.31,113.88" fill="none" id="Hitchhiker-to-User" style="stroke:#181818;stroke-width:1;"/><polygon fill="none" points="637.31,131.88,643.31,113.88,631.31,113.88,637.31,131.88" style="stroke:#181818;stroke-width:1;"/></g><!--link Driver to DriverRating--><g class="link" data-entity-1="Driver" data-entity-2="DriverRating" data-source-line="50" data-uid="lnk16" id="link_Driver_DriverRating"><path codeLine="50" d="M530.23,351.03 C413.78,381.47 237.3649,427.5925 142.0349,452.5125" fill="none" id="Driver-to-DriverRating" style="stroke:#181818;stroke-width:1;"/><polygon fill="#181818" points="136.23,454.03,145.949,455.6238,141.0674,452.7655,143.9258,447.8839,136.23,454.03" style="stroke:#181818;stroke-width:1;"/><text fill="#000000" font-family="sans-serif" font-size="13" lengthAdjust="spacing" textLength="103.981" x="390.31" y="397.2569">receives ratings</text><text fill="#000000" font-family="sans-serif" font-size="13" lengthAdjust="spacing" textLength="8.271" x="514.0823" y="365.7816">1</text><text fill="#000000" font-family="sans-serif" font-size="13" lengthAdjust="spacing" textLength="23.0356" x="143.9066" y="448.5301">0..*</text></g><!--link Hitchhiker to DriverRating--><g class="link" data-entity-1="Hitchhiker" data-entity-2="DriverRating" data-source-line="51" data-uid="lnk17" id="link_Hitchhiker_DriverRating"><path codeLine="51" d="M530.25,45.33 C430.82,53.67 280.86,75.46 163.31,132.3 C95.32,165.17 65.86,174.28 34.31,242.89 C6,304.44 29.6094,378.4333 50.5994,425.3433" fill="none" id="Hitchhiker-to-DriverRating" style="stroke:#181818;stroke-width:1;"/><polygon fill="#181818" points="53.05,430.82,53.0253,420.9712,51.0078,426.2561,45.723,424.2386,53.05,430.82" style="stroke:#181818;stroke-width:1;"/><text fill="#000000" font-family="sans-serif" font-size="13" lengthAdjust="spacing" textLength="83.7446" x="35.31" y="255.9569">gives ratings</text><text fill="#000000" font-family="sans-serif" font-size="13" lengthAdjust="spacing" textLength="8.271" x="514.1038" y="42.3049">1</text><text fill="#000000" font-family="sans-serif" font-size="13" lengthAdjust="spacing" textLength="23.0356" x="24.9914" y="420.2209">0..*</text></g><!--link Driver to RideRequest--><g class="link" data-entity-1="Driver" data-entity-2="RideRequest" data-source-line="53" data-uid="lnk18" id="link_Driver_RideRequest"><path codeLine="53" d="M671.61,354.46 C689.85,370 713.23,388.18 736.31,401.19 C774.85,422.91 815.8124,438.4897 852.6424,450.4297" fill="none" id="Driver-to-RideRequest" style="stroke:#181818;stroke-width:1;"/><polygon fill="#181818" points="858.35,452.28,851.0222,445.6994,853.5937,450.738,848.5551,453.3095,858.35,452.28" style="stroke:#181818;stroke-width:1;"/><text fill="#000000" font-family="sans-serif" font-size="13" lengthAdjust="spacing" textLength="54.5645" x="737.31" y="397.2569">receives</text><text fill="#000000" font-family="sans-serif" font-size="13" lengthAdjust="spacing" textLength="8.271" x="669.4112" y="374.1496">1</text><text fill="#000000" font-family="sans-serif" font-size="13" lengthAdjust="spacing" textLength="23.0356" x="827.6729" y="446.6005">0..*</text></g><!--link Hitchhiker to RideRequest--><g class="link" data-entity-1="Hitchhiker" data-entity-2="RideRequest" data-source-line="54" data-uid="lnk19" id="link_Hitchhiker_RideRequest"><path codeLine="54" d="M721.11,71.67 C753.62,86.66 789.61,106.92 817.31,132.3 C878.31,188.16 892.32,210.73 916.31,289.89 C931.59,340.32 929.5577,396.3588 925.9477,433.0388" fill="none" id="Hitchhiker-to-RideRequest" style="stroke:#181818;stroke-width:1;"/><polygon fill="#181818" points="925.36,439.01,930.2223,430.4451,925.8497,434.034,922.2607,429.6615,925.36,439.01" style="stroke:#181818;stroke-width:1;"/><text fill="#000000" font-family="sans-serif" font-size="13" lengthAdjust="spacing" textLength="40.168" x="906.31" y="255.9569">issues</text><text fill="#000000" font-family="sans-serif" font-size="13" lengthAdjust="spacing" textLength="8.271" x="728.3472" y="91.3787">1</text><text fill="#000000" font-family="sans-serif" font-size="13" lengthAdjust="spacing" textLength="23.0356" x="900.8964" y="428.2212">0..*</text></g><!--link Driver to Ride--><g class="link" data-entity-1="Driver" data-entity-2="Ride" data-source-line="56" data-uid="lnk20" id="link_Driver_Ride"><path codeLine="56" d="M744.56,322.04 C777.71,322.04 805.71,322.04 829.5,322.04" fill="none" id="Driver-to-Ride" style="stroke:#181818;stroke-width:1;"/><polygon fill="#181818" points="835.5,322.04,826.5,318.04,830.5,322.04,826.5,326.04,835.5,322.04" style="stroke:#181818;stroke-width:1;"/><text fill="#000000" font-family="sans-serif" font-size="13" lengthAdjust="spacing" textLength="55.8784" x="762.43" y="315.1069">provides</text><text fill="#000000" font-family="sans-serif" font-size="13" lengthAdjust="spacing" textLength="8.271" x="752.0435" y="318.6076">1</text><text fill="#000000" font-family="sans-serif" font-size="13" lengthAdjust="spacing" textLength="24.8066" x="802.9546" y="335.5965">0..1</text></g><!--link Hitchhiker to Ride--><g class="link" data-entity-1="Hitchhiker" data-entity-2="Ride" data-source-line="57" data-uid="lnk21" id="link_Hitchhiker_Ride"><path codeLine="57" d="M663.02,71.55 C709.68,128.53 803.4388,243.0377 844.5688,293.2677" fill="none" id="Hitchhiker-to-Ride" style="stroke:#181818;stroke-width:1;"/><polygon fill="#181818" points="848.37,297.91,845.763,288.4124,845.2023,294.0414,839.5733,293.4808,848.37,297.91" style="stroke:#181818;stroke-width:1;"/><text fill="#000000" font-family="sans-serif" font-size="13" lengthAdjust="spacing" textLength="29.7832" x="779.31" y="177.1569">uses</text><text fill="#000000" font-family="sans-serif" font-size="13" lengthAdjust="spacing" textLength="23.0356" x="642.8206" y="91.4856">0..*</text><text fill="#000000" font-family="sans-serif" font-size="13" lengthAdjust="spacing" textLength="24.8066" x="816.5453" y="286.8887">0..1</text></g><!--reverse link Vehicle to Driver--><g class="link" data-entity-1="Vehicle" data-entity-2="Driver" data-source-line="59" data-uid="lnk23" id="link_Vehicle_Driver"><path codeLine="59" d="M461.38,322.04 C484.63,322.04 504.86,322.04 530.01,322.04" fill="none" id="Vehicle-backto-Driver" style="stroke:#181818;stroke-width:1;"/><polygon fill="#181818" points="455.38,322.04,464.38,326.04,460.38,322.04,464.38,318.04,455.38,322.04" style="stroke:#181818;stroke-width:1;"/><text fill="#000000" font-family="sans-serif" font-size="13" lengthAdjust="spacing" textLength="39.6729" x="473.31" y="315.1069">drives</text><text fill="#000000" font-family="sans-serif" font-size="13" lengthAdjust="spacing" textLength="8.271" x="463.3421" y="318.3405">1</text><text fill="#000000" font-family="sans-serif" font-size="13" lengthAdjust="spacing" textLength="24.8066" x="497.6499" y="334.639">0..1</text></g><!--link Driver to Destination--><g class="link" data-entity-1="Driver" data-entity-2="Destination" data-source-line="60" data-uid="lnk24" id="link_Driver_Destination"><path codeLine="60" d="M588.4,354.67 C545.48,382.42 489.0888,418.8926 450.4788,443.8526" fill="none" id="Driver-to-Destination" style="stroke:#181818;stroke-width:1;"/><polygon fill="#181818" points="445.44,447.11,455.1698,445.5831,449.639,444.3955,450.8266,438.8647,445.44,447.11" style="stroke:#181818;stroke-width:1;"/><text fill="#000000" font-family="sans-serif" font-size="13" lengthAdjust="spacing" textLength="56.7417" x="538.31" y="397.2569">specifies</text><text fill="#000000" font-family="sans-serif" font-size="13" lengthAdjust="spacing" textLength="23.0356" x="554.2647" y="374.1484">0..*</text><text fill="#000000" font-family="sans-serif" font-size="13" lengthAdjust="spacing" textLength="24.8066" x="427.4205" y="436.4248">0..1</text></g><!--link Driver to Route--><g class="link" data-entity-1="Driver" data-entity-2="Route" data-source-line="61" data-uid="lnk25" id="link_Driver_Route"><path codeLine="61" d="M639,354.57 C640.26,368.95 642.47,386.1 646.31,401.19 C648.81,410.99 650.1779,415.6787 653.9379,425.2087" fill="none" id="Driver-to-Route" style="stroke:#181818;stroke-width:1;"/><polygon fill="#181818" points="656.14,430.79,656.5578,420.95,654.3049,426.1389,649.116,423.8861,656.14,430.79" style="stroke:#181818;stroke-width:1;"/><text fill="#000000" font-family="sans-serif" font-size="13" lengthAdjust="spacing" textLength="45.1128" x="647.31" y="397.2569">follows</text><text fill="#000000" font-family="sans-serif" font-size="13" lengthAdjust="spacing" textLength="23.0356" x="614.1328" y="374.2806">0..*</text><text fill="#000000" font-family="sans-serif" font-size="13" lengthAdjust="spacing" textLength="24.8066" x="627.3966" y="420.1861">0..1</text></g><!--reverse link DriverListing to Driver--><g class="link" data-entity-1="DriverListing" data-entity-2="Driver" data-source-line="62" data-uid="lnk27" id="link_DriverListing_Driver"><path codeLine="62" d="M268.0444,287.0142 C298.4944,273.3542 330.42,261.51 365.81,254.66 C436.97,240.89 517.44,266.08 572.17,289.48" fill="none" id="DriverListing-backto-Driver" style="stroke:#181818;stroke-width:1;"/><polygon fill="#181818" points="262.57,289.47,272.4188,289.4358,267.132,287.4235,269.1444,282.1367,262.57,289.47" style="stroke:#181818;stroke-width:1;"/><text fill="#000000" font-family="sans-serif" font-size="13" lengthAdjust="spacing" textLength="71.335" x="366.81" y="255.9569">included in</text><text fill="#000000" font-family="sans-serif" font-size="13" lengthAdjust="spacing" textLength="8.271" x="266.0839" y="278.9115">1</text><text fill="#000000" font-family="sans-serif" font-size="13" lengthAdjust="spacing" textLength="23.0356" x="534.5634" y="278.9234">0..*</text></g><!--link Hitchhiker to Destination--><g class="link" data-entity-1="Hitchhiker" data-entity-2="Destination" data-source-line="64" data-uid="lnk28" id="link_Hitchhiker_Destination"><path codeLine="64" d="M530.22,55.85 C403.48,80.81 197.86,142.75 104.31,289.89 C40.26,390.63 242.5382,441.3188 347.1282,460.4788" fill="none" id="Hitchhiker-to-Destination" style="stroke:#181818;stroke-width:1;"/><polygon fill="#181818" points="353.03,461.56,344.8981,456.0037,348.1118,460.659,343.4565,463.8728,353.03,461.56" style="stroke:#181818;stroke-width:1;"/><text fill="#000000" font-family="sans-serif" font-size="13" lengthAdjust="spacing" textLength="56.7417" x="140.31" y="255.9569">specifies</text><text fill="#000000" font-family="sans-serif" font-size="13" lengthAdjust="spacing" textLength="23.0356" x="499.6238" y="53.5106">0..*</text><text fill="#000000" font-family="sans-serif" font-size="13" lengthAdjust="spacing" textLength="24.8066" x="320.3336" y="456.4035">0..1</text></g><!--link Ride to Route--><g class="link" data-entity-1="Ride" data-entity-2="Route" data-source-line="66" data-uid="lnk29" id="link_Ride_Route"><path codeLine="66" d="M851,346.21 C838.46,362.89 820,385.18 800.31,401.19 C787.04,411.97 777.0344,418.9298 761.8944,427.7498" fill="none" id="Ride-to-Route" style="stroke:#181818;stroke-width:1;"/><polygon fill="#181818" points="756.71,430.77,766.5001,429.6959,761.0303,428.2531,762.4731,422.7834,756.71,430.77" style="stroke:#181818;stroke-width:1;"/><text fill="#000000" font-family="sans-serif" font-size="13" lengthAdjust="spacing" textLength="45.1128" x="817.31" y="397.2569">follows</text><text fill="#000000" font-family="sans-serif" font-size="13" lengthAdjust="spacing" textLength="23.0356" x="821.226" y="366.0126">0..*</text><text fill="#000000" font-family="sans-serif" font-size="13" lengthAdjust="spacing" textLength="8.271" x="761.2273" y="420.1629">1</text></g><!--SRC=[bLAnJiCm4Dtp5LR6Igd8wg4J0mC3YWGBOh3iQsFXsC7d527Wtt5i9t7QKaIco_DxxvxFnnL398y8bdmMn7y7UGHDDEiW_4B7f29C20k8nNTHy22uauwthNoTPRs5FLZG72Xvc6loVBFTRbuMtQtrzl_KF44hkO8aQfVEdFMCI_UnK1ifHbxM3z19pPmqskCpNAOSZJ_HXvAmALa4KYlaniOfSDDre5s8LcVH6ZEuAHWwPXqbVB1sf2h3GziuHIredkKyoRt4aoW9IUuYO4Yd2PuEgGnNR-1jy5s2omYa_oMX6x97p6OUPvQygw7wseMTAB9thiICJiIoBabLxKWvXYdN8wJ40WSF8B41mTpiklAmaltIBR_VqknAaxL08lfgRMuJkOvap-gjEVfgRHljBh07p1tZKQL6cY-cDQRnBJ7dRPQWdfalBINO0vTxUKqGrv2IlL7Al9yHfmJhlV8Zq5mD0eGlYaiN_3jH4IwUyy_J_000]--></g></svg>