<svg xmlns="http://www.w3.org/2000/svg" xmlns:xlink="http://www.w3.org/1999/xlink" contentStyleType="text/css" data-diagram-type="STATE" height="293px" preserveAspectRatio="none" style="width:735px;height:293px;background:#FFFFFF;" version="1.1" viewBox="0 0 735 293" width="735px" zoomAndPan="magnify"><defs/><g><rect fill="#F1F1F1" height="40" rx="12.5" ry="12.5" style="stroke:#181818;stroke-width:0.5;" width="219.1592" x="61.42" y="9.309"/><text fill="#000000" font-family="sans-serif" font-size="14" lengthAdjust="spacing" textLength="209.1592" x="66.42" y="34.741">Displaying map with search box</text><rect fill="#F1F1F1" height="40" rx="12.5" ry="12.5" style="stroke:#181818;stroke-width:0.5;" width="199.1113" x="461.44" y="146.309"/><text fill="#000000" font-family="sans-serif" font-size="14" lengthAdjust="spacing" textLength="189.1113" x="466.44" y="171.741">Confirm selected destination</text><rect fill="#F1F1F1" height="40" rx="12.5" ry="12.5" style="stroke:#181818;stroke-width:0.5;" width="228.1752" x="56.91" y="146.309"/><text fill="#000000" font-family="sans-serif" font-size="14" lengthAdjust="spacing" textLength="218.1752" x="61.91" y="171.741">Show dialog to complete address</text><rect fill="#F1F1F1" height="40" rx="12.5" ry="12.5" style="stroke:#181818;stroke-width:0.5;" width="229.7292" x="500.14" y="9.309"/><text fill="#000000" font-family="sans-serif" font-size="14" lengthAdjust="spacing" textLength="219.7292" x="505.14" y="34.741">Display list of similar destinations</text><ellipse cx="16" cy="29.309" fill="#222222" rx="10" ry="10" style="stroke:#222222;stroke-width:1;"/><ellipse cx="561" cy="276.309" fill="none" rx="11" ry="11" style="stroke:#222222;stroke-width:1;"/><ellipse cx="561" cy="276.309" fill="#222222" rx="6" ry="6" style="stroke:#222222;stroke-width:1;"/><!--link *start* to Map--><g class="link" data-entity-1="*start*" data-entity-2="Map" data-source-line="7" data-uid="lnk3" id="link_*start*_Map"><path d="M26.29,29.309 C37.88,29.309 43.47,29.309 55.06,29.309" fill="none" id="*start*-to-Map" style="stroke:#181818;stroke-width:1;"/><polygon fill="#181818" points="61.06,29.309,52.06,25.309,56.06,29.309,52.06,33.309,61.06,29.309" style="stroke:#181818;stroke-width:1;"/></g><!--link Map to Confirm--><g class="link" data-entity-1="Map" data-entity-2="Confirm" data-source-line="8" data-uid="lnk4" id="link_Map_Confirm"><path d="M270.17,49.799 C304.15,57.579 342.13,67.519 376,79.309 C429.52,97.939 483.0892,124.096 519.7192,143.186" fill="none" id="Map-to-Confirm" style="stroke:#181818;stroke-width:1;"/><polygon fill="#181818" points="525.04,145.959,518.9075,138.2524,520.606,143.6482,515.2102,145.3467,525.04,145.959" style="stroke:#181818;stroke-width:1;"/><text fill="#000000" font-family="sans-serif" font-size="13" lengthAdjust="spacing" textLength="82.4851" x="464.66" y="94.206">selected valid</text><text fill="#000000" font-family="sans-serif" font-size="13" lengthAdjust="spacing" textLength="68.8741" x="474.8455" y="111.912">destination</text></g><!--link Confirm to *end*--><g class="link" data-entity-1="Confirm" data-entity-2="*end*" data-source-line="9" data-uid="lnk6" id="link_Confirm_*end*"><path d="M561,186.619 C561,209.549 561,240.969 561,258.979" fill="none" id="Confirm-to-*end*" style="stroke:#181818;stroke-width:1;"/><polygon fill="#181818" points="561,264.979,565,255.979,561,259.979,557,255.979,561,264.979" style="stroke:#181818;stroke-width:1;"/><text fill="#000000" font-family="sans-serif" font-size="13" lengthAdjust="spacing" textLength="135.0701" x="562" y="231.206">destination confirmed</text></g><!--link Map to Unknown--><g class="link" data-entity-1="Map" data-entity-2="Unknown" data-source-line="10" data-uid="lnk7" id="link_Map_Unknown"><path d="M281.04,29.309 C347.55,29.309 426.23,29.309 493.68,29.309" fill="none" id="Map-to-Unknown" style="stroke:#181818;stroke-width:1;"/><polygon fill="#181818" points="499.68,29.309,490.68,25.309,494.68,29.309,490.68,33.309,499.68,29.309" style="stroke:#181818;stroke-width:1;"/><text fill="#000000" font-family="sans-serif" font-size="13" lengthAdjust="spacing" textLength="183.3002" x="298.86" y="22.206">selected unknown destination</text></g><!--link Unknown to Confirm--><g class="link" data-entity-1="Unknown" data-entity-2="Confirm" data-source-line="11" data-uid="lnk8" id="link_Unknown_Confirm"><path d="M607.26,49.649 C597,75.319 581.2091,114.7884 570.9491,140.4284" fill="none" id="Unknown-to-Confirm" style="stroke:#181818;stroke-width:1;"/><polygon fill="#181818" points="568.72,145.999,575.7773,139.1292,570.5776,141.3569,568.3499,136.1571,568.72,145.999" style="stroke:#181818;stroke-width:1;"/><text fill="#000000" font-family="sans-serif" font-size="13" lengthAdjust="spacing" textLength="122.7851" x="595.42" y="94.206">picked a destination</text><text fill="#000000" font-family="sans-serif" font-size="13" lengthAdjust="spacing" textLength="74.3081" x="623.0385" y="111.912">from the list</text></g><!--link Map to Incomplete--><g class="link" data-entity-1="Map" data-entity-2="Incomplete" data-source-line="12" data-uid="lnk9" id="link_Map_Incomplete"><path d="M171,49.649 C171,75.319 171,114.359 171,139.999" fill="none" id="Map-to-Incomplete" style="stroke:#181818;stroke-width:1;"/><polygon fill="#181818" points="171,145.999,175,136.999,171,140.999,167,136.999,171,145.999" style="stroke:#181818;stroke-width:1;"/><text fill="#000000" font-family="sans-serif" font-size="13" lengthAdjust="spacing" textLength="50.505" x="242.9606" y="94.206">selected</text><text fill="#000000" font-family="sans-serif" font-size="13" lengthAdjust="spacing" textLength="192.4262" x="175.38" y="111.912">incomplete destination address</text></g><!--link Incomplete to Confirm--><g class="link" data-entity-1="Incomplete" data-entity-2="Confirm" data-source-line="13" data-uid="lnk10" id="link_Incomplete_Confirm"><path d="M285.38,166.309 C341.12,166.309 401.53,166.309 455.19,166.309" fill="none" id="Incomplete-to-Confirm" style="stroke:#181818;stroke-width:1;"/><polygon fill="#181818" points="461.19,166.309,452.19,162.309,456.19,166.309,452.19,170.309,461.19,166.309" style="stroke:#181818;stroke-width:1;"/><text fill="#000000" font-family="sans-serif" font-size="13" lengthAdjust="spacing" textLength="140.2181" x="303.27" y="159.206">completed the address</text></g><!--SRC=[NP2xKaCX48Pxdc8dfJFd1LBOQ6DXvLXfYXNsX9rm6q2FUNiv10PCGS7kzrz0io8W6_8L52KPEMJsJgICcU3mp2aOlB8xWyK06sSDYJ1A3L_-zm2Ou1L3fv-yMpdQGXYIcTJkcDdXxbZP1dJ-JViD5AFnPyWUfBV1K5cWKf5Igf8NryTtdS1mok1NI6pPO9p3Rj9tTt5-Sq9yF9nWYSjZxLeEBAfSUjlZwFk3XXLykjbBTAwATglZl2wjwvhKpNcFQS6pytSRpSOTksiJM5wA0l-bb4vhz1QoflhmyOpnGNDUuNaiPgVskMBIrTAZG9-hcjRuFm00]--></g></svg>