<svg xmlns="http://www.w3.org/2000/svg" xmlns:xlink="http://www.w3.org/1999/xlink" contentStyleType="text/css" data-diagram-type="STATE" height="484px" preserveAspectRatio="none" style="width:1029px;height:484px;background:#FFFFFF;" version="1.1" viewBox="0 0 1029 484" width="1029px" zoomAndPan="magnify"><defs/><g><rect fill="#F1F1F1" height="40" rx="12.5" ry="12.5" style="stroke:#181818;stroke-width:0.5;" width="450.5557" x="177.12" y="87"/><text fill="#000000" font-family="sans-serif" font-size="14" lengthAdjust="spacing" textLength="440.5557" x="182.12" y="111.8467">Displaying map with the fastest path to the drivers destination</text><rect fill="#F1F1F1" height="40" rx="12.5" ry="12.5" style="stroke:#181818;stroke-width:0.5;" width="389.2441" x="326.78" y="321"/><text fill="#000000" font-family="sans-serif" font-size="14" lengthAdjust="spacing" textLength="379.2441" x="331.78" y="345.8467">Displaying map with the fastest path to the hitchhiker</text><rect fill="#F1F1F1" height="40" rx="12.5" ry="12.5" style="stroke:#181818;stroke-width:0.5;" width="755.9307" x="267.44" y="438"/><text fill="#000000" font-family="sans-serif" font-size="14" lengthAdjust="spacing" textLength="745.9307" x="272.44" y="462.8467">Displaying map with the fastest path to drivers destination, while also showing the hitchhikers destination</text><rect fill="#F1F1F1" height="40" rx="12.5" ry="12.5" style="stroke:#181818;stroke-width:0.5;" width="242.8047" x="7" y="204"/><text fill="#000000" font-family="sans-serif" font-size="14" lengthAdjust="spacing" textLength="232.8047" x="12" y="228.8467">Show notification from hitchhiker</text><ellipse cx="402.4" cy="16" fill="#222222" rx="10" ry="10" style="stroke:#222222;stroke-width:1;"/><ellipse cx="402.4" cy="224" fill="none" rx="11" ry="11" style="stroke:#222222;stroke-width:1;"/><ellipse cx="402.4" cy="224" fill="#222222" rx="6" ry="6" style="stroke:#222222;stroke-width:1;"/><!--link *start* to MapDriver--><g class="link" data-entity-1="*start*" data-entity-2="MapDriver" data-source-line="7" data-uid="lnk3" id="link_*start*_MapDriver"><path d="M402.4,26.19 C402.4,40.4 402.4,62.02 402.4,80.74" fill="none" id="*start*-to-MapDriver" style="stroke:#181818;stroke-width:1;"/><polygon fill="#181818" points="402.4,86.74,406.4,77.74,402.4,81.74,398.4,77.74,402.4,86.74" style="stroke:#181818;stroke-width:1;"/></g><!--link MapDriver to Notification--><g class="link" data-entity-1="MapDriver" data-entity-2="Notification" data-source-line="8" data-uid="lnk4" id="link_MapDriver_Notification"><path d="M176.93,123.48 C137.99,130.76 105.72,141.41 92.4,157 C80.36,171.09 88.5956,185.5405 102.0156,199.4605" fill="none" id="MapDriver-to-Notification" style="stroke:#181818;stroke-width:1;"/><polygon fill="#181818" points="106.18,203.78,102.8131,194.5245,102.7097,200.1804,97.0538,200.077,106.18,203.78" style="stroke:#181818;stroke-width:1;"/></g><!--link Notification to MapDriver--><g class="link" data-entity-1="Notification" data-entity-2="MapDriver" data-source-line="11" data-uid="lnk7" id="link_Notification_MapDriver"><path d="M131.9,203.56 C135.63,188.58 143.06,168.53 157.4,157 C172.74,144.67 202.0957,136.041 241.2157,128.601" fill="none" id="Notification-to-MapDriver" style="stroke:#181818;stroke-width:1;"/><polygon fill="#181818" points="247.11,127.48,237.5211,125.232,242.198,128.4142,239.0158,133.0911,247.11,127.48" style="stroke:#181818;stroke-width:1;"/><text fill="#000000" font-family="sans-serif" font-size="13" lengthAdjust="spacing" textLength="232.6606" x="158.4" y="170.0669">driver doesn't accept the hitchhiker</text></g><!--link Notification to MapHitchhiker--><g class="link" data-entity-1="Notification" data-entity-2="MapHitchhiker" data-source-line="9" data-uid="lnk5" id="link_Notification_MapHitchhiker"><path d="M194.36,244.38 C239.2,257.54 299.87,275.34 353.4,291 C386.79,300.77 418.1597,309.9209 448.9997,318.9109" fill="none" id="Notification-to-MapHitchhiker" style="stroke:#181818;stroke-width:1;"/><polygon fill="#181818" points="454.76,320.59,447.239,314.2311,449.9598,319.1907,445.0002,321.9115,454.76,320.59" style="stroke:#181818;stroke-width:1;"/><text fill="#000000" font-family="sans-serif" font-size="13" lengthAdjust="spacing" textLength="187.4146" x="354.4" y="287.0669">driver accepts the hitchhiker</text></g><!--link MapHitchhiker to MapDriver--><g class="link" data-entity-1="MapHitchhiker" data-entity-2="MapDriver" data-source-line="10" data-uid="lnk6" id="link_MapHitchhiker_MapDriver"><path d="M533.86,320.8 C538.8,312.08 543.9,301.4 546.4,291 C560.32,233.09 581.07,205.42 546.4,157 C537.1,144.01 529.5337,137.0687 515.1837,130.0087" fill="none" id="MapHitchhiker-to-MapDriver" style="stroke:#181818;stroke-width:1;"/><polygon fill="#181818" points="509.8,127.36,516.1098,134.9222,514.2864,129.5673,519.6414,127.7439,509.8,127.36" style="stroke:#181818;stroke-width:1;"/><text fill="#000000" font-family="sans-serif" font-size="13" lengthAdjust="spacing" textLength="146.0659" x="566.4" y="228.5669">driver cancels the ride</text></g><!--link MapHitchhiker to MapH--><g class="link" data-entity-1="MapHitchhiker" data-entity-2="MapH" data-source-line="12" data-uid="lnk8" id="link_MapHitchhiker_MapH"><path d="M526.45,361.29 C531,375.61 538.94,394.84 551.4,408 C563.05,420.29 573.0942,427.3953 588.0642,434.8853" fill="none" id="MapHitchhiker-to-MapH" style="stroke:#181818;stroke-width:1;"/><polygon fill="#181818" points="593.43,437.57,587.171,429.9657,588.9585,435.3327,583.5914,437.1202,593.43,437.57" style="stroke:#181818;stroke-width:1;"/><text fill="#000000" font-family="sans-serif" font-size="13" lengthAdjust="spacing" textLength="190.9692" x="552.4" y="404.0669">driver picks up the hitchhiker</text></g><!--link MapH to MapDriver--><g class="link" data-entity-1="MapH" data-entity-2="MapDriver" data-source-line="13" data-uid="lnk9" id="link_MapH_MapDriver"><path d="M713.19,437.55 C726.75,430.46 739.3,420.89 747.4,408 C796.07,330.63 779.98,274.16 721.4,204 C688.88,165.04 646.9329,143.1799 598.2729,129.0799" fill="none" id="MapH-to-MapDriver" style="stroke:#181818;stroke-width:1;"/><polygon fill="#181818" points="592.51,127.41,600.0411,133.7568,597.3124,128.8016,602.2677,126.0729,592.51,127.41" style="stroke:#181818;stroke-width:1;"/><text fill="#000000" font-family="sans-serif" font-size="13" lengthAdjust="spacing" textLength="120.231" x="772.4" y="287.0669">drop off hitchhiker</text></g><!--link MapDriver to *end*--><g class="link" data-entity-1="MapDriver" data-entity-2="*end*" data-source-line="14" data-uid="lnk11" id="link_MapDriver_*end*"><path d="M400.75,127.34 C399.81,140.5 398.92,158.29 399.4,174 C399.81,187.46 400.4128,196.9867 401.1528,206.8867" fill="none" id="MapDriver-to-*end*" style="stroke:#181818;stroke-width:1;"/><polygon fill="#181818" points="401.6,212.87,404.918,203.5969,401.2273,207.8839,396.9403,204.1932,401.6,212.87" style="stroke:#181818;stroke-width:1;"/><text fill="#000000" font-family="sans-serif" font-size="13" lengthAdjust="spacing" textLength="141.3369" x="400.4" y="170.0669">driver finishes driving</text></g><!--SRC=[dLAzJiGm3Dxx5DOjI8Xx0OQRRkW22oDYi5A7MDScKMoexkslATUVL1s0BNQ-7_jB73S4r4MzGaDY4aVbu2jHL8B3cIMsU6N_2Hr6w5aTg2EmA4gY434tmjXh4dzJaYoZx37B7005NZ2Unwl_Y3fMunnVA4rQzTpvgzxEW4_GEsu9i9K0uaAVHKhVtONgoVjju80FofRDY02RGhST-tK5gAhtnmyu7a-hOEPJRXVWTJ6HbWIUxpi16aDHPJDwLO1BJvYv1hsXzeURXj-mwxabDO74F-ZT-5U-zSAER2u2Nt6FLpfcIeWGhDtWbhnodBEoPS_YICPwUCmR]--></g></svg>
